<?xml version="1.0" encoding="utf-8"?>
<!-- Generator: Adobe Illustrator 26.3.1, SVG Export Plug-In . SVG Version: 6.00 Build 0)  -->
<svg version="1.1" id="Layer_1" xmlns="http://www.w3.org/2000/svg" xmlns:xlink="http://www.w3.org/1999/xlink" x="0px" y="0px"
	 viewBox="0 0 473.5 656.4" style="enable-background:new 0 0 473.5 656.4;" xml:space="preserve">
<style type="text/css">
	.st0{fill:none;stroke:#C6C6C6;stroke-width:90;stroke-linecap:round;stroke-miterlimit:10;}
	.st1{fill:none;stroke:#FFFFFF;stroke-width:90;stroke-linecap:round;stroke-miterlimit:10;}
	.st2{fill:#C6C6C6;}
</style>
<g>
	<g>
		<path class="st0" d="M362.9,611.4c6.8-8.9,12.1-18.8,16.1-30.4c3.9-11.2,5.9-24,5.9-38c0-36.9-8.1-63.5-24.7-81.3
			c-8.7-9.3-20.9-16-36.5-20"/>
	</g>
</g>
<g>
	<path class="st1" d="M163.3,137.8c0,41.2,33.4,74.5,74.5,74.5V63.2C196.6,63.2,163.3,96.6,163.3,137.8z"/>
	<path class="st2" d="M312.3,137.8c0-41.2-33.4-74.5-74.5-74.5v149.1C279,212.3,312.3,178.9,312.3,137.8z"/>
</g>
<path class="st0" d="M237.8,437.1"/>
<g>
	<g>
		<path class="st0" d="M132.4,376.6c0-33.4,27.1-60.5,60.5-60.5h89.4"/>
		<path class="st0" d="M362.9,611.4c6.8-8.9,12.1-18.8,16.1-30.4c3.9-11.2,5.9-24,5.9-38c0-36.9-8.1-63.5-24.7-81.3
			c-8.7-9.3-20.9-16-36.5-20"/>
	</g>
</g>
<g>
	<path class="st0" d="M394,45c10.7,13.9,19.2,29.7,25.3,47.4c6.2,17.7,9.2,37,9.2,57.9c0,52.5-13.7,93.4-41,122.6
		c-27.3,29.2-68.1,43.8-122.2,43.8H176"/>
</g>
<path class="st0" d="M192.9,437.1c-33.4,0-60.5-27.1-60.5-60.5"/>
<g>
	<path class="st1" d="M79.6,45C68.8,58.9,60.4,74.7,54.2,92.4c-6.2,17.7-9.2,37-9.2,57.9c0,52.5,13.7,93.4,41,122.6
		c27.3,29.2,68.1,43.8,122.2,43.8l65.9-0.6h8.2c33.4,0,60.5,27.1,60.5,60.5s-27.1,60.5-60.5,60.5h-89.4c-36.5,0-62.7,8.3-78,24.6
		c-16.6,17.7-24.7,44.3-24.7,81.3c0,14,2,26.8,5.9,38c4,11.6,9.3,21.6,16.1,30.4"/>
</g>
</svg>
