<?xml version="1.0" encoding="utf-8"?>
<!-- Generator: Adobe Illustrator 26.3.1, SVG Export Plug-In . SVG Version: 6.00 Build 0)  -->
<svg version="1.1" id="Layer_1" xmlns="http://www.w3.org/2000/svg" xmlns:xlink="http://www.w3.org/1999/xlink" x="0px" y="0px"
	 viewBox="0 0 17.4 9.6" style="enable-background:new 0 0 17.4 9.6;" xml:space="preserve">
<style type="text/css">
	.st0{fill-rule:evenodd;clip-rule:evenodd;fill:#020202;}
</style>
<path class="st0" d="M6.1,0C4.9,0,4,0.6,3.6,1.6V0.2H3L1.2,0.8L0,1.1v0.3c0.8,0,1.1,0.4,1.2,1.1v6.9h2.4v-4c0-1.8,0.7-2.9,2.5-2.9V0
	z"/>
<path class="st0" d="M12.4,0C9.7,0,7.5,2,7.5,4.8c0,2.8,2.1,4.8,4.9,4.8c2.9,0,4.9-2,4.9-4.8C17.4,2.1,15.2,0,12.4,0z M12.4,2.1
	c1.4,0,2.5,1.1,2.5,2.7c0,1.6-1.1,2.6-2.5,2.6c-1.4,0-2.5-1.1-2.5-2.6C9.9,3.2,11,2.1,12.4,2.1z"/>
</svg>
