<?xml version="1.0" encoding="utf-8"?>
<!-- Generator: Adobe Illustrator 26.3.1, SVG Export Plug-In . SVG Version: 6.00 Build 0)  -->
<svg version="1.1" id="Layer_1" xmlns="http://www.w3.org/2000/svg" xmlns:xlink="http://www.w3.org/1999/xlink" x="0px" y="0px"
	 viewBox="0 0 503.2 500" style="enable-background:new 0 0 503.2 500;" xml:space="preserve">
<style type="text/css">
	.st0{fill:#231815;}
	.st1{fill:#FFFFFF;}
	.st2{fill:none;stroke:#231815;stroke-width:1.3278;}
</style>
<g>
	<path class="st0" d="M480.4,145.2c38.7,77.6,27,187.2-26.7,254.2c-63,80.8-158.1,115.2-258.7,94.8C105,477,19.2,390.1,4.3,299.6
		c-18.5-105.7,23.3-205.8,114.9-263c71.5-48.7,185.9-47.9,258.7-3.2C421.6,57.3,460,101.8,480.4,145.2"/>
	<path class="st1" d="M463.2,123.5c46.1,69.6,46.1,181.1,1.3,251c-52.4,84.2-140.1,128.2-239.1,119.7C134.3,487,42.2,413.4,16.5,325
		C-14,227.8,15.7,125.9,93.8,60.7c65.7-56.4,170.5-72.6,251-37.6C390.9,40.6,437.3,79,463.2,123.5"/>
	<path class="st1" d="M167.7,42.2c4,4.2,6.4,10.1,4.5,15.9c-1.6,2.1-4.5,4-7.7,3.2l-9-19.1C157.6,38.2,165.6,39,167.7,42.2"/>
	<path class="st0" d="M413.7,150.2c33.1,50.6,37.9,130.8,8.2,184.3c-38.4,71.8-113.1,113.1-194.6,103C163,431.1,97.8,383,74.2,321.3
		c-24.4-59.6-15.4-136.1,24.1-185.6C149.1,70,233.1,43.5,312,70.3C351.7,82.7,390.4,112.4,413.7,150.2"/>
	<path class="st1" d="M417.9,168c22.5,42.1,26,103.8,6.4,148.3c-4.2,1.6-10.9-1.3-13.8,2.4c3.4,1.3,8.2,0,11.9,1.3v1.3h-15.9
		c2.9-2.1,1.6-7.4,6.4-7.1c-1.3-4,0.8-13.8-4.5-14.6c0.5-4-5.6-1.8-4.2-6.4c-1.3,3.7-5,2.4-6.4,6.4l0.5,3.2c-2.6-1.3-0.3-3.7,0-5.6
		c-6.4,3.2-5.8-11.9-7.7-1.3H385c-0.3-1.1,0.5-2.6-0.8-3.2c-1.1-0.5-2.4,0.5-1.8,1.8c-0.5,2.1-2.9,2.7-3.7,5
		c-0.3,4.8-1.6,10.6-6.4,11.4c2.9,4.2,9.5,4.5,11.4,10.3h1.9c-5,0.3-10.9-1.1-15.4,1.3c3.4,2.4,9,0.3,12.7,1.9v1.3l-12.7,0.5
		c3.2-14.8-3.4-29.7-5.6-44.5l2.4-3.2c5-18.5-6.4-44.2,14.8-55.4c-3.4-7.9,12.4-19.6-1.3-25.4c4.8,0.8,6.4,10.6,13.3,5
		c0.5-0.3,0.8-0.8,1.3-0.5c0.8,0.5,0.5,1.3,0.5,1.8c-3.2,0.8-6.4,3.4-8.7,4.5c4.8,2.1,9-1.3,12.7-3.7c-1.1-2.1-0.8-4.5-3.2-5.8
		l-4.5,1.3c-3.4-8-8.5-16.7-9.5-26.2c-1.3-2.1-4.5-3.7-6.4-1.1c-0.8,4-0.5,8.7-5,10.6c-2.9-1.1-3.7,1.8-3.2,4c0.3,2.9,4,4,1.3,7.7
		c-0.5,1.6-1.8,3.2-2.1,5c-1.1,0.3-3.2-0.8-3.2,1.3v1.9c2.1,1.6,4.2-0.5,5.8,0c-1.6,5,4,10.6-2.6,14.6c1.8-7.2-8.7-9.3-6.9-17.2
		c2.1-0.3,4.8-1.3,5.8-3.7c-1.8-6.6-1.6-11.6-2.6-18.5c3.4,0.8,5-2.4,7.7-3.7c1.6-3.7-2.4-4.8-4.5-5.8c-3.7-0.5-6.4,1.6-6.9-3.2
		c-8-1.1-15.9,1.3-22.2,5.8c4.8,8.5-10.1,7.2-7.1,15.9c-1.1,4.8-13.8,10.9-6.9,17.2l3.7-2.6c0.5,1.3,1.6,2.1,2.7,3.2
		c8.7-1.6,2.9-26.5,13.2-11.4c-0.5,6.4-8.7,8-10.9,14c-5,13.8,1.3,27.8,2.1,41.8l-7.2,31.3c2.4,1.3,2.9,3.7,2.7,6.4
		c-1.1-1.3-2.7-0.5-4-0.8l-1.1,1.3c1.1,5,6.6-1.8,5,2.7h-5.8c3.4-24.9,7.2-52.7,1.9-77.6c-44.2-11.1-98.5-11.9-143.5-1.8
		c0,4.2-5.6,10.1,0,13.2c1.1-3.2,1.1-6.9,1.8-10.1c43.7-10.1,95.9-8.7,139.3,1.1c5.3,47.7-4.5,93.5-20.9,134.3l-6.4,3.7
		c2.4-9.8,8.2-21.2,11.4-32.3c8.7-31.2,15.9-64.9,11.9-99.8c-14.6-5.6-31-7.4-47.7-8.2c-27.8-1.1-56.1,0.8-82.6,5.6
		c-5,47.7,4,93.8,21.7,134.3c-4.5-0.8-7.4-5.8-9-9.5c-9.3-24.6-14.8-50.8-19.6-77.6c-0.8,0-1.9,1.1-1.9,1.9l1.9,16.7
		c0.8-0.8-1.3-2.6-3.2-2.1c-1.9,0.8,0.5,3.4,0,2.6c-1.3-0.3-2.4,0.3-3.2,1.3c1.8,2.9,7.4-0.8,7.7,3.2c-2.7,0.5-6.9-1.6-7.7,1.8
		c2.4,3.2,5.6-1.1,8.2,1.3v1.3c-2.9,1.6-8.5-1.3-10.1,2.4c2.7,1.8,9.8-1.1,11.4,2.6c-5,1.1-11.4-0.8-15.4,2.4
		c5.6,4,10.1-1.9,15.9,0.8l0.8,1.8c-5.3,0-10.1,0-15.4,1.8v0.8c5.6,3.2,15.4-4.2,16.7,3.7c-5-1.1-13.5,2.7-17.2-3.2
		c-3.4-6.9,0.3-10.3,3.7-15.9c0-14.8,7.4-26.2,8.2-40.8c8.5-10.6-6.9-20.7-4.2-33.6c-5.6-7.7-25.7-10.9-14.8-24.1
		c2.4-5.3,15.9-1.9,12.2-11.4c-3.2-2.9-6.4-5.3-10.9-5c-1.6-5.3,1.3-12.7-5-15.4c-5.6-0.5-15.1-2.6-16.4,5c0,1.1-0.5,2.6,0.5,3.2
		c3.2-1.1,1.6-5.3,5-6.9c4.2,1.1,11.6-1.1,11.4,5l-0.5,4.5c-0.5,2.9,1.1-2.6-1.3-2.6c-0.5,0-0.8,0.3-1.3,0.8v1.1
		c-0.3-0.8-0.3-1.8-1.1-2.4l-6.4,4.5c-0.8-0.5-0.8-1.3-0.8-2.1c2.1,0,4.2-1.6,5-3.7c0-1.3,0.5-2.9-1.1-3.7c-4.8-0.3-3.7,7.9-9.5,6.4
		c-1.3,7.9-14,2.1-14,11.4c6.6,2.1,5.8,8.5,10.9,11.9c0.8,6.4,1.1,13.3-6.4,14c-15.1-0.5-19.1,15.9-27.5,24.1
		c-0.8,5.6-0.8,11.1,0,17.2c1.8,2.4,2.9,4.5,5.8,5c4.5-0.8,8.7-2.6,12.2-6.4c-1.6,8.2,6.6,15.1,1.8,23.6c-2.7,5.6-2.4,12.4-5,17.7
		c-6.4-6.4-12.4,4.5-18.5-1.9c-9.3,5-12.4-14-20.9-9.5c-4-2.1-9.5-4-14.6-1.3C56,197.8,93.3,125.5,161.6,87.4
		c56.1-32.3,140.6-28.6,193.3,8.7C381.4,114.2,404.4,141,417.9,168"/>
	<path class="st1" d="M420.6,95.7c1.8,6.6-2.6,10.6-5.8,15.1c-2.6,2.6-7.1,3.2-10.6,2.1c-3.7-2.9-3.2-8.7-1.3-12.2
		c2.1-3.4,4.8-8,8.7-9.5C415.8,89.9,419.2,93,420.6,95.7"/>
	<path class="st0" d="M247.7,108.4c10.1-3.4,10.9,11.1,19.9,10.1c0,5.6-9,7.1-4,14c-1.1-0.3-1.3,1.1-1.3,1.8l2.1,5
		c-1.3-0.3-1.9,0.8-2.7,1.3c1.6,9,8,17.2,14.6,23c1.3-1.8-2.1-3.2-1.8-5.3h-1.3c2.9-13-4.8-29.6,11.4-35.5c26.7-2.1,58,5.3,82.1-6.4
		c1.9,5-5.3,3.4-6.9,6.9c-7.7,4.2-11.6,12.4-19.9,14.8c-2.9,6.9-14,1.6-14,9.5c-4.2,5-12.4,2.4-13.2,10.6c-3.7,5.6-10.1,5-14.6,10.3
		c-1.1,2.1-0.5,4.8-1.3,6.9c3.2,1.3,4.8-2.6,6.4-4.5c4,10.1-5.6,17.7-9.5,27.5c-27.5-1.1-55.9-4-84,0c-6.4-5.6-5-15.1-13.2-18.5
		c-1.1-4.5,2.1-7.4,3.7-10.9l1.3,2.6c1.1-1.6,0.5-4,0.5-5.8c-1.8-3.4-7.1-0.5-6.9-5.6c-8.5-1.1-3.4-14.3-14.6-10.3
		c-4.5-0.8-1.6-6.4-5-7.7c-10.1,4-10.1-8-19.1-6.4c-5-6.9-13.3-8.7-19.1-15.1c-0.5-0.8-2.9-1.9-2.1-4c10.9-0.8,19.6,6.9,31.3,5.8
		c19.3,2.6,39.7-5.3,57.7,1.8c10.1,7.2,2.7,20.4,4,29.4c-5-9.3,5.6-25.2-9-29.9c-15.6-3.2-30.5,3.2-46.9,1.8
		c-10.6-1.8-21.7-3.7-31.3-5.8c19.3,11.6,48.2,10.1,71.2,6.4c4,0.8,9,2.4,10.9,6.4c1.1,6.9-3.2,17.7,3.7,23
		c-0.8,2.7-2.9,4.5-4.5,6.9l0.8,0.8c7.9-11.9,25.4-20.7,20.9-38.1c-3.7-1.8-8.5-4-10.3-7.7c1.1,0.3,2.1,0.8,3.2,0.5l-2.4-3.7
		l3.7-0.8c-0.5-2.6-3.4-2.6-5.6-2.4c1.1-4.5,5.6-5.8,10.1-5C244.2,107.3,245.8,111.6,247.7,108.4"/>
	<path class="st1" d="M248.4,110.2c6.6-1.6,8.2,5.8,13.2,8.2c-0.8,1.1-0.8,2.4,0.5,3.2h-3.2v1.3c-1.3,1.3-3.2-0.5-4.2-1.9l-1.3,2.4
		c-3.7-7.1-8,4-12.7-2.4c2.1-0.8,4.5-0.8,6.4-2.6l-9.5-8.7c-0.5-1.1,4.2-2.4,5.6,0C243.9,112.9,248.2,115.8,248.4,110.2"/>
	<path class="st0" d="M255.3,116.6v1.3c-2.6-1.1-6.6,0-7.7-4C249,108.7,255.6,113.2,255.3,116.6"/>
	<path class="st1" d="M355.2,123c-19.1,5.8-42.9,7.9-63,3.2c-5,1.1-10.1,4.8-12.7,9c-1.6,7.7,1.3,17.2-4.5,23.3
		c4.2-10.1-4.2-28.9,11.6-33.6C308.6,122.4,333.5,130.4,355.2,123"/>
	<polygon class="st1" points="259,129.8 256.7,128 258.5,129.3 	"/>
	<polygon class="st1" points="171.4,132.5 157.4,131.2 170.9,132 	"/>
	<path class="st1" d="M249,132l0.5,4.2L249,132z"/>
	<path class="st1" d="M253.5,135.7c-1.1,0.3-1.3-0.8-1.8-1.3l0.5-1.8C253.2,133.3,252.7,134.9,253.5,135.7"/>
	<path class="st1" d="M257.2,134.3c-1.1,0.5-2.4-0.5-1.8-1.8C257.2,131.7,256.7,133.6,257.2,134.3"/>
	<path class="st1" d="M343.8,133.8c-10.6,2.6-22.2,0.5-32.6-0.8C322.1,131.4,333.2,136.5,343.8,133.8"/>
	<path class="st1" d="M206.3,135.1c-12.2,1.8-25.4,4-38.1,3.2l-1.8-2.1C180.1,138.8,192.6,134.6,206.3,135.1"/>
	<path class="st1" d="M311.2,137.5h2.6H311.2z"/>
	<rect x="256.7" y="138.3" class="st1" width="0.5" height="3.2"/>
	<path class="st1" d="M331.6,139.4c-5.3,1.6-11.1,0.3-15.9-1.1L331.6,139.4z"/>
	<rect x="248.4" y="138.9" class="st1" width="0.5" height="2.6"/>
	<path class="st1" d="M253.5,140.7v1.8c-1.8,0-2.1-2.1-1.8-3.7C253.2,138.1,252.9,139.9,253.5,140.7"/>
	<path class="st1" d="M182.2,147.1c-0.8-0.8-1.6-1.3-1.3-2.4c10.9-1.1,21.7-3.7,32.6-2.7L182.2,147.1z"/>
	<path class="st1" d="M322.6,145.7c-7.9,2.4-15.9-2.9-24.6-2.4c5.6-1.6,11.6-0.3,17.2,1.3C317,146.3,320,145.7,322.6,145.7"/>
	<path class="st1" d="M248.4,148.9c-0.5-0.5-1.8-1.3-2.6-1.8l1.3-2.4C247.9,146,247.9,147.6,248.4,148.9"/>
	<path class="st1" d="M253.5,148.9c-1.6,0.3-4.2-1.6-3.2-3.7L253.5,148.9z"/>
	<path class="st1" d="M254.8,146.5l2.4,1.3L254.8,146.5z"/>
	<polygon class="st1" points="243.2,148.9 242.1,147.1 243.2,147.1 	"/>
	<path class="st1" d="M312,151.6c-5.8,1.3-10.3-3.2-15.9-3.7C301.9,147.3,306.4,150.8,312,151.6"/>
	<path class="st1" d="M209,148.4c-5,0.8-9.8,3.7-14.6,2.6C199.5,150.5,204.2,149.4,209,148.4"/>
	<rect x="238.9" y="151.6" class="st1" width="1.8" height="3.2"/>
	<path class="st1" d="M243.9,154.7c-2.1-1.3,1.1-2.9,1.8-3.2l0.5,3.2H243.9z"/>
	<path class="st1" d="M250.8,154.7l-0.5-3.2C250.6,152.6,252.7,153.7,250.8,154.7"/>
	<polygon class="st1" points="260.4,154.7 258.5,151.6 260.4,154.2 	"/>
	<path class="st1" d="M309.4,155.3c-5-0.3-12.2-1.6-17.7-3.7C298,151.8,302.7,156.1,309.4,155.3"/>
	<polygon class="st1" points="199.5,159.2 212.7,152.9 200,159.8 	"/>
	<path class="st1" d="M303,161.1c-6.4,0.5-12.7-2.9-18.5-6.4C290.8,156.8,297.2,157.9,303,161.1"/>
	<path class="st1" d="M198.1,155.3c-0.3,1.8-4.2,1.8-4.5,0H198.1z"/>
	<path class="st1" d="M265.4,159.2h-1.8v-1.8C264.1,158.4,265.7,157.6,265.4,159.2"/>
	<polygon class="st1" points="210.8,160.6 213.5,157.9 214.6,157.9 	"/>
	<polygon class="st1" points="292.9,166.1 283.4,161.6 289.8,163.7 	"/>
	<polygon class="st0" points="156.8,168 156.3,164.3 156.8,166.1 	"/>
	<polygon class="st0" points="158.7,168 158.7,164.8 160,168 	"/>
	<path class="st1" d="M246.3,177.5c2.1-1.3,4-4.2,3.2-7.4c2.9,2.4,1.6,6.6,2.1,10.1c-16.9-0.8-32.8,1.3-48.5,3.7
		c-1.9-2.4-5.3-4.8-3.7-8.2c1.6,2.6,2.4,6.4,5.6,7.7c2.1-3.2-2.1-7.2-3.2-10.9c-0.3-0.3,0.5,2.7,2.1,3.2c0.5-1.9,1.1-3.7,1.8-5.6
		c0,4,1.8,9.8,5.6,11.9c2.4-3.7-2.4-6.1-2.4-9.5c0.5,0,1.3,0.3,1.9-0.5v-1.3c1.3,3.4,1.8,8.2,5,11.4c2.9-2.1-1.1-6.4,1.9-8.7
		c0.5,2.9,1.1,6.9,4.5,7.4v-6.4c0.3,2.4,2.7,4.2,4.5,5.3c1.6-3.2-0.5-6.1-0.5-9c1.1,3.4,4.8,6.1,6.4,9.5l3.7-9.5
		c2.4,2.4,1.1,9,5,8.2c2.4-3.2,0.8-8,1.3-11.9L246.3,177.5z"/>
	<path class="st1" d="M356.5,169.3c-5,3.7-12.7,2.9-17.2,5.8c2.9-4.5,10.1-5.8,15.1-5.8H356.5z"/>
	<path class="st1" d="M257.2,180.2h-4.5c2.4-2.9,2.9-6.4,3.2-10.1C256.4,174.1,257.7,175.7,257.2,180.2"/>
	<path class="st1" d="M271.7,180.7c2.6-2.4,5.3-4.8,5.8-8.2c0.5,2.9-1.9,5.3,0,7.7c3.2-0.3,3.7-3.7,5-5.8c-0.5,1.1,0.8,5.6,1.3,7.1
		c2.1-2.4,5.8-5,5.8-9l1.8,7.7l2.4-3.2c0.3,1.1,2.4,2.9,0.8,4.5l0.5,0.5l5.8-5c1.6,2.4-1.6,4.5-3.2,6.4l-38.9-3.2l4-8.2
		c-0.3,1.1,0.5,5.6,1.3,8.2c3.2-1.3,1.6-5.8,3.7-8.2c1.1,0.8,0,2.9,1.3,3.7l4.5-5C273.9,174.3,268.3,177.2,271.7,180.7"/>
	<path class="st1" d="M368.4,173.3c-1.6,1.3-4.2,0-5-1.3C365.2,171.7,367.1,171.9,368.4,173.3"/>
	<path class="st1" d="M357,173.8c0.3,0.8-0.5,1.6-1.3,1.3h-1.8v-1.3H357z"/>
	<path class="st1" d="M351.2,174.3c0,0.8,0.3,1.6-0.5,2.1c-0.8-0.3-2.1,0.5-2.6-0.8C348.6,175.1,349.9,174.1,351.2,174.3"/>
	<polygon class="st1" points="359.7,175.1 360.2,174.3 362.8,175.1 	"/>
	<path class="st1" d="M379.8,175.7c-0.3,0.8-1.1,0.8-1.8,0.8v-1.3C378.7,175.1,379.5,174.9,379.8,175.7"/>
	<path class="st1" d="M346.2,177v1.3h-2.4C342.5,177.2,345.4,175.4,346.2,177"/>
	<path class="st1" d="M172.2,182c-10.3-4-27.5-5.6-37.1-3.2C147,175.1,161.3,177.2,172.2,182"/>
	<path class="st1" d="M360.7,178.8c-1.1,1.8-7.1,1.3-5,5h1.3c0.3,0.8-0.3,1.1-0.5,1.3c1.1,2.9,3.2,0,5,0c1.1,0.8,0.3,2.1,0.5,3.2
		c-3.4-0.3-3.2,2.4-4.5,4.5l4.5,0.5v1.3c-4.2,2.4-8.2-0.8-10.1-4.5c-0.8-4.2-1.8-8.2,2.4-11.4C356.8,177.2,358.3,178.3,360.7,178.8"
		/>
	<path class="st1" d="M341.7,180.2v0.5H338C339.8,181,340.1,177,341.7,180.2"/>
	<path class="st1" d="M381.1,182l-4.5-0.5l2.7-2.6C380.9,179.1,381.1,180.7,381.1,182"/>
	<path class="st1" d="M160,184.7c0.5,4.5-0.5,9-3.7,11.4c-1.1-0.3-2.1-0.8-3.2-0.5c-0.3-1.1,0.8-3.4-2.1-3.2c-1.3-0.3-2.4,0-3.2,1.1
		c0,0.8,0.5,1.1,0.8,1.3c-0.5,1.3-1.8,0.5-2.6,0.8c-0.3-3.7-5.6-3.7-3.7-8.5c0.8,1.9,6.9,3.4,7.7-1.1c-1.3-3.4-5-1.9-7.1-1.3
		C147.3,182.8,155,182.8,160,184.7"/>
	<path class="st1" d="M338.5,186.5h-4.2c-1.1-2.9,2.1-3.7,4.2-3.2V186.5z"/>
	<path class="st1" d="M463.2,185.2c1.1,1.1-2.1,2.9-3.2,4.5C456.6,186.5,457.7,182.3,463.2,185.2"/>
	<path class="st1" d="M236.3,185.2v1.3h-3.7c-1.1-2.1,1.3-0.5,1.9-1.9C234.9,184.7,235.7,184.4,236.3,185.2"/>
	<path class="st1" d="M246.3,184.7c0,0.5,0.3,0.8,0.8,1.3c-2.4,0.8-5,0.5-7.7,0.5v-1.8H246.3z"/>
	<path class="st1" d="M255.9,186H249c1.1-2.4,4.8-1.1,6.9-1.3V186z"/>
	<path class="st1" d="M266.2,186c-2.1,1.1-5,0.3-7.7,0.5c0-3.4,4.8-1.3,6.9-1.9C265.9,184.9,266.4,185.2,266.2,186"/>
	<path class="st1" d="M381.1,186.5c-2.1,1.1-5,0.5-7.7,0.5C372.9,183.1,380.9,183.9,381.1,186.5"/>
	<path class="st0" d="M159.5,187c-4-0.3-0.3,3.2-4.5,2.1l-1.3-2.1c-0.5,0.8-1.6,1.1-1.3,2.1c-1.1,0-0.3-1.9-0.5-2.7
		c1.8-1.6,5.3-1.6,7.7-0.5L159.5,187L159.5,187z"/>
	<path class="st1" d="M229.9,186c-0.8,0.3-2.1,1.6-3.7,1.1v-1.8C227.3,185.4,229.1,184.7,229.9,186"/>
	<path class="st1" d="M271.7,186c0.3,0.5-0.3,0.8-0.5,1.1c-1.3,0.3-3.2,0-2.6-1.8C269.6,185.4,271.2,184.7,271.7,186"/>
	<path class="st1" d="M278.9,186v1.1h-4.5l0.5-1.8C276,186.5,277.6,185.7,278.9,186"/>
	<path class="st1" d="M223,186.5c-0.5,0.5-1.8,1.6-3.2,1.3l-0.8-1.9C220.4,186,222,185.5,223,186.5"/>
	<path class="st1" d="M284.5,186.5v1.3h-3.2l1.3-1.9C283.1,186.8,283.9,186.5,284.5,186.5"/>
	<path class="st1" d="M215.9,187c-0.5,1.1-2.1,1.6-3.7,1.3C211.4,185.7,214.8,186.2,215.9,187"/>
	<path class="st1" d="M290.3,188.4h-3.2l0.5-1.8C289,186.5,291.1,186.8,290.3,188.4"/>
	<path class="st1" d="M209,187.8c0,1.1-1.8,0.3-2.6,0.5C206.1,187,208.5,186.8,209,187.8"/>
	<path class="st1" d="M296.1,187.8c0,0.5-0.5,0.8-0.8,1.3h-1.8l0.5-2.1C294.5,187.8,295.3,187.8,296.1,187.8"/>
	<polygon class="st1" points="348,189.2 347,187 348,188.4 	"/>
	<path class="st1" d="M388.8,200.5c0.8-6.6-9.3-4.8-14.6-5c-1.3,0.8-1.3,2.1-1.8,3.2c1.6,1.8,3.2-1.1,5-0.8
		c-1.8,2.9-6.1,1.3-7.1,4.5c0.3-4.2,2.1-7.7,3.2-11.4c0,5.6,6.9,2.1,10.3,3.2c2.9-1.3-0.5-3.2,0.5-5L388.8,200.5z"/>
	<path class="st1" d="M232.6,193.4c-0.3,1.3-2.1,0.5-3.2,0.8l-2.1-3.2l2.7-1.3L232.6,193.4z"/>
	<path class="st1" d="M271.7,192.3c0.5-2.4,4-1.1,5.8-1.3c0.3,1.1-0.5,2.4,0.5,3.2c0.8,0,1.6,0,2.1-0.8v-1.8h3.2
		c0,1.1-1.6,1.8,0,2.6c2.4,0,2.7-2.9,5.6-1.8l-0.5,2.4c-17.2-0.3-37.1-1.8-54-1.3v-3.7l36.3,0.5L271.7,192.3z"/>
	<path class="st1" d="M226.2,193.4c0,1.1-1.1,1.6-2.1,1.3c-2.6,1.1-3.2-2.1-3.7-3.7C222.8,189.4,225.4,191,226.2,193.4"/>
	<path class="st1" d="M381.1,191c-0.3,1.1-2.4,0.3-3.7,0.5C377.9,190,380.1,190,381.1,191"/>
	<path class="st1" d="M219.1,194.7c-1.1,0.5-1.8,0.8-3.2,0.8c-0.3-1.6-3.7-4-0.5-4.5C218.8,189.7,217.2,193.7,219.1,194.7"/>
	<path class="st1" d="M212.7,194.7c0.3,1.3-1.6,0.5-2.4,0.8c0.5-1.6-2.9-3.7,0-4L212.7,194.7z"/>
	<polygon class="st1" points="291.6,195.5 292.9,192.3 292.1,195.5 	"/>
	<path class="st1" d="M355.2,200.5c-3.7,1.8-8.2-2.9-9.5-6.4l0.5-1.9C349.9,192.9,352,198.4,355.2,200.5"/>
	<path class="st1" d="M325.2,198.7l4.5-5.8C329.2,193.9,328.7,198.7,325.2,198.7"/>
	<path class="st1" d="M331.6,198.7c-1.6-1.3,0.5-3.4,0.5-5.3C332.1,193.9,332.7,197.4,331.6,198.7"/>
	<path class="st1" d="M353.3,203.7v2.4c-2.4-2.6-7.7-4.2-8.5-8.2C347.5,200.5,349.9,203.2,353.3,203.7"/>
	<path class="st1" d="M149.1,198.7l4.5,0.5L149.1,198.7z"/>
	<path class="st1" d="M347,207.4c0.8,0.5-4.2-4.2-5.8,0c-4.8,5,4,1.6,5,4.5c-0.3,0.5-1.6,1.1-1.3,1.8l1.3,1.3
		c-1.6,0-5.6-0.3-7.7,2.6c3.4-0.3,7.9,2.9,9,1.9c-0.5,0.5-1.6,1.1-1.3,1.8l1.3,1.3c-3.4-1.1-1.9,2.4-3.7,3.7c2.4,2.4,4-1.1,6.9,1.3
		h-1.9l0.5,3.2h-0.5l0.5,4.5c9.3-2.1,16.4-12.5,23-19.1c2.7-0.5,2.1,2.6,4.2,3.7c-1.9-0.5-2.7,0.3-3.2-2.4c-4.2,2.1,0.8,5.8-1.9,8.7
		l-2.4-4.5c-3.4,2.4-1.6,4.5-2.6,7.7l-0.5-3.7c-3.4-1.3-2.1,2.7-3.2,3.7c1.1,1.8,0.3,4.2,0.5,6.4h-1.8c1.1-2.6-1.8-2.9-2.6-4.5
		c-2.9,2.7,0.3,5.3-1.3,8.5c-0.5-1.1-0.8-5-3.7-4l-0.5,5.8l-3.2-2.6c-1.3,1.6-1.3,2.9,0,4.5c-0.8-0.3-1.1,0.3-1.3,0.5v1.3
		c-5.6-8-6.4-18.5-12.2-26c-2.1,5.6,4.2,9.3,1.9,15.9l2.1,1.8c-2.4,2.4,0.3,6.9,0.5,9c-2.1-0.3,0,3.4-0.5,5
		c-0.3,0.8,0.8,1.3,1.1,1.9l-1.8,1.8l1.8,2.7c-0.8-0.3-1.1,0.8-1.8,1.3c0.5,0.8,1.3,0.5,1.8,0.5l-1.1,1.7l0.5,0.5
		c-1.3,0-2.9,2.7-1.3,4c-3.4,0.3,1.6,4-1.9,3.7c0.8,3.2-1.3,6.4-0.5,8.2l-0.8-0.5l-1.8,3.2c1.1,2.4,3.7,0.8,5.8,1.3h-7.7
		c-0.8-7.9,4.5-13.2,3.7-21.2c-0.3-2.1,4-5,0.8-7.4c2.7-5,0.3-13-2.1-17.2l1.3-1.9c-1.8-11.1-5.6-26,5.8-33.1
		C343.2,203.2,345.4,205.1,347,207.4"/>
	<path class="st1" d="M383,205c0,4.5-1.8,8.2-5,11.4c-6.4-1.6-5.8-8.7-5-13.5l1.8,2.1c1.1-1.3,2.9-5.6,5-3.2
		C381.1,201.6,382.4,203.7,383,205"/>
	<path class="st1" d="M357.6,207.4c-0.5,0.5-0.8,1.6-1.8,1.3l1.3-4.5C358.1,204.5,357.6,206.4,357.6,207.4"/>
	<path class="st0" d="M368.4,206.9v1.8c-2.1,0.3-4.5-0.8-4.5-3.2C365.8,205.3,367.1,206.1,368.4,206.9"/>
	<path class="st1" d="M160.5,210.6l2.6-2.4c2.7,5.6-9,8.2-5.8,13.2l9-10.1c2.1-0.8-2.1,1.6-1.3,3.2l4.5-1.3
		c-1.1,0.5-0.5,1.6-0.5,2.4c1.9,0.8,3.4-0.8,5.6,0.8c1.1,2.9,3.4,6.9,1.3,9.5c1.3,1.1,1.8,2.1,1.8,3.7h-0.5c3.2,1.8-1.6,6.1,1.3,7.7
		c-3.4,2.9-8.7,5.8-10.9-0.5c-1.3-4,0.3-10.1-1.8-12.7c-1.3,11.9-0.8,21.4-2.7,32.8c-0.5,0-0.8,0.5-1.3,0.8
		c-2.9-9.8-4.2-20.4-6.4-30.5c5.3-3.7-1.6-7.2-0.5-11.6c-1.6-1.1-2.4-2.4-1.9-4.2c0.5,0.5,0,2.1,1.9,3.2c1.6-0.8,3.2-2.4,3.7-4
		l-1.3-1.3l2.6-3.2C160.8,206.6,158.1,209.8,160.5,210.6"/>
	<path class="st1" d="M145.4,214.6c-4.2,5.6-9,10.1-15.4,12.7c-1.3-2.1,2.9-5.3-1.3-5.3c-0.8-1.3,2.1-2.1,0-3.2
		c-3.7-0.5,0,5.3-4.2,4.5c0,1.3,1.8,2.1,1.1,4c-4,2.6-6.4-2.4-10.1-2.7c4.8-4.8,7.7-16.4,17.2-14.6c0,4.5,1.9,9.5,5.6,11.4
		c0.8-4-4.8-7.7-1.9-12.7c1.1,1.3-0.3,4.2,1.9,4.5c1.3-0.8,1.6-1.8,1.3-3.2c1.3,2.1,1.6,5,3.2,6.4c4-2.4-0.5-6.1,0-9.5
		C146.8,209.5,144.9,210.3,145.4,214.6"/>
	<path class="st1" d="M357.6,215.6c-1.1-0.5-3.2-3.7-0.5-4.2h1.9L357.6,215.6z"/>
	<path class="st1" d="M150.5,215.6h-1.3v-3.7C150.7,212.7,150.5,214.3,150.5,215.6"/>
	<path class="st1" d="M317,223.3c0.8,10.6,0.8,22.5,0,33.1c-14.8,6.1-36.5-5.6-45.8,10.1c0.3,0.3-2.6-0.3-3.2,1.3v1.9
		c-5.6-1.3-7.1,2.6-11.4,4.5l0.5,0.8c-2.9,1.6-6.1-1.3-7.7,2.4c-4-2.6-8.7-7.4-8.2-13.2l-1.3-1.3c-6.4,8.7-10.9,19.3-18.3,28.1
		c-1.8,0.8-2.6-2.1-4,0c3.2,3.7,9,5,11.6,10.1c-0.5,0.5-1.6,1.1-1.3,1.9c5.6,3.2,11.9-0.5,18.3,0.8c4.8,10.3,19.1,1.1,28.6,5
		c2.1,0.3,3.4-0.5,4.5-1.8c-1.1-2.4-3.4,0-5.6-0.8c0.3-0.8-1.1-1.3-1.3-1.8l9.5-1.3c-3.7-1.6,1.3-6.4-0.8-9.5
		c2.1-0.5,5.6,1.3,5.8-1.8c0.3-2.9-3.2-1.8-4.5-3.7c-3.4,1.3-3.2,10.6-9.5,6.4c-1.3-2.9-2.9-5.6-4.5-8.5c2.1-0.3,4.8,1.1,5.8-1.1
		c-1.1-3.2-7.7-3.4-6.9-7.7c8.7,0.8,22.2,7.1,30.5-0.8c0.8,3.2,5.6,2.1,8.2,4l6.9,1.3c2.1,6.9-6.9,0.5-9.5,4.2l8.5,2.1
		c-1.6,2.1-5.3,1.9-8.5,1.9c-1.6-2.9,1.6-9.5-4.2-9c-3.7,2.6-1.3,7.7-2.1,11.4c-3.7,2.6-4.8,7.1-6.9,10.9c2.4,2.9,8.2-0.8,9.5,3.2
		c2.1,1.3,5,0.5,7.7,0.8c-7.4,21.7-7.9,51.9-34.4,60.4c-0.3-9.8-11.4-2.4-18.3-6.4c-0.8,0.3-0.8,1.1-0.8,1.8
		c4.5,2.9,10.6,2.1,15.9,3.2v1.3c-7.9,0.5-16.7-0.8-24.1-3.2v-2.1c1.1,0,2.4,0.5,3.2-0.5c0.3-0.8-0.8-1.3-1.3-1.8
		c1.9,0.5,2.9,2.4,4.5,3.7c1.3-10.3,2.7-20.7,3.7-31c-6.9,4.8-15.9,13-25.4,16.4c-0.8,1.3,0.8,4.2,3.2,3.2h2.1l-0.8,4.5
		c-6.6-1.3-13.5-2.7-20.4-4c5.8,1.3,10.1-2.1,14-3.7c-6.1-3.4-16.9,7.4-16.4-3.7c3.7,1.6,7.7-0.3,11.4-1.3l3.2-4
		c-2.1-1.8-5.3,0.3-7.7,1.3c-0.3,4.2-4.8,1.1-8.2,1.8c-2.6-7.4-6.9-14.6-8.2-22.8c3.4,1.3,10.1,0.5,13.3-0.5
		c0.5-1.3-0.5-1.9-1.3-2.7c-4.5,1.3-9.3,0-12.7,1.3c-0.3-1.6-1.6-2.7-1.1-4.5c5.8-3.2,9.8,0.3,16.4,1.3c1.1-1.6,3.7,0.5,4.5-1.9
		c-1.8-4.2-5-0.5-7.7-0.8c-1.8-6.1-9.3-5-14-5.6c2.1-0.5,9,1.1,12.2-1.3c-2.1-4.5-2.1-11.1-8.2-12.2c-1.1-3.4,0-9-5.8-9.5
		c0.5,0.3,0.8-0.3,1.3-0.5c-0.3-0.8,0.5-2.1-0.8-2.6c-4-1.3-1.6,4.5-5,4c-3.2-19.9-4.5-42.9-1.3-63
		C232.8,215.4,277.8,213.3,317,223.3"/>
	<path class="st1" d="M153.1,218.3c-0.5,3.4,1.1,9.3-4,9h-5.5L115,250.6c-4,1.3-5.3-1.8-6.4-4.2l0.5-5.3
		c11.9-8.5,27.5-10.9,36.8-23.3L153.1,218.3z"/>
	<path class="st1" d="M362.1,222.8l-1.8,1.8c-2.9-1.3-0.3-4.8,0.5-6.9C362.1,219.1,362.3,220.7,362.1,222.8"/>
	<path class="st0" d="M231.8,219.6h14.6H231.8z"/>
	<path class="st2" d="M231.8,219.6h14.6H231.8z"/>
	<path class="st0" d="M259,219.6h16.7H259z"/>
	<path class="st2" d="M259,219.6h16.7H259z"/>
	<path class="st0" d="M205.8,224.6h14.6H205.8z"/>
	<path class="st2" d="M205.8,224.6h14.6H205.8z"/>
	<path class="st0" d="M233.1,224.6h13.2H233.1z"/>
	<path class="st2" d="M233.1,224.6h13.2H233.1z"/>
	<path class="st0" d="M259,224.6h15.9H259z"/>
	<path class="st2" d="M259,224.6h15.9H259z"/>
	<path class="st0" d="M287.6,225.2h16.7H287.6z"/>
	<path class="st2" d="M287.6,225.2h16.7H287.6z"/>
	<path class="st1" d="M120.5,231c0,0.8-4-0.5-1.8,1.8c-4.2-0.5-6.1,6.6-10.1,1.3l4.2-0.5c-0.3-2.1-4-5.6,0-6.4
		C116,227,118.7,228.4,120.5,231"/>
	<path class="st0" d="M194.4,229.7h1.8H194.4z"/>
	<path class="st2" d="M194.4,229.7h1.8H194.4z"/>
	<path class="st0" d="M207.7,229.7h14.6H207.7z"/>
	<path class="st2" d="M207.7,229.7h14.6H207.7z"/>
	<path class="st0" d="M234.4,229.7h12.7H234.4z"/>
	<path class="st2" d="M234.4,229.7h12.7H234.4z"/>
	<path class="st1" d="M163.7,285.6l-1.8,2.1c-4-18.8-7.7-38.9-8.7-57.2C156.6,248.2,161.1,266.7,163.7,285.6"/>
	<path class="st0" d="M259,230.5h14.8H259z"/>
	<path class="st2" d="M259,230.5h14.8H259z"/>
	<path class="st0" d="M285.8,230.5h16.7H285.8z"/>
	<path class="st2" d="M285.8,230.5h16.7H285.8z"/>
	<path class="st1" d="M147.3,241.1c1.1-1.8,0.5-6.4,0.5-9.5l5.8,25.4c-6.6-0.3-11.9-1.1-17.7-1.9c-1.8,0-1.1,1.6-2.6,1.9
		c-1.9,1.3-2.1-2.9-3.7-0.5c-3.2-2.1-2.4-8.5-0.8-11.4c0.5-0.5,1.1-0.8,0.8-1.3c0.8,1.6,0.8,4.8,2.4,6.4c2.6-2.7,0.5-7.2,2.1-10.1
		c2.1,1.1,0.5,6.1,3.7,6.4c2.4-4-2.1-6.1,1.3-9.5c1.1,1.3,0.3,5,3.2,5.6c1.9-3.4-1.3-8.7,2.4-11.4
		C144.6,234.7,144.6,239.2,147.3,241.1"/>
	<path class="st0" d="M193.6,235.5h5H193.6z"/>
	<path class="st2" d="M193.6,235.5h5H193.6z"/>
	<path class="st0" d="M209.5,235.5h14.6H209.5z"/>
	<path class="st2" d="M209.5,235.5h14.6H209.5z"/>
	<path class="st0" d="M234.9,235.5h12.2H234.9z"/>
	<path class="st2" d="M234.9,235.5h12.2H234.9z"/>
	<path class="st0" d="M258.5,235.5h14H258.5z"/>
	<path class="st2" d="M258.5,235.5h14H258.5z"/>
	<path class="st0" d="M284.5,235.5h14.8H284.5z"/>
	<path class="st2" d="M284.5,235.5h14.8H284.5z"/>
	<path class="st0" d="M309.9,235.5h4.5H309.9z"/>
	<path class="st2" d="M309.9,235.5h4.5H309.9z"/>
	<path class="st1" d="M181.7,240.5c-0.3,3.2-5.3,1.8-5.3,5.8h5.8c-4,2.1-9,6.4-14.6,3.7c0-1.3,1.8-2.4,1.3-4.5
		c-0.8-2.9,8.7-1.9,11.9-5.6L181.7,240.5z"/>
	<path class="st0" d="M193.6,240.5h7.7H193.6z"/>
	<path class="st2" d="M193.6,240.5h7.7H193.6z"/>
	<path class="st0" d="M212.2,240.5h13.2H212.2z"/>
	<path class="st2" d="M212.2,240.5h13.2H212.2z"/>
	<path class="st0" d="M236.3,240.5h11.4H236.3z"/>
	<path class="st2" d="M236.3,240.5h11.4H236.3z"/>
	<path class="st0" d="M258.5,240.5h12.7H258.5z"/>
	<path class="st2" d="M258.5,240.5h12.7H258.5z"/>
	<path class="st0" d="M282.6,240.5h14H282.6z"/>
	<path class="st2" d="M282.6,240.5h14H282.6z"/>
	<path class="st0" d="M307.5,240.5h6.9H307.5z"/>
	<path class="st2" d="M307.5,240.5h6.9H307.5z"/>
	<polygon class="st1" points="362.8,253.2 363.9,242.4 363.9,253.2 	"/>
	<path class="st0" d="M193.6,245.6h10.3H193.6z"/>
	<path class="st2" d="M193.6,245.6h10.3H193.6z"/>
	<path class="st0" d="M214,245.6h12.7H214z"/>
	<path class="st2" d="M214,245.6h12.7H214z"/>
	<path class="st0" d="M236.8,246.4h10.8H236.8z"/>
	<path class="st2" d="M236.8,246.4h10.8H236.8z"/>
	<path class="st0" d="M258,246.4h11.9H258z"/>
	<path class="st2" d="M258,246.4h11.9H258z"/>
	<path class="st0" d="M280.8,246.4H294H280.8z"/>
	<path class="st2" d="M280.8,246.4H294H280.8z"/>
	<path class="st0" d="M304.9,246.4h9.5H304.9z"/>
	<path class="st2" d="M304.9,246.4h9.5H304.9z"/>
	<path class="st1" d="M354.4,263.3c-2.4-2.1,2.9-2.9,0-5h-1.1v-1.9l1.1,1.3c1.3-0.8,0.5-2.7,0.8-4l-1.3-1.1l-3.2,3.2
		c-0.8-4.5,3.7-2.9,5.8-5.3L354.4,263.3z"/>
	<path class="st0" d="M194.4,251.4h12.7H194.4z"/>
	<path class="st2" d="M194.4,251.4h12.7H194.4z"/>
	<path class="st0" d="M216.7,251.4h11.9H216.7z"/>
	<path class="st2" d="M216.7,251.4h11.9H216.7z"/>
	<path class="st0" d="M238.1,251.4h9.5H238.1z"/>
	<path class="st2" d="M238.1,251.4h9.5H238.1z"/>
	<path class="st0" d="M257.2,251.4h12.2H257.2z"/>
	<path class="st2" d="M257.2,251.4h12.2H257.2z"/>
	<path class="st0" d="M279.4,251.4h12.2H279.4z"/>
	<path class="st2" d="M279.4,251.4h12.2H279.4z"/>
	<path class="st0" d="M301.7,251.4h10.9H301.7z"/>
	<path class="st2" d="M301.7,251.4h10.9H301.7z"/>
	<path class="st1" d="M178.5,257l-2.6,2.6c0.3,0.8,1.1,0.5,1.8,0.5c-1.1,1.6-0.3,5-3.2,4.5c2.1,0.5,1.3,4,0,5l-3.2,23
		c-2.1,1.3-4,3.2-6.9,2.4c-8-4.8,6.6-7.7,2.4-13.3c10.1-6.9-4-25.4,9.5-28.1C175.4,254.3,176.7,257.2,178.5,257"/>
	<path class="st1" d="M167.7,276.8c-1.3-6.4-4.8-14.3-0.8-20.4C167.1,263.3,169.3,269.9,167.7,276.8"/>
	<path class="st0" d="M197.6,256.4h11.9H197.6z"/>
	<path class="st2" d="M197.6,256.4h11.9H197.6z"/>
	<path class="st0" d="M218.5,256.4h11.4H218.5z"/>
	<path class="st2" d="M218.5,256.4h11.4H218.5z"/>
	<path class="st0" d="M238.9,256.4h9.5H238.9z"/>
	<path class="st2" d="M238.9,256.4h9.5H238.9z"/>
	<path class="st0" d="M257.2,256.4h11.4H257.2z"/>
	<path class="st2" d="M257.2,256.4h11.4H257.2z"/>
	<path class="st0" d="M278.1,256.4h3.2H278.1z"/>
	<path class="st2" d="M278.1,256.4h3.2H278.1z"/>
	<path class="st1" d="M363.4,257.7c0.3,0.8-0.8,1.3-1.3,1.8v-1.8H363.4z"/>
	<rect x="350.1" y="259.1" class="st1" width="0.5" height="2.4"/>
	<path class="st1" d="M137.2,262.3h-7.1c-0.8-4.8,4.8-1.8,7.1-2.6V262.3z"/>
	<path class="st1" d="M144.6,260.9v1.8h-4.2v-3.2C141.7,260.1,144.6,258.5,144.6,260.9"/>
	<path class="st1" d="M315.7,260.1l-9,0.8c2.7-1.1,5.8-1.6,9-1.3V260.1z"/>
	<path class="st1" d="M154.2,262.8l-6.4-0.5c0-3.4,4.8-1.8,6.4-1.3V262.8z"/>
	<path class="st1" d="M294,262.3c-2.9,1.1-5.6,0.3-9.5,0.5C286.3,258.8,290.8,262.3,294,262.3"/>
	<path class="st0" d="M200.8,261.5h11.9H200.8z"/>
	<path class="st2" d="M200.8,261.5h11.9H200.8z"/>
	<path class="st0" d="M220.4,261.5h11.4H220.4z"/>
	<path class="st2" d="M220.4,261.5h11.4H220.4z"/>
	<path class="st0" d="M244.5,261.5h4H244.5z"/>
	<path class="st2" d="M244.5,261.5h4H244.5z"/>
	<path class="st0" d="M256.7,261.5h10.9H256.7z"/>
	<path class="st2" d="M256.7,261.5h10.9H256.7z"/>
	<polygon class="st1" points="359.7,273.6 362.1,262.8 360.7,273.6 	"/>
	<path class="st1" d="M315.2,264.6v1.3c-3.2-1.3-6.6,2.9-7.7-1.9C309.6,263.3,313.3,262.5,315.2,264.6"/>
	<path class="st1" d="M301.7,266c-3.2-1.3-4.5,2.4-7.7,1.3C296.6,264.6,298.5,264.4,301.7,266"/>
	<path class="st0" d="M205,267.3h10.3H205z"/>
	<path class="st2" d="M205,267.3h10.3H205z"/>
	<path class="st0" d="M223,267.8h8.2H223z"/>
	<path class="st2" d="M223,267.8h8.2H223z"/>
	<path class="st0" d="M255.9,267.8h5.3H255.9z"/>
	<path class="st2" d="M255.9,267.8h5.3H255.9z"/>
	<path class="st1" d="M133.3,275c-2.1,2.4,2.4,4,2.6,5.6l-2.6,1.3c-1.3,0,0.3-2.9-1.8-2.7c-2.4,1.1-0.5,3.2-0.5,4.5
		c2.9,2.4,4.5,5.3,3.7,9c-1.6-0.8-2.1-3.4-4.5-4c-0.3-0.5,0.3-0.8,0.8-1.1c-0.5-0.8-1.3-0.8-2.1-0.8c-2.1,4.5,4.8,7.4,4,12.2
		l-5.8-5.8c-2.7,5,5,6.1,4.5,10.9c-0.5-0.3-0.8,0.3-1.3,0.5c-0.8-1.6-2.1-4-4.5-5c-2.4,4.2,4.2,7.2,2.6,9.5
		c-2.6-1.3-4.2-1.6-6.9-0.5c1.6-11.1,2.4-20.1,5.6-30.5c2.4-3.2,0.8-6.4,4-9.5C132.7,268.9,129.5,275,133.3,275"/>
	<path class="st1" d="M238.1,275.5h-1.8l1.8-4.5C238.1,272.6,239.7,274.2,238.1,275.5"/>
	<path class="st1" d="M243.9,275c-0.5,1.1-1.8,0.3-2.6,0.5v-3.7L243.9,275z"/>
	<path class="st0" d="M195,272.8h4.5H195z"/>
	<path class="st2" d="M195,272.8h4.5H195z"/>
	<path class="st0" d="M209,272.8h9.5H209z"/>
	<path class="st2" d="M209,272.8h9.5H209z"/>
	<path class="st0" d="M225.4,272.8h2.6H225.4z"/>
	<path class="st2" d="M225.4,272.8h2.6H225.4z"/>
	<path class="st1" d="M348,275l-0.5,0.5v-2.7C348.3,273.4,348,274.2,348,275"/>
	<path class="st1" d="M360.2,280.5c-4.2-1.1,1.1-2.6-0.5-5.6h1.1L360.2,280.5z"/>
	<path class="st1" d="M264.3,277.3c0.8,4.2-11.6,4.8-4,8.2h1.8c0.3,1.1-0.8,2.1-1.8,2.1h-6.9C251.6,280.5,260.6,280.8,264.3,277.3"
		/>
	<path class="st1" d="M71.5,278.1c1.3,2.6-2.1,2.4-3.2,3.7C66,279.5,70.2,278.7,71.5,278.1"/>
	<path class="st1" d="M236.3,278.1c2.4,4-10.3,11.9,0.5,11.9c-1.1,5-6.9,5-11.4,4l-1.3-1.3C227.5,287.4,229.6,279.7,236.3,278.1"/>
	<path class="st1" d="M248.4,278.1c-3.4,1.1-1.6,4.5-2.1,6.9c-1.8-1.3-3.7-4.8-3.7-6.9H248.4z"/>
	<path class="st1" d="M87.4,283.2c-1.1,0.3-2.4-0.5-3.2,0.5c-1.9-0.5-1.9-3.7,0-4.5C84.8,280.8,88.2,280.5,87.4,283.2"/>
	<path class="st0" d="M200.8,279.2h3.2H200.8z"/>
	<path class="st2" d="M200.8,279.2h3.2H200.8z"/>
	<path class="st0" d="M212.2,279.2h9.5H212.2z"/>
	<path class="st2" d="M212.2,279.2h9.5H212.2z"/>
	<path class="st1" d="M238.9,285l-1.3,1.3c-0.5-0.8-1.3-0.5-1.8-0.8l2.4-4.2C239.4,282.1,238.7,283.7,238.9,285"/>
	<polygon class="st1" points="241.3,286.3 241.3,281.3 243.9,286.3 	"/>
	<path class="st1" d="M77.9,283.7h-6.3C73.4,282.9,76.3,282.9,77.9,283.7"/>
	<path class="st1" d="M352,295.1c-0.3,1.3,0.5,3.2-0.8,4l-8.2-8.2l-0.5,0.5c0.8,6.1,11.6,9.8,6.9,16.4c-1.9-2.1-4.2-6.1-6.9-8.2
		c-1.1,5.8,8.7,10.3,4.5,16.7c-2.4-1.6-2.9-4.2-4.5-5.3c-2.4,5.3,7.4,7.9,3.2,14l-4.5-4.5c-0.8,4.2,5.6,8,3.2,12.7
		c-2.1-0.8-1.8-4-4.5-3.7c-0.8,3.7,5,6.1,4,10.9l-4-4.5c-2.1,4,5,8,2.7,12.7l-4.5-4.5c-2.9,4.8,6.6,7.7,5,13.5l-6.4-4
		c-0.8,2.6,3.7,5,5,7.1v1.1H333c-1.8-17.7,2.9-32.8,4.5-49.5l-4.5-25.9C341.1,280.5,348.8,287.7,352,295.1"/>
	<path class="st1" d="M150.5,311H150c-0.5-6.9-1.8-17.7-1.3-26C150.2,292.7,153.6,302.5,150.5,311"/>
	<path class="st0" d="M205,285h4H205z"/>
	<path class="st2" d="M205,285h4H205z"/>
	<path class="st0" d="M216.7,285h5.6H216.7z"/>
	<path class="st2" d="M216.7,285h5.6H216.7z"/>
	<path class="st0" d="M282.6,285h7.1H282.6z"/>
	<path class="st2" d="M282.6,285h7.1H282.6z"/>
	<path class="st1" d="M351.2,286.3v1.3l-3.2-2.7C349.3,284.8,350.4,285.3,351.2,286.3"/>
	<path class="st1" d="M80.6,286.3v1.8c-3.4,0.5-9.3,2.1-11.4-1.3C72.6,284.5,75.8,287.1,80.6,286.3"/>
	<path class="st1" d="M93.3,287.7c-0.8,1.1-1.8,1.3-3.2,1.1l-2.7-3.2C89.8,285.3,91.7,286.1,93.3,287.7"/>
	<path class="st1" d="M200.8,290.1c-0.5,1.1-1.1,2.1-0.8,3.2c-4.5,1.3-5.8-2.6-5-6.4C197.3,286.6,200.5,287.1,200.8,290.1"/>
	<path class="st1" d="M267.5,287.7l3.2,6.4L267.5,287.7z"/>
	<path class="st1" d="M359.7,288.2l3.2,3.2L359.7,288.2z"/>
	<path class="st1" d="M115.5,294c-2.1,1.1-5,0.3-7.7,0.5c1.3-2.1,2.4-6.1,5.8-5.8h1.3L115.5,294z"/>
	<path class="st1" d="M102.8,291.4v2.6H97C97.5,291.4,101.2,286.9,102.8,291.4"/>
	<polygon class="st1" points="245.8,293.2 243.2,289.5 245.8,289.5 	"/>
	<path class="st1" d="M89.6,295.1c-6.1-4.5-11.4,0.3-18.5-1.1v-3.1C77.6,291.4,87.7,289,89.6,295.1"/>
	<path class="st0" d="M214,291.4c-1.6,0.8-5.3,1.6-5.8-0.5C210.3,290.8,212.4,290.3,214,291.4"/>
	<path class="st1" d="M264.9,291.9c-1.6,2.1-4,0.8-4.5-1.1C262.2,290.3,263.5,291.4,264.9,291.9"/>
	<polygon class="st1" points="241.3,294 241.3,291.4 243.1,294 	"/>
	<path class="st1" d="M258,291.9v2.1h-3.2C255.1,293,256.7,290.1,258,291.9"/>
	<path class="st1" d="M144.6,311c-0.3-1.3-1.6-4.2-3.7-5l4.5-13.3L144.6,311z"/>
	<path class="st1" d="M307.5,292.7c-1.8,1.6-8.7,1.3-5,5c-2.1,0.3-4.8-0.5-6.4,0.5c-0.5,1.3,0.5,2.7,1.9,2.1h2.4
		c-1.3,1.1-3.7,0.3-5.6,0.5c0.8-3.4,2.9-6.1,5.6-7.7C303.3,294,304.6,291.9,307.5,292.7"/>
	<path class="st1" d="M331.6,296.4v0.8l-9,0.5v-4.5C325.8,294.3,332.1,290.6,331.6,296.4"/>
	<path class="st1" d="M268,296.4c-0.3-0.8-2.6,1.8-3.7,0l1.9-1.8L268,296.4z"/>
	<path class="st1" d="M85.1,299.6h-9.5C77.4,295.9,85.8,294.3,85.1,299.6"/>
	<polygon class="st1" points="72.9,297.7 71.5,296.4 74.2,296.4 	"/>
	<path class="st1" d="M97.8,296.4c-1.6,1.3-3.2,4-5.8,4C93.3,298.8,94.6,295.1,97.8,296.4"/>
	<path class="st1" d="M116,298.3l-1.1,7.7c-9-0.3-18.3,0.5-26.7-0.5c7.1-6.4,19.6-1.1,27.3-4.5l-14-1.3c2.6-5.8,9-2.1,13.5-3.2
		L116,298.3z"/>
	<path class="st1" d="M256.7,297.7l-2.6,2.6l-0.5-4C254.8,295.9,255.6,297.2,256.7,297.7"/>
	<path class="st1" d="M366,304.1c-1.3-2.6-5.6-4-4-7.7C365.8,296.9,365,302.2,366,304.1"/>
	<path class="st0" d="M224.9,298.3c-2.6,1.1-9.3,1.1-13.5,0C215.6,297.5,220.6,297.5,224.9,298.3"/>
	<path class="st0" d="M290.8,299.1c-2.4,0.8-6.4,0.8-8.7,0c1.6-2.1,6.4-1.3,8.7-0.8V299.1z"/>
	<path class="st1" d="M309.4,298.3v1.3h-3.8C305.9,298.3,308,296.9,309.4,298.3"/>
	<path class="st1" d="M386.2,301.4h-5c-1.8-4,3.2-2.9,5-3.2V301.4z"/>
	<path class="st1" d="M394.6,301.4h-5.8c-1.3-2.9,3.2-3.4,5.8-3.2V301.4z"/>
	<path class="st1" d="M406.5,300.4c-0.3,2.6-3.2,1.6-5,1.8l-1.3-1.3C400.5,297.2,405.2,298.8,406.5,300.4"/>
	<path class="st1" d="M332.1,300.4v1.1c-1.8,0-5.6,0.3-6.9,2.1c2.7-0.8,7.9,0.5,8.2,3.7c-1.9,1.3-5.8-0.5-6.9,1.8
		c1.6,2.1,8.2-1.6,8.2,3.2c-0.8,1.6-4.2-0.5-5,1.8l4.5,2.1c-0.5,0.8-1.1,1.8-0.8,3.2c-3.4,1.3-4.8-2.4-6.9-4c-3.2,0.3,5.3,0,0.5-2.4
		c-2.4,1.1-6.1,0.5-6.9-2.1l-0.8-0.5c-0.5-1.6,4.2,0.5,5.3-1.8c-0.8-3.2-6.9,1.1-4.5-4c1.6-0.3,3.4,0.8,4.5-1.1
		c-1.8-1.8-4.8-1.6-2.6-4.5C325,300.4,329.2,298.8,332.1,300.4"/>
	<path class="st1" d="M167.7,305.4c-3.7,0.8-3.2-3.4-3.2-5.8C166.6,301.2,166.9,303.3,167.7,305.4"/>
	<path class="st1" d="M474.1,306.7c-1.6,1.3-5.3,2.6-7.7,1.1c-3.4-1.1-1.9-5-0.8-6.9C468.5,302.8,476.5,302,474.1,306.7"/>
	<polygon class="st1" points="304.9,302.8 304.9,301.4 308,302.8 	"/>
	<path class="st1" d="M81.9,302.2c0,3.4-4.5,1.1-5.8,3.7l-2.4-3.7H81.9z"/>
	<path class="st1" d="M367.9,316.3c-2.1-0.8-1.3-4-4-3.2c-1.1,3.4,4.8,5.6,2.6,10.1l-3.7-4.5c-3.2,4,4.8,7.2,2.4,11.4l-4.5-5
		c-2.1,4.2,5.6,8.5,3.2,13.5c-1.1-1.8-2.1-4.2-3.7-5.3c-0.8,4,4,7.7,3.2,11.6c-3.2,0.3-1.1-5.6-4.5-2.6l4,7.7
		c-0.5-0.5-1.9-1.3-2.7-1.8c-4,2.6,2.9,5.6,1.9,7.4c-2.4,1.3-5.6,0.5-8.2,0.8c3.2-14.8-2.1-33.9,6.9-45.8l2.1-0.5l-0.8-3.2
		c0.5,0.3,0.8,0.8,1.3,0.5c0.8-1.1-0.8-2.6-1.3-3.7c-0.5-0.3-0.8,0.3-1.3,0.5l0.8-1.3C365,306.7,368.4,310.7,367.9,316.3"/>
	<path class="st1" d="M386.2,304.1c-1.1,0.8-0.3,2.1-0.5,3.2c-1.8-0.5-4.5,1.1-5.8-1.3l3.2-2.4C383.8,304.6,385.1,303.8,386.2,304.1
		"/>
	<path class="st0" d="M288.4,305.4l-9,0.5c2.1-1.3,6.1-2.7,9-1.3V305.4z"/>
	<path class="st1" d="M395.2,307.3c-2.4,1.6-5,0-6.9-1.3c0.5-3.4,4.5-1.3,6.9-1.8V307.3z"/>
	<polygon class="st1" points="401.5,306.7 401.5,304.1 404.2,304.1 	"/>
	<path class="st1" d="M404.7,313.1c-1.1-1.6-0.5-4-0.5-5.8l5-3.2l1.3,8.2L404.7,313.1z"/>
	<path class="st0" d="M225.4,306.7h-10.8C216.9,304.6,222.8,304.6,225.4,306.7"/>
	<path class="st0" d="M247.7,307.8c-0.8,2.6-2.9,0.5-4.5,0.8c-2.1,2.4-7.4,0-7.4,4.5h-11.6c2.9-1.6,6.4-1.1,9.5-2.1v-2.4
		c2.4-0.5,3.4,1.3,5.3-0.8l-5.8-1.1C237.9,305.2,243.1,306.5,247.7,307.8"/>
	<path class="st0" d="M299.3,308.6c-2.9-1.3-6.4-0.5-9.5-0.8c2.4,0,6.4-2.1,9.5-0.5V308.6z"/>
	<path class="st1" d="M78.7,307.8l-1.8,2.1l-0.8-2.7C76.6,308.3,77.9,307.8,78.7,307.8"/>
	<path class="st1" d="M179.6,320c-2.1,1.8-5.3,4.2-8.7,4.5c0.5-3.7,11.4-2.7,5.6-6.4c-4.5-4-10.1-10.1-16.9-7.2
		c-1.9,0.5-4.2,4.5-5.3,1.3c-0.5-2.9,2.9-1.6,4-3.7c2.9-0.8,6.6-1.1,9.5,0C172.4,311.8,176.7,314.9,179.6,320"/>
	<path class="st1" d="M112.9,308.6c-0.3,2.4-6.4,3.4-10.1,3.7c-7.1-1.1-15.4-0.3-22.8-0.5l3.2-3.2H112.9z"/>
	<path class="st1" d="M401.5,312.3c-1.1-0.5-1.8-2.1-0.5-3.2C402,309.4,401.2,311.2,401.5,312.3"/>
	<path class="st1" d="M386.2,313.1c-2.1-0.5-7.4,1.3-5.6-3.2h5.6V313.1z"/>
	<rect x="389.3" y="309.9" class="st1" width="6.4" height="3.2"/>
	<path class="st0" d="M263.5,311.8l0.8,0.5c-2.6,2.9-7.1,2.4-10.3,1.8c-0.3-3.4-4.5-0.8-5-3.7C255.6,308.3,257.7,317.6,263.5,311.8"
		/>
	<path class="st0" d="M280.2,311c-2.6,1.8-8.2,3.2-11.6,0.8l-0.5-1.3C271.2,312.6,276.5,311.8,280.2,311"/>
	<path class="st1" d="M134,313.6c-1.8,0.5-4.2-1.1-5.3,1.3l0.8,3.7c-2.6,1.1-9-1.9-12.2,0c-1.3-2.1-0.5-5,0.8-6.9
		C123.5,312.3,128.7,313.1,134,313.6"/>
	<path class="st0" d="M291.6,312.3c1.1,1.1-1.6,2.9-2.6,3.2l-6.4-0.6C284.5,312.3,289.2,314.7,291.6,312.3"/>
	<path class="st1" d="M189.1,315.5c-3.7-1.6-10.9,4-10.1-2.4C182.5,315.7,188.6,309.9,189.1,315.5"/>
	<path class="st0" d="M304.3,313.1c0.3,1.6-2.1,2.1-4,1.8c-0.8-0.3-2.1,0.5-2.4-0.8C298.8,312,302.2,313.4,304.3,313.1"/>
	<path class="st1" d="M352.5,327.7c-4.5-2.4,0.5-9.3,0.8-14C354.9,317.6,352.8,322.9,352.5,327.7"/>
	<path class="st1" d="M106.5,314.9c-8.5,2.4-18.5,0.8-27.8,1.3v-2.1L106.5,314.9z"/>
	<path class="st1" d="M170.1,320.5l-1.8,0.8l-1.3-7.1C170.1,314.4,169,318.4,170.1,320.5"/>
	<path class="st1" d="M195.5,361.3h-1.9c-14.6-15.1-23.6-33.9-42.6-44c-5.8-3.7-9,5-14.6,2.1c5-5,13-4.5,19.9-2.6
		C172.4,327.1,183,346.2,195.5,361.3"/>
	<path class="st0" d="M303,316.3v1.1h-10.9C293.7,313.4,299,317.3,303,316.3"/>
	<path class="st0" d="M238.9,318.1c1.8,3.7,5.6,0.3,8.2,1.8c-1.6,1.1-5.3,1.9-7.7,0.5c0-4.8-5.8-1.1-8.2-3.2
		c2.1-1.1,7.9,0.3,11.4-1.1L238.9,318.1z"/>
	<path class="st0" d="M254.8,316.8c-2.4,0.3-4.8,2.4-7.1,0.5C249.5,317.3,252.4,315.2,254.8,316.8"/>
	<path class="st0" d="M269.4,316.3c-1.6,3.2-6.9,1.6-9.5,1.1C261.9,316,266.5,317.6,269.4,316.3"/>
	<path class="st0" d="M281.3,316.8c-2.1,0.8-6.4,1.6-7.4-0.5h7.4V316.8z"/>
	<path class="st0" d="M379.8,318.7h-7.4v-1.3C374.8,317.9,378.2,316.3,379.8,318.7"/>
	<path class="st1" d="M190.5,318.7c0.8,3.7-3.2,0.8-4.5,2.6c-1.3,0.5-2.1-0.8-3.2-1.3v-1.3L190.5,318.7L190.5,318.7z"/>
	<path class="st0" d="M228.1,318.7c-0.3,2.9-4.2,2.1-6.4,3.2c-1.9,0.3-4.2-0.3-4-1.8C221.2,321.6,224.9,320,228.1,318.7"/>
	<path class="st0" d="M260.4,319.4c-2.1,2.9-7.4,4.2-10.9,1.8C252.7,320.5,257.7,320,260.4,319.4"/>
	<path class="st0" d="M278.9,321.3c-1.3-0.3-2.4,0-3.2,1.3c1.3,2.1,4.2,0.8,6.4,1.1l-2.6,2.1c2.4,2.4,6.9,0.3,9.5,1.8
		c-3.7,3.7-10.6,0.8-15.1,0l1.1-1.3l-10.6-1.8c1.8-0.5,7.4,1.1,10.1-1.3c-2.1-2.6-6.4-0.3-9-1.8
		C269.9,321.8,274.9,317.3,278.9,321.3"/>
	<path class="st1" d="M116,321.3c1.3,1.1,0.5,2.9,0.8,4.5c-7.1,1.3-14-3.2-19.9,1.1c1.9,1.6,6.4,0,9,1.3c3.7,1.1,10.6-2.7,11.4,3.2
		v1.9c-5,0.8-9.5-1.3-13.3,1.3c4,1.3,8.2,1.3,13.3,1.3v0.5c-5.6,1.6-13.8-0.5-18.3,2.1c0.5,1.1,1.8,1.3,3.2,1.1
		c-0.8,0.3-1.6,0-2.1,0.8c-1.3,0.5-2.1-2.9-1.8-5c1.1-0.3,2.6,0.5,3.2-0.8c-4.2-3.7-16.7,2.9-17.7-5.6c1.3,0,2.4-0.3,3.2-1.3
		c-0.5-3.7-6.9-0.5-6.4-5.8C90.6,320.8,104.4,321.6,116,321.3"/>
	<path class="st1" d="M156.3,323.7c0.5-1.8-8.7,1.8-9-3.2C151,320,153.6,321.6,156.3,323.7"/>
	<path class="st1" d="M146.8,325c-3.2,2.4-7.4-1.1-10.9,1.8c3.7,2.4,6.1,1.9,10.9,2.1l-0.8,4.2c-3.2,0.8-7.9-1.6-9.5,2.1
		c2.9,0.3,5.6,1.6,9,1.1v7.1c-5.8,4.2-9.5-8.7-10.3,1.9c-1.1,2.6,2.1,3.7,2.6,3.2c-4.2,0.5-1.6,5.3-0.5,7.7l3.2,2.4
		c-1.9-0.3-4.2,0.3-3.2,2.6c0,0.8-0.5,2.1,0.5,2.7c0.5-4.2,7.4,1.3,8.2-4c-4.5-4,1.8-6.6-3.7-9.5c0.3-1.3,1.6-2.4,3.2-1.8v17.7
		c-2.1,0.3-6.9-3.4-8.2,0.8c0.8,7.4,0.8,14.6,0,21.4c23.3,13.8,56.7,6.6,80,1.3c-3.4,0.3-7.4,1.6-9,5c0.8,9-2.1,20.4,5.3,25.4
		c22.8,2.1,41.8-6.4,64.6-2.4c-6.9,1.6-18-0.8-26,1.8c10.9,1.1,23.6,3.2,33.6,0.5l-1.9-1.3c10.9,0,24.4,6.6,31.8-3.2l0.5-13.8
		c13.8,1.6,27.8,0,39.5-5.3c0.3,1.6,2.1,2.4,4,2.1l-3.2,2.4c-13.8,0-27.3,2.6-40.3,2.6l2.7,1.9l33.6-1.9c-3.7,3.4-9.8,3.2-12.7,7.7
		c-3.4,1.1-7.4,5-10.9,3.2c-4,0.3-9.3-1.1-11.9,1.1c2.4,2.6,6.6,0.5,9.5,2.1c-5,5.8-11.9-2.9-15.9,3.7c1.3,1.1,3.4,0.5,5,0.5
		c-12.7,7.4-32.3-0.8-45,4.5l26.5,1.3c-13.3,8.5-26.7-3.2-40.5,2.6c0.8,2.1,3.4,0.8,5,1.1h-18.5l12.2-0.5c0-2.7-3.4-2.7-5.8-2.7
		c-5.6,1.3-11.9,0-14.6,4l8.2,1.3l-8.7-0.8c-2.1-1.6,1.6-2.1,1.3-3.7c-10.1,0.8-21.4-4.2-28.6-0.8c-8.2-2.4-16.7-4.5-24.4-8.2h24.9
		l1.3-1.3l-3.2-1.8c-12.7-0.8-31.3,5.3-41.3-5c13.5-1.9,24.9,1.1,38.1,0c-4-4.8-12.4-1.6-18.5-2.7c-9-1.3-23.8,3.7-31.8-4.2
		c2.9-0.5,7.4,1.1,9-1.3c-6.1-2.9-15.4,0.8-19.1-5.8c6.6-0.3,13.5,1.1,19.6-1.3c-8.5-3.4-21.4,2.4-27.8-5c2.1,1.3,5,0.5,6.9-0.5
		c-4-4.2-11.9,1.6-14.6-5.8c3.7,0.3,7.7-0.3,10.1-1.8c-4.5-1.9-13.3,1.1-15.9-4.5c5-1.6,10.9,1.3,15.9-0.5c0.5-1.3-0.5-1.9-1.3-2.7
		l-17.7,0.8c-1.1-1.8-3.4-1.8-3.7-4c9.3-0.3,15.4-3.7,22.2-8.7c-4.2-13,0-28.9-1.3-41.3C139.3,329,145.2,314.7,146.8,325"/>
	<path class="st0" d="M301.1,322.6c-0.3,0.5-4,1.3-4-0.8C298.8,321.3,299.6,323.2,301.1,322.6"/>
	<path class="st1" d="M204.5,354.4c-8.2-7.4-16.2-20.1-24.1-29.9l1.3-1.9C188.9,332.7,198.1,343.3,204.5,354.4"/>
	<path class="st0" d="M235.7,324.5l5,1.8c-2.9,2.9-8.7,2.4-12.2,0.5c-2.4-3.2-6.6,0.5-10.1-3.2l10.1-0.5c0.3,0.8-0.8,1.3-1.3,1.9
		c5.8,2.1,2.4-3.4,8.5-2.4h3.2L235.7,324.5z"/>
	<path class="st1" d="M192.3,325c-1.6,0.3-3.2,2.4-5,0.8l-0.5-2.6C188.6,323.7,192,321.8,192.3,325"/>
	<path class="st0" d="M261.7,323.2c-4,2.9-11.4,4.5-16.4,1.8l-0.8-0.5C249.8,324.7,256.1,323.7,261.7,323.2"/>
	<path class="st0" d="M297.2,324.5c-1.8,3.2-7.7,1.8-10.6,0.5C287.6,322.1,293.2,325.5,297.2,324.5"/>
	<path class="st1" d="M421.1,323.7c-0.5,4.8-6.6,1.8-10.1,2.6C412.1,320.8,417.9,326.6,421.1,323.7"/>
	<path class="st1" d="M127.7,349.9c0.8,2.6-2.1,5.6-3.2,8.2c2.4-7.2-0.8-21.7-0.8-33.6C125,333.2,123.4,341.7,127.7,349.9"/>
	<path class="st1" d="M329.7,350.4l-15.4-22.8l0.8-3.2C320.7,332.2,329.7,341.4,329.7,350.4"/>
	<path class="st1" d="M388.8,325c1.1,3.7-4.2,3.7-3.2,0H388.8z"/>
	<path class="st1" d="M396.5,325c0,0.8-0.3,1.6,0.5,1.8c-0.8,2.4-3.4,1.1-5,1.3v-3.2h4.5V325z"/>
	<path class="st1" d="M401.5,328.2h-1.8V325C399.9,325.8,402.3,326.6,401.5,328.2"/>
	<polygon class="st1" points="175.4,326.9 177.2,325.8 178.5,326.9 	"/>
	<path class="st0" d="M219.1,326.9c-3.4,0.8-8.5,1.6-11.4-0.5c3.7,1.6,7.7-0.5,11.4-0.5V326.9z"/>
	<path class="st1" d="M408.4,326.3c0.8,2.9-1.6,2.6-3.2,4.5l-1.9-5L408.4,326.3z"/>
	<polygon class="st0" points="94.6,327.7 90.1,328.2 89.6,326.3 94.6,326.9 	"/>
	<path class="st1" d="M382.4,330.8c-4.2,0.3-9-0.5-12.7,0.5c5,3.2,13.5-1.3,17.2,4c-4.8,0-14.6,2.9-17.2-2.7v-5l12.7,1.3V330.8z"/>
	<path class="st1" d="M193.6,329.5c0,0.8-3.4,1.6-3.2-0.5C191.5,329,193.1,328.5,193.6,329.5"/>
	<path class="st0" d="M277,330c-8.5,4.5-19.6,0.3-28.1-1.1C258,332.2,268.3,327.9,277,330"/>
	<path class="st1" d="M418.7,329c-0.8,0.3-0.8,1.1-0.8,1.8c-2.4-0.8-7.4,1.6-7.4-1.8H418.7z"/>
	<path class="st1" d="M182.2,332.2c-2.4,0.8-7.1,1.3-6.4-2.6C177.5,331.4,182,328.5,182.2,332.2"/>
	<path class="st0" d="M240.8,330.8c-4,0.3-7.7,2.4-11.4,0.5l-1.3-1.9C233.1,327.9,236.5,332.2,240.8,330.8"/>
	<path class="st0" d="M298.5,330c-2.9,1.3-7.4,3.2-10.1,5.3l8.2-0.8l-3.2,2.6c0.5,1.1,2.1,0.5,1.9,1.9c-0.8,0.5-2.9-0.3-3.2-1.9
		c-4.8-0.3-9.5-0.8-14.6-0.8v-1.1c1.8-0.3,4.2,0.5,5.8-0.8l-2.6-3.2c6.1-0.8,10.6-0.8,15.9-1.3L298.5,330L298.5,330z"/>
	<path class="st1" d="M331.1,329.5c-2.1,2.9-1.6,8.5-0.8,10.9c-2.1-0.8-4.8-6.6-1.8-9.5C328.9,330,330,329.8,331.1,329.5"/>
	<path class="st1" d="M388.8,332.2l-3.2-1.3c0.5-1.3,2.1-0.5,3.2-0.8V332.2z"/>
	<path class="st1" d="M399.7,335.9h-4v-3.7l-4.2-0.8v-1.3C397.5,327.9,395.9,333.5,399.7,335.9"/>
	<path class="st1" d="M402.8,330.8c0,0.5-0.3,0.8-0.8,1.3c-1.1,0-3.2-0.3-2.4-2.1C400.7,330.3,402,329.5,402.8,330.8"/>
	<path class="st1" d="M165.8,333.2h-1.3v-2.4C165,331.6,166.1,332.2,165.8,333.2"/>
	<path class="st0" d="M217.2,332.2c0.3,0.5-0.3,0.8-0.5,1.1l4.2,0.8c-2.9,5.3-8-0.3-12.7,0.5v-2.4H217.2z"/>
	<path class="st0" d="M239.4,335.9l-3.7-1.3l8.7-2.4C244.5,333,241.8,336.4,239.4,335.9"/>
	<path class="st0" d="M228.6,334c-1.6,0.5-5.8,1.8-6.4-1.3L228.6,334z"/>
	<path class="st1" d="M152.3,360.8c-0.8,3.2-0.3,7.4,3.2,9.5c-7.1-6.4-4.8-15.9-4.5-24.9l1.3-12.2C151.8,343,151,352,152.3,360.8"/>
	<path class="st1" d="M194.4,333.2l2.4,4L194.4,333.2z"/>
	<path class="st1" d="M212.7,333.2h2.6H212.7z"/>
	<path class="st1" d="M415.5,335.9h-12.7c-0.5-1.8,2.1-1.6,3.2-2.6l9.5,0.8V335.9z"/>
	<path class="st1" d="M187.3,338.5c-1.3,1.1-3.4,0.3-5,0.5l-2.6-3.7C183,335.1,185.9,335.1,187.3,338.5"/>
	<path class="st0" d="M269.9,335.9l-1.3,2.6c1.6,1.1,4,0.3,5.8,0.5c-3.7,4.2-12.2,2.7-17.2,1.3c2.9-0.3,6.1,0.8,8.2-1.3l-7.4-1.3
		C261.4,337.2,266.7,336.4,269.9,335.9"/>
	<path class="st1" d="M390.7,335.3h1.8H390.7z"/>
	<path class="st1" d="M165,339c-0.5-0.3-0.8,0.3-1.3,0.5v-3.6h1.3V339z"/>
	<polygon class="st1" points="93.8,337.7 91.9,336.4 93.8,336.4 	"/>
	<path class="st1" d="M169,344.9l-8.5,3.2c4.2-2.1,8.7-5.3,7.7-11.6C169.5,339.1,170.1,342.8,169,344.9"/>
	<path class="st0" d="M224.1,337.2c-3.7,1.3-8.2,3.4-13.2,2.4C215.1,339.8,219.3,336.9,224.1,337.2"/>
	<path class="st0" d="M243.2,339.6c-2.4,4.5-9.8-0.8-10.6,4.5c-3.4,1.8-7.9,4-11.6,1.3c2.4-0.5,6.1,1.1,7.1-1.3v-1.9
		c1.9-0.8,2.9,1.6,4.5,0l-5.3-3.7L243.2,339.6z"/>
	<path class="st1" d="M387.5,338.5c-0.3,0.8,0.8,1.1,1.3,1.8l3.7-1.8c2.6,6.1,4.2-4,7.7,1.1c-3.2,1.3-10.9,0.5-15.1,0.8l-2.7-1.8
		h5.1V338.5z"/>
	<path class="st1" d="M412.9,339c-3.7-0.8-8.2,4.5-10.1,0C406.5,340.1,409.5,337.2,412.9,339"/>
	<path class="st1" d="M118.2,340.9c-4,1.6-9.3-4.8-10.3,1.8c-1.6,0.3-2.1-3.4-2.4-3.7l12.7,0.5V340.9z"/>
	<path class="st0" d="M293.5,340.9c-4.2,2.4-10.3,1.3-14.6-0.5C283.1,336.7,288.7,341.7,293.5,340.9"/>
	<path class="st1" d="M191.2,344.1c-2.1,1.6-6.1,0.3-5.8-2.4C188.3,341.7,189.9,341.2,191.2,344.1"/>
	<polygon class="st1" points="97,343.5 94.6,342.2 97,342.2 	"/>
	<path class="st1" d="M238.1,349.1l-0.5-0.5l10.1-6.4C245.3,345.1,244.2,353.1,238.1,349.1"/>
	<path class="st1" d="M255.9,384.9l-1.8-1.8c21.4-14,44.7-27,66.2-40.8l1.3,1.3L255.9,384.9z"/>
	<path class="st1" d="M114.2,345.4v1.3c-2.9,1.1-3.2-1.9-5.6-1.9C108.6,342,115,341.7,114.2,345.4"/>
	<path class="st0" d="M270.7,342.8c0.5,2.1-2.6,1.3-2.6,3.2l5.8,0.8c-5.3,4.2-10.3-3.4-16.7-2.6
		C260.6,344.6,266.2,343.3,270.7,342.8"/>
	<path class="st0" d="M292.9,344.9c0,0.8-1.1,1.8-2.1,1.8c-6.1-4.5-8.2,6.4-13.8,0l7.4-0.8l-1.1-1.8L292.9,344.9z"/>
	<path class="st1" d="M407.9,348.6c-0.8,9.3-11.1,3.4-16.4,5c0-1.6-0.3-3.4-2.1-3.7h-1.1c2.9-2.1,3.4,1.3,6.9,0l4.5-4.5
		C400.7,348.8,405.2,347.3,407.9,348.6"/>
	<path class="st1" d="M178.5,352.3c1.1-0.5,0.3-2.1,0.5-3.2l-0.5-0.5c6.4,3.2,3.4,11.9,2.4,16.4l-1.8,4.5c-4-1.6-7.7-4-10.9-7.7h1.3
		c1.9-4.8-3.2-8.2-3.7-12.7c3.4,1.8,2.7,8.7,6.9,10.3c2.7-4.8-4-7.9-1.8-12.2c1.3,2.4,1.8,5.6,4.5,7.2c2.1-3.2-1.3-5.6-1.3-8.5
		C175.4,347.5,175.9,351.2,178.5,352.3"/>
	<polygon class="st1" points="384.3,347.3 384.3,345.9 386.1,345.9 	"/>
	<path class="st1" d="M104.7,346.7c-0.3,0.8,0.5,2.1-0.5,2.4v-2.4H104.7z"/>
	<polygon class="st1" points="367.9,348.6 367.9,346.7 369.7,348.6 	"/>
	<path class="st1" d="M195.5,349.9c-3.2,0.5-4.5-0.5-6.4-2.6C191.8,347.3,194.9,346.7,195.5,349.9"/>
	<path class="st1" d="M380.6,351.2c-0.8,0.8-4.2,0.3-4,3.2c0.3,0.5-0.3,0.8-0.5,1.1c2.1,2.9,4.8,0.3,6.9,0.8c1.6-3.7,2.9,1.6,5.3,0
		h13.8l-7.4,10.1c-1.1-2.9-4.2,0.5-5.8-0.5l2.6-2.6c-3.4,0.3-8.7-0.8-10.3,3.2c2.6,4.2,7.4,0.3,11.4,1.8c-5.6,12.2-22,4.8-31.8,7.7
		c6.9,4.2,15.6,0,23,1.3c-3.4,9.5-14.8,2.9-23,5.8c0,1.3,0.3,2.4,1.3,3.2c5-0.5,10.1-1.9,14.6-1.3c-2.4,7.4-10.9,2.4-14.6,5.6
		c2.1,2.4,3.4,1.1,6.4,1.3c-3.4,3.4-5.6,4.5-10.9,4c6.9-5.6,0.3-14.6,1.3-22.2c-4.2-2.4-8.5,3.2-13.3,3.2
		c-15.6,5.6-33.4,0.8-47.1-5.8c2.9-3.4,9.3,1.6,13.5-1.9c-6.1-2.4-11.1-0.8-18-1.3c-1.6,4-10.9,1.1-11.9,8.2
		c-5.6,5.6,0.5,24.9-14,17.2c-2.7-1.9-6.1-2.4-8.2-5.8c1.9-1.3,4-2.1,5.6-4.2c4,2.6,8.5,0,12.7,0V382h-10.1
		c2.6-5.3,11.6-1.9,12.2-6.4h-2.1c9-4.8,16.9-14,28.1-12.2c-0.8-2.4-4.2-0.8-6.4-1.3c7.2-11.4,20.4-1.6,29.1-3.7
		c2.4,4.2-2.1,10.6,4,14c2.4-0.5,6.4,1.1,7.7-1.3c5,1.6,13,2.4,17.7-0.5c-0.3-8.5-16.9-2.9-11.4-15.9c1.6-0.5,3.4,0,4.2,2.4
		c-1.1,3.2-1.1,9.3,4,9c1.6-0.5,5.3,1.1,6.9-1.3c4.8,1.6,12.7,2.4,16.7-0.5c0.5-7.7-15.4-2.9-10.9-12.7c2.4,2.1,7.2,0.8,9.5,1.1
		l1.8-2.4l-1.8-1.8C380.3,347,379.8,349.4,380.6,351.2"/>
	<path class="st0" d="M261.7,349.9c-1.3,1.6-3.2,2.1-5,1.8C252.7,346.5,260.9,351.5,261.7,349.9"/>
	<path class="st1" d="M100.2,351.2c0.3,0.5-0.3,0.8-0.5,1.1l-0.5-1.8C99.4,350.7,99.6,351.2,100.2,351.2"/>
	<path class="st0" d="M289,353.1c-1.8,3.2-3.7-0.5-5.6-0.8c-4.8,0.5-10.3-1.1-14,1.3l-0.8-0.5c6.4-3.4,14-1.8,20.4-1.3V353.1z"/>
	<path class="st1" d="M108.6,352.3c0,1.3-1.8,0.5-2.6,0.8l-0.5-1.8C106.5,351.5,107,352.8,108.6,352.3"/>
	<path class="st1" d="M162.6,351.2l2.4,5.6L162.6,351.2z"/>
	<path class="st0" d="M228.1,351.2c0,1.1-1.1,1.3-1.8,1.1h-2.1C224.6,351,227,352.6,228.1,351.2"/>
	<path class="st1" d="M198.7,354.4v1.1c-2.1,0.5-3.7,0-3.7-2.4C196.3,353.1,197.9,352.8,198.7,354.4"/>
	<path class="st1" d="M242.1,363.1c-1.1,13,10.1,23.3,19.1,29.9c-5.3,3.7-8.7-3.4-12.7-5.8c-5.3-4.2-2.6-12.4-9-15.9
		c-1.6-5.3-2.4-13.3,0.5-18.3C248.2,353.3,240.5,359.4,242.1,363.1"/>
	<path class="st0" d="M266.2,354.4c-1.6,3.4-7.1,1.1-9.5,1.8l-0.8-0.8C258.8,355.7,263,355.5,266.2,354.4"/>
	<path class="st1" d="M117.4,358.6c-0.5-1.6,0.5-2.6,1.8-3.2v3.2H117.4z"/>
	<path class="st1" d="M234.9,361.3c-9-0.5-20.4-4.2-29.9-1.8h-1.9c9.8-3.7,22.5-4.5,31.8,0.5V361.3z"/>
	<path class="st1" d="M187.3,359.4c0.3,1.1-1.6,0.3-2.4,0.5l0.5-3.2C186.2,357.6,186.2,358.6,187.3,359.4"/>
	<path class="st0" d="M274.4,357.6c-4.2,1.6-10.6,1.6-15.9,2.4c-1.1-0.5-2.9-1.1-3.2-1.8C261.2,358.9,268.3,356.8,274.4,357.6"/>
	<path class="st0" d="M397.8,360c-0.3,3.2-2.9-0.5-4,1.3c-4.8-1.6-9.3,0.5-14-2.7c5.3,0.3,9.5-3.2,13.5,0.8
		C394.6,359.7,396.5,358.9,397.8,360"/>
	<path class="st0" d="M282.6,359.4H277c1.1-2.4,3.7-0.8,5.6-1.3V359.4z"/>
	<path class="st1" d="M165,363.1c-1.8-0.8-4-4-6.4-1.8c0.5,1.6,1.1,4.8,4,3.7h1.8c-0.5,0-1.1,0.5-1.3,0.8c-0.5,1.1,0.5,1.9,1.3,2.4
		h1.9l-0.5,0.8c1.1,2.9,6.1,0.3,6.9,3.7c-8.5,3.2-9-7.4-14-10.1l0.8-3.2C161.6,360,164.2,360.8,165,363.1"/>
	<path class="st0" d="M317.6,361.8c-0.8,0.3-2.1-0.5-2.4,0.8c0.5,1.1,2.1,0.3,3.2,0.5c-1.6,1.6-4.8,2.4-7.7,1.8
		c-2.1-1.8,0.5-4.5,2.4-4.2C314.6,359.4,317.8,360,317.6,361.8"/>
	<path class="st1" d="M109.2,367.1l-5-5.3c2.1,0.3,7.2,0.3,10.1-1.1L109.2,367.1z"/>
	<path class="st1" d="M189.9,362.6c-2.6,0.8-2.4,3.7-5.8,2.4C182.8,362.1,187.8,361,189.9,362.6"/>
	<path class="st1" d="M230.4,364.5c-3.7-0.8-9.8,2.1-11.4-2.6C223.8,360.8,226.7,363.7,230.4,364.5"/>
	<path class="st0" d="M327.1,362.6c-0.3,1.3-3.2,1.6-4.5,0.5C323.7,362.9,325.8,360.8,327.1,362.6"/>
	<path class="st1" d="M219.1,367.1c-3.7,1.3-4-2.1-6.9-3.2c-1.8,1.1,0.3,2.4,0.5,3.7c-5.6,2.9-4.5-5.6-9.5-3.7l2.7,4.2
		c-3.7,3.4-5.3-3.2-9-1.8l1.8,3.2l-6.9,1.8c-1.3-3.7,4.2-7.7,7.7-8.7C206.9,361.6,213.2,363.7,219.1,367.1"/>
	<path class="st1" d="M234.9,368.2v1.3l-5.6-2.4C231.5,366.6,233.1,367.9,234.9,368.2"/>
	<path class="st1" d="M263.5,370.8c-5.6-2.6-12.2-0.3-17.2-0.5l-0.5-2.6L263.5,370.8z"/>
	<path class="st0" d="M327.9,369l-13.5,0.5c3.2-2.4,9-0.8,13.5-1.3V369z"/>
	<path class="st1" d="M239.4,375.3c3.4,2.4,4.2,7.7,1.8,10.9c-2.1,1.6-4.2,2.7-6.9,3.2c1.1-0.5,0.3-1.8,0.5-2.6l-3.2-1.8
		c1.6-2.9,6.4-1.9,7.7-5.8c-3.2-1.1-6.4-5.8-9.5-3.2l3.2,3.2l-5.8,3.2c-2.4-2.1,0.3-10.6-5.6-8.7c-1.9,3.4-6.1,6.9-4.5,11.4
		c7.7-5.6,8.7,2.9,15.9,4.5c-4.8,2.9-7.4-2.6-11.4-3.2c-25.7,4.8-55.9,12.7-80.8,0.5l0.5-17.7C172.7,388.3,207.9,360.8,239.4,375.3"
		/>
	<polygon class="st0" points="361.5,369.5 361.5,369 380.6,369.5 	"/>
	<path class="st0" d="M383,369.5h7.7H383z"/>
	<path class="st0" d="M129.5,370.8c1.6,1.8,6.4-1.1,6.4,2.6v1.9h-7.7c-2.1-4-5,2.4-8.2-0.8c3.7,0,5.6-4.8,9.5-4.2V370.8z"/>
	<path class="st1" d="M183.6,372.1h3.7H183.6z"/>
	<path class="st1" d="M263.5,373.5c-4.5,0.8-13.5,4.5-16.4-1.3L263.5,373.5z"/>
	<path class="st1" d="M340.6,380.9l15.1-4.2c-0.5,5.6,0.8,10.3,1.8,15.1c-19.9,12.4-47.7,6.9-67.3-2.4l-9.5,0.5
		c2.1-6.1,2.6-13.8,9-17.2C306.7,375.3,321.8,386.2,340.6,380.9"/>
	<path class="st0" d="M217.2,375.3c2.6,6.1-7.4,3.2-5.8,9.5h-1.1c0-4-2.9-8.7,0-11.4C212.7,374,215.9,371.9,217.2,375.3"/>
	<path class="st0" d="M343.8,375.3c-9.3,2.1-20.4,1.3-29.9,0.5c4.2-2.9,11.9,0.5,16.4-1.3L343.8,375.3z"/>
	<path class="st0" d="M156.3,380.4c-0.3,2.9-1.8,5.8-4.5,6.9c-3.4,1.1-5.8-1.3-7.1-3.7c-0.5-3.2,0.5-5.8,3.2-7.7
		C151.5,375.1,155.5,376.6,156.3,380.4"/>
	<path class="st0" d="M204.5,386.2c-3.4,2.1-4.2-2.1-6.9-4l-0.8,5.8c-2.9-1.8-2.1-7.1-3.2-10.9c3.2-1.3,4.2,2.7,6.4,3.7l0.8-5
		C204.7,376.4,203.2,382.7,204.5,386.2"/>
	<path class="st1" d="M214.6,376.6c-0.5,0.5-1.3,1.6-2.4,1.1v-1.8C213,376.1,214.3,375.3,214.6,376.6"/>
	<path class="st0" d="M301.1,379.8h-5.8c-0.5,2.1,2.1,2.1,3.2,3.2c0,2.7-6.4-0.5-6.9,4.2c-1.1-3.4,1.6-7.2,2.4-10.6
		C296.4,377.7,300.1,376.9,301.1,379.8"/>
	<path class="st1" d="M255.9,377.2c-1.6,0.3-2.1,2.9-4.2,1.8c0-0.5-0.5-0.8-0.8-1.3C252.7,378,254.3,377.4,255.9,377.2"/>
	<path class="st0" d="M166.9,381.7c-2.1,2.4-0.8,4.2-1.1,7.7h-2.7c-0.3-1.6,0.8-3.7-1.3-4.5c-4.2-1.1-0.5,5.3-5,3.7l1.8-10.9
		C162.1,377.7,166.6,377.5,166.9,381.7"/>
	<path class="st0" d="M191.2,377.7c0,3.2-4.5,1.6-5.3,4c1.3,1.6,4.8-0.8,5.3,1.9c-1.6,1.1-5,0.3-4.5,3.2c2.1,2.4,5-2.1,6.4,1.3
		c-1.8,2.4-5.6,0.3-7.7,1.8c-1.8-2.9-1.6-6.9-2.6-10.1C185.2,378.2,188.1,377.5,191.2,377.7"/>
	<path class="st1" d="M153.1,380.4c-1.1,1.3-0.8,4-2.6,3.7c-1.9,0.5-1.9-0.5-2.7-1.9C147.6,379,151.8,376.6,153.1,380.4"/>
	<path class="st0" d="M179.1,383c0,3.7-0.8,7.1-5,7.4c-3.7,0.5-5.8-2.4-5.8-5.6c-1.3-2.9,2.4-5,4-5.8
		C175.4,378,177.7,380.4,179.1,383"/>
	<path class="st0" d="M305.6,380.4c-0.5,4-1.6,8.2-4,10.9c-2.1-3.2,1.3-7.1,1.8-10.9H305.6z"/>
	<rect x="161.3" y="380.9" class="st1" width="1.8" height="1.3"/>
	<path class="st1" d="M175.9,383.5c-0.3,1.6,0.8,3.7-1.3,4.5c-1.3,0.3-2.9-0.5-3.2-1.9C169.3,382.5,175.4,379.6,175.9,383.5"/>
	<path class="st0" d="M317,385.4c-1.6-0.8-4.5-0.8-5.8-0.5c-0.3,3.2,4,1.6,4.5,3.7c-1.6,1.6-5.3-0.5-5.8,1.8
		c1.3,2.1,4.5,1.1,5.3,3.2c-2.4,0.5-5.6-0.8-8.5-1.1l3.2-10.9C312,383.5,317.6,381.4,317,385.4"/>
	<path class="st0" d="M352,388c1.1,2.4-1.6,4.2-3.2,5c-3.7,1.1-6.9-1.3-7.7-4.5c0-2.9,0.8-5.8,3.7-6.9
		C348.8,381.4,352.5,383.5,352,388"/>
	<path class="st1" d="M349.3,386.7c0,1.3,0.3,2.9-1.3,3.7c-1.8,1.1-3.2-1.1-3.7-2.4l1.8-4C347.2,385.1,349.3,384.9,349.3,386.7"/>
	<path class="st0" d="M328.4,387.2c-3.4,2.6,1.8,7.4-2.6,8.5c-1.1-1.6,0-5-3.2-4.5c-2.6,0.5,0.3,4.5-3.2,3.7v-10
		C322.6,385.7,327.6,382.7,328.4,387.2"/>
	<path class="st0" d="M339.3,386.7c-3.2,3.2,3.7,7.1-1.3,8.2c-0.5-1.3-1.3-2.4-1.8-3.7c-1.8-0.8-3.2,0.8-2.7,2.4v2.1h-1.9l-0.5-10.9
		C333.7,385.4,338.2,383.3,339.3,386.7"/>
	<path class="st1" d="M336.1,387.2c0,0.8-0.3,1.1-0.8,1.3c-0.5,0-1.3,0.3-1.8-0.5C333.7,387.8,335.3,385.7,336.1,387.2"/>
	<path class="st1" d="M325.2,388c-0.5,1.1-1.6,0.3-2.6,0.5v-1.3C323.7,387.5,324.7,386.7,325.2,388"/>
	<path class="st0" d="M274.9,389.4c-1.3,2.1-5.3,0.8-8.2,1.1l-0.5-1.8C268.6,389.9,272,389.1,274.9,389.4"/>
	<path class="st1" d="M249.5,393.6c-1.1,1.3-2.9,0.5-4.2,0.8v-4.5C246.6,391.2,249,391.5,249.5,393.6"/>
	<path class="st0" d="M205.8,396.2l-15.4,0.5C195.5,396.8,200.8,394.7,205.8,396.2"/>
	<path class="st1" d="M312.5,400c-0.8,5.8,3.4,22.8-10.9,17.2c-26.5-5.8-57.2-2.6-84,0.8c-10.3,0-3.7-14-5.6-18.5
		c32.6,0.5,66.5-6.9,99.8,1.3L312.5,400z"/>
	<path class="st0" d="M264.3,409.5c-1.3,2.6-4.5,2.6-6.4,2.1c-2.1,0.3-2.7-2.1-3.2-3.2c0-2.7-0.5-5.6,0.5-7.7h1.3
		c1.6,2.9-1.3,8.2,3.2,9.5c3.7-2.4,0.8-8.2,1.9-10.3C264.3,402.1,264.3,405.3,264.3,409.5"/>
	<path class="st0" d="M274.9,400.7v1.3c-1.8,0.3-4.5-1.1-5.6,1.1c0.3,2.9,4.2,0,5,2.6c-1.6,1.6-4.5-0.5-5.8,1.9
		c1.8,2.1,5.3,1.3,6.4,3.2c-2.1,1.3-5,0.5-7.4,0.8c-1.1-2.6-1.1-8.2,0-11.6C269.9,400.2,272.8,399.4,274.9,400.7"/>
	<path class="st0" d="M251.6,402.6v1.8c-2.9-1.6-7.1-2.6-7.7,1.9c0.5,1.6,1.1,2.9,2.4,4c1.1-0.3,2.7,0.5,3.2-0.8l-1.8-2.4
		c0.8-0.5,2.1-1.9,4-1.3c0.3,1.8,1.6,3.4,1.1,5.8c-3.4,0.8-9.8,1.6-10.6-3.2c-1.1-3.7,1.1-6.9,4.2-7.7
		C248.7,400,249.8,402.1,251.6,402.6"/>
	<path class="st0" d="M287.1,403.9c-2.9,1.8,0.8,8.2-3.2,8.2c0.3-1.9-0.5-3.4-1.8-4.5c-2.9-0.5-1.9,2.6-2.7,4h-1.8l1.3-10.9
		C281.6,401.8,285.8,400.5,287.1,403.9"/>
	<path class="st0" d="M298,407.1c-2.9,1.6,0.8,4.8-1.3,6.9c-1.8-0.8-1.6-6.6-5-4.5c-1.6,1.1,0.5,4.8-2.7,4l1.3-11.4
		C293.2,402.6,300.1,402.6,298,407.1"/>
	<path class="st0" d="M206.3,404.5l-15.9-0.5C195.7,400.2,200.8,405.2,206.3,404.5"/>
	<path class="st0" d="M186.7,403.9c-5,0.8-12.7,0.8-18.5,0H186.7z"/>
	<path class="st0" d="M236.8,413.5c-3.7,1.3-3.7-3.2-6.4-4.5l-1.1,5.8c-3.7-1.9-1.3-9-2.1-10.9c2.9-0.5,4.5,2.6,5.8,4.5
		c1.9-1.3-1.1-5.8,2.7-5.3C236,406.6,237.3,409.5,236.8,413.5"/>
	<path class="st0" d="M224.9,404.5c-1.8,1.6-5-0.5-6.4,1.8c0.8,3.2,5.6-0.5,5,3.2c-1.6,0.3-3.7-0.5-5,0.8c-0.3,4,6.4,0.5,5.6,4.5
		h-7.4v-10.9C219.3,404.2,222.5,403.4,224.9,404.5"/>
	<path class="st1" d="M283.9,404.5c-0.5,1.3-1.6,0.5-2.6,0.8v-1.4C282.3,404.2,283.4,403.4,283.9,404.5"/>
	<path class="st0" d="M309.4,413.5c-2.4,0.8-7.1-3.7-9,0.5c-0.8-2.7,1.1-6.9,2.7-10.1C308,403.7,307.8,410,309.4,413.5"/>
	<path class="st1" d="M295.3,405.8c-0.5,1.1-2.1,0.5-3.2,0.5C292.1,404.5,294.5,405,295.3,405.8"/>
	<path class="st0" d="M338.5,409c-5.6,2.4-14.6,1.1-20.9,1.3V409H338.5z"/>
	<path class="st0" d="M204.5,411.6h2.6H204.5z"/>
	<polygon class="st0" points="200,424.3 197.6,423.5 198.1,424.3 	"/>
	<path class="st0" d="M227.3,425.4c-7.1,1.1-17.7,1.1-24.6,0C210.3,424.6,218.8,424.6,227.3,425.4"/>
	<path class="st0" d="M266.7,426.2c-12.2-0.3-24.1,0.5-36.8-0.8l0.5-1.1C242.6,424.8,255.6,425.4,266.7,426.2"/>
	<path class="st1" d="M232.6,431.2c-5-1.1-9.5,2.4-13.5-0.5L232.6,431.2z"/>
	<path class="st1" d="M269.9,431.7c-1.8,1.3-4.5,0.5-6.9,0.8C264.9,431.2,267.5,432,269.9,431.7"/>
	<path class="st1" d="M247.1,433.9h3.2H247.1z"/>
	<path class="st0" d="M258,468.8c0.3,3.4-1.6,7.4-5.3,8.2c-3.4,0.3-7.4-1.6-8.2-5c-0.3-3.7,1.6-7.4,5-8.5
		C253.2,463.2,256.9,465.1,258,468.8"/>
	<path class="st1" d="M222.2,377.3c0,0-1.4,1.2-1.4,2.1s2.2,0.2,2.3,0.7c0.2,0.5-0.9-3.3-0.9-3.3"/>
	<path class="st1" d="M304.3,407.5c0,0-1.4,1.5-1.3,2.5s2.3-0.1,2.6,0.5c0.3,0.5-1.4-3.5-1.4-3.5"/>
	<path class="st0" d="M186.5,467.2c0.2-0.7,0.4-1.8,1.4-1.5c0.8,0.2,0.9,0.9,0.9,1.6c0.2,2.8,1,5.6,4,6.4c2.4,0.6,5.6-0.2,6.3-2.8
		c0.6-2.4-1.4-3.9-3.2-5.1l-2.1-1.4c-4.3-2.6-7.3-5.9-6-11.3c0.7-2.9,2.9-5.2,5.6-6.5c2.9-1.4,6.1-1.4,9.2-0.6
		c2.2,0.6,5.7,2,7.4,3.5c1.3,1.1,1,1.7,0.6,3.2l-0.6,2.5c-0.2,0.7-0.5,2.5-1.6,2.3c-1.1-0.3-1-1.7-1-2.6c0-1.6,0-2.9-0.9-4.3
		c-1-1.6-2.7-2.5-4.4-2.9c-2.9-0.7-6.7,0-7.5,3.3c-0.9,3.8,2.8,5.9,5.4,7.8c3.3,2.4,7.2,5.7,6.1,10.3c-1.5,6.1-9.1,7.6-14.4,6.3
		c-1.6-0.4-4.4-1.6-5.7-2.7c-0.8-0.7-0.4-1.4-0.2-2.3L186.5,467.2z"/>
	<path class="st0" d="M168.7,455.6c0.5-1.3,0.9-2-0.6-2.7c-0.9-0.4-2.9-1.2-3.8-1.4c-1.3-0.3-2.3,0.5-3.1,1.5
		c-0.4,0.5-1.1,1.2-1.9,0.9c-0.7-0.3-0.7-0.9-0.4-1.5c0.6-1.2,1.1-2.5,1.7-3.7c0.5-1.2,1-2.6,1.4-3.9c0.2-0.6,0.7-1.2,1.4-0.8
		c2.1,0.9-1.2,4.5,3.5,6.4l1.9,0.7c1.5,0.5,1.7-0.1,2.1-1.3l2.1-5.1c0.5-1.1,1.1-2.8,0.8-4c-0.4-1.3-1.7-2.2-2.9-2.7
		c-3.1-1.3-6.2-1.1-8.7,1.1c-0.5,0.5-1.3,1.2-2.1,0.9c-0.7-0.3-0.8-0.7-0.5-1.4c0.2-0.4,0.9-1.4,1.2-1.8l1.9-3.3
		c0.3-0.5,0.5-0.7,1-0.5c3.3,1.3,6.4,2.9,9.7,4.2c4.2,1.8,8.5,3.3,12.8,5.1c0.6,0.2,1,0.6,0.7,1.2c-0.3,0.7-1.1,0.7-1.6,0.6
		c-3.2-0.8-3.5,0.2-4.6,2.8l-6.5,15.6c-1.1,2.6-1.8,3.9,0.9,5.5c0.5,0.3,1.3,0.9,1.1,1.2c-0.3,0.7-0.9,0.9-1.5,0.6
		c-2.7-1.1-5.1-2.3-7.8-3.4c-4.6-1.9-9.2-3.6-13.9-5.5c-1-0.4-0.4-1.1-0.1-1.8l1.5-3.6c0.3-0.7,0.4-1.4,1.4-1
		c0.7,0.3,0.8,1.1,0.9,1.8c0.2,1.1,0.6,2.1,1.1,3.1c0.6,1.2,1.9,1.8,3.1,2.3c0.8,0.3,3.2,1.3,4,1.2c0.7-0.1,1.1-1.3,1.3-1.8
		L168.7,455.6z"/>
	<path class="st0" d="M144.8,438.8c0.2-0.2,0.9-0.7,1.1-1c0.3-0.6-0.6-0.9-1-1.1l-3.5-2.1c-0.3-0.2-1.3-1-1.5-0.5
		c-0.1,0.2-0.2,1.1-0.2,1.2l-1.5,8.6L144.8,438.8z M134.6,448.9c-1.4,1-1.9,1.7-3.5,0.7c-1.3-0.8-1-1.3-0.8-2.7l3.5-24.9
		c0.1-0.8,0.3-1.9,0.2-2.7c-0.1-1-0.3-1.5-1.1-2c-0.7-0.5-1.5-0.8-1-1.7c0.5-0.8,1.3-0.4,1.9,0c1.7,1,3.3,2.2,4.9,3.1
		c2.1,1.2,4.1,2.2,6.1,3.4c0.6,0.3,1.3,0.9,0.8,1.6c-0.8,1.4-3-1.5-3.9,0c-0.3,0.5-0.4,1.3-0.5,1.8l-0.7,4.1
		c-0.3,1.7-0.4,1.6,1.1,2.5l5.4,3.2c1.4,0.9,1.3,0.9,2.5-0.1c1-0.9,2.4-2,3.1-3.2c1.8-2.9-3.4-3.6-2.2-5.4c0.4-0.7,1.3-0.4,1.9-0.1
		c1.3,0.8,2.5,1.6,3.8,2.4s2.6,1.5,3.9,2.2c0.6,0.4,1.2,0.9,0.8,1.6s-1.1,0.4-1.7,0.2c-1.3-0.5-1.8-0.7-3,0.1
		c-1.1,0.7-3.1,2.3-4.3,3.2l-5.6,4.3L134.6,448.9z"/>
	<path class="st0" d="M114,429.6c-1.8,2.3-2.8,3.1-0.8,5.4c0.4,0.4,1.1,1.1,0.6,1.7s-0.9,0.4-1.5,0c-1.9-1.6-3.7-3.2-5.6-4.8
		c-1.8-1.4-3.7-2.7-5.4-4.1c-0.5-0.4-0.8-0.8-0.4-1.5c0.5-0.6,1.1-0.2,1.6,0.1c2.8,1.6,3.3,0.7,5.3-1.8l10.6-13.2
		c1.6-2,2.5-3.7-0.2-5.8c-5.4-4.3-9.1,0.1-10.6-1.1c-0.6-0.5-0.4-0.9,0-1.4c1.2-1.5,2.9-2.6,4.2-4c0.9-1,1.1-0.4,2,0.3
		c2.8,2.3,5.5,4.7,8.3,7c2.9,2.3,6,4.6,8.9,6.9c0.5,0.4,0.8,0.8,0.4,1.3c-0.5,0.6-1.2,0.4-1.8,0.1c-2.8-1.6-3.1-0.9-5.1,1.5
		L114,429.6z"/>
	<path class="st0" d="M73.9,375.9c-4.4,3.5-10.1,11.5-5.7,17c3.8,4.8,11.1,1.4,14.9-1.6c2.5-2,4.7-4.6,6.1-7.6
		c1.3-3,1.9-6.7-0.3-9.5C85,369.4,77.7,372.9,73.9,375.9 M95,385.4c0.1,4.4-2.3,8.8-5.7,11.5c-3.3,2.6-7.5,3.7-11.6,3.1
		c-4.5-0.5-8.2-2.7-11-6.3c-5.7-7.1-6.5-17.4,1.1-23.5c7.2-5.8,17.1-3.6,22.7,3.3C93,376.7,95,381.4,95,385.4"/>
	<path class="st0" d="M57,358.5c1.2-0.7,2-1,1.2-2.5c-0.5-0.9-1.5-2.7-2.1-3.4c-0.9-1.1-2.1-1-3.3-0.8c-0.6,0.1-1.6,0.3-2.1-0.4
		c-0.4-0.7,0-1.1,0.6-1.4c1.2-0.6,2.5-1.3,3.7-1.8c1.2-0.7,2.4-1.4,3.5-2.2c0.5-0.3,1.3-0.5,1.7,0.2c1.1,2-3.7,2.8-1.2,7.2l1.1,1.7
		c0.9,1.3,1.4,0.9,2.5,0.3l5.3-3c2.5-1.4,3.5-1.8,2.5-4.6c-0.2-0.6-0.5-1.4,0.2-1.9c0.6-0.4,1,0,1.4,0.6c1.2,2.1,2.2,4.3,3.4,6.5
		c1.1,2,2.4,3.9,3.5,5.9c0.3,0.6,0.4,1.1-0.2,1.4c-0.7,0.4-1.2-0.1-1.6-0.6c-2-2.5-2.6-2-5.3-0.5L57,367.5c-2.5,1.4-3.7,1.9-2.6,4.7
		c0.2,0.6,0.7,1.4,0,1.8s-1.1,0.1-1.4-0.5c-2.1-3.8-4.2-7.8-6.3-11.6c-1.5-2.7-3.2-5.3-4.7-8c-0.6-1.1-0.7-1.4,0.4-2.1l4-2.2
		c0.5-0.3,1.2-0.4,1.6,0.2c0.4,0.8-0.3,1.8-0.7,2.5c-0.7,1.2-1.1,1.9-1,3.3c0.1,1.5,1,3,1.7,4.3c0.3,0.5,0.9,1.9,1.6,2.2
		c0.5,0.2,1.2-0.2,1.7-0.4L57,358.5z"/>
	<path class="st0" d="M49.9,309.9c2.7-0.8,3.8-1,3.4-4c-0.1-0.6-0.2-1.5,0.6-1.8c0.7-0.2,1,0.2,1.2,0.8c0.7,2.4,1.3,4.7,2,7.1
		c0.7,2.2,1.5,4.3,2.2,6.5c0.2,0.6,0.2,1.1-0.5,1.4c-0.7,0.2-1.2-0.4-1.4-0.9c-1.4-2.8-2.2-2.5-5.1-1.5l-19.2,6
		c-1.3,0.4-1.3,0.4-0.9,1.7c1,3.1,2.6,3.9,5.6,4.8c0.7,0.2,1.9,0.6,2.2,1.4c0.2,0.6-0.2,1-0.8,1.1c-0.3,0.1-0.7,0.1-1.1,0.1
		l-5.8,0.2c-0.7,0-1.7,0.1-1.9-0.7c-0.2-0.5,0-0.8,0.4-1.1c1.1-0.8,0.8-1.1,0.4-2.3l-5.1-16.3c-0.4-1.4-0.7-2.6-2.2-3
		c-0.5-0.1-1-0.3-1.2-0.8c-0.3-1.1,0.6-1.1,1.4-1.3l6-1.2c0.8-0.1,1.9-0.5,2.2,0.4c0.2,0.8-0.4,1.4-0.9,1.8c-2.9,2.3-3.5,3.2-2.3,7
		c0.4,1.2,0.5,1.2,1.7,0.8L49.9,309.9z"/>
	<path class="st0" d="M32.7,278.3c-0.2-1.6-0.2-1.6-1.9-1.3l-4.6,0.6c-2.9,0.4-4.1,0.3-4.2,3.4c0,0.6,0.1,1.5-0.7,1.6
		c-0.8,0.1-1-0.3-1.1-1c-0.3-2.5-0.5-4.8-0.8-7.3c-0.3-2.3-0.8-4.5-1.1-6.7c-0.1-0.7,0-1.2,0.7-1.3c0.8-0.1,1,0.6,1.1,1.2
		c1,3.1,1.9,2.8,5,2.3l16.8-2.4c2.8-0.4,3.9-0.4,4-3.4c0-0.6,0-1.5,0.9-1.7c0.7-0.1,1,0.4,1.1,1c0.3,2.5,0.5,4.8,0.8,7.3
		c0.3,2.3,0.8,4.5,1.1,6.8c0.1,0.7,0,1.2-0.7,1.3c-0.8,0.1-1.1-0.6-1.3-1.1c-1-3-1.8-2.8-4.8-2.4l-7.2,1c-1.3,0.2-1.1,0.3-0.9,1.6
		l1.2,8.4c0.3,2,0.1,1.9,2,1.6l6.6-0.9c2.8-0.4,3.9-0.4,4-3.4c0-0.6,0-1.5,0.9-1.7c0.7-0.1,1,0.4,1.1,1c0.3,2.5,0.5,4.8,0.8,7.3
		c0.3,2.3,0.8,4.5,1.2,6.8c0.1,0.7,0,1.2-0.7,1.3c-0.8,0.1-1.1-0.6-1.3-1.1c-1-3-1.7-2.8-4.8-2.4l-16.8,2.4
		c-2.9,0.4-4.1,0.3-4.2,3.4c0,0.6,0.1,1.5-0.7,1.6c-0.8,0.1-1-0.3-1.1-1c-0.3-2.5-0.5-4.8-0.8-7.3c-0.3-2.3-0.8-4.5-1.1-6.7
		c-0.1-0.7,0-1.2,0.7-1.3c0.8-0.1,1,0.6,1.1,1.2c1,3.1,1.9,2.8,5,2.3l4.6-0.6c1.7-0.2,1.7-0.3,1.5-1.9L32.7,278.3z"/>
	<path class="st0" d="M28.9,249.2c1.4,0,2.2,0.1,2.3-1.5c0-1,0-3.1-0.2-4c-0.2-1.3-1.3-1.9-2.5-2.3c-0.6-0.2-1.6-0.5-1.5-1.4
		c0-0.8,0.6-0.9,1.2-0.9c1.3,0.1,2.8,0.1,4.1,0.2c1.3,0,2.8-0.1,4.1-0.1c0.6,0,1.3,0.2,1.3,1c0,2.3-4.6,0.6-4.6,5.6l0.1,2
		c0.1,1.6,0.8,1.5,2,1.5l5.6,0.1c1.2,0,3,0,4-0.8c1.1-0.8,1.4-2.4,1.4-3.7c0-3.3-1.3-6.2-4.3-7.7c-0.7-0.3-1.7-0.8-1.7-1.6
		c0-0.8,0.3-1.1,1.1-1c0.4,0,1.7,0.3,2.1,0.4l3.8,0.6c0.6,0.1,0.8,0.2,0.8,0.8c0,3.5-0.3,7-0.3,10.6c0,4.6,0.1,9.2,0,13.7
		c0,0.7-0.2,1.1-0.9,1.1c-0.8,0-1-0.7-1.1-1.3c-0.5-3.2-1.4-3.2-4.3-3.2l-16.9-0.2c-2.8,0-4.3-0.2-4.8,2.9c-0.1,0.6-0.3,1.5-0.7,1.5
		c-0.8,0-1.1-0.5-1.1-1.2c0-2.9,0.3-5.6,0.3-8.5c0.1-5-0.1-9.9,0-14.9c0-1.1,0.8-0.8,1.7-0.8h3.9c0.7,0,1.5-0.1,1.5,1
		c0,0.7-0.8,1.1-1.3,1.5c-0.9,0.6-1.8,1.4-2.5,2.2c-0.9,1-1,2.5-1,3.8c0,0.8,0,3.4,0.4,4.1c0.3,0.6,1.6,0.5,2.2,0.5L28.9,249.2z"/>
	<path class="st0" d="M51.1,190.3c1.5,0.4,2.1,0.5,2.7,2.1c1,3,0.9,6.4,0.2,9.4c-0.9,4.1-2.8,8.7-6.1,11.5c-3.4,3-8.3,4.4-12.8,3.5
		c-4.6-1-8.3-4.2-10.3-8.5c-1.9-4.2-2.1-9.5-1.1-13.9c0.5-2.2,1.4-4.8,2.5-6.8c0.6-1.2,0.8-1.1,2.2-1.1l2.5,0.1c0.5,0,0.9,0,1.4,0.1
		s0.7,0.5,0.6,1.1c-0.5,2.1-6,1.1-7.4,7.4c-0.7,3.1,0.5,6.3,2.6,8.6c2.2,2.4,5.4,3.8,8.5,4.5c3,0.6,6.5,0.7,9.5-0.4
		c3.1-1.2,5.6-3.6,6.3-6.9c0.4-1.8,0.1-3.6-0.7-5.3c-0.9-1.7-2.2-2.8-3.6-4c-0.5-0.3-0.9-0.8-0.7-1.4c0.2-1,1.3-0.8,2-0.6
		L51.1,190.3z"/>
	<path class="st0" d="M54.3,176.4c2.7,0.9,3.7,1.5,5.1-1.2c0.3-0.6,0.7-1.4,1.5-1.1c0.7,0.2,0.7,0.8,0.5,1.4
		c-0.8,2.4-1.7,4.5-2.5,6.9c-0.7,2.2-1.3,4.4-2,6.6c-0.2,0.6-0.5,1-1.2,0.8s-0.7-1-0.6-1.6c0.5-3.1-0.3-3.3-3.2-4.3l-16-5.4
		c-2.8-0.9-3.8-1.6-5.3,1.1c-0.3,0.5-0.6,1.4-1.4,1.1c-0.7-0.2-0.7-0.7-0.5-1.4c0.8-2.4,1.7-4.5,2.5-6.9c0.7-2.2,1.3-4.4,2-6.5
		c0.2-0.6,0.5-1.1,1.2-0.8c0.7,0.2,0.6,1,0.5,1.6c-0.5,3.2,0.4,3.3,3.5,4.3L54.3,176.4z"/>
	<path class="st0" d="M63.3,155.1c2.5,1.2,3.5,1.9,5.2-0.6c0.3-0.5,0.9-1.3,1.6-0.9c0.6,0.3,0.6,0.9,0.3,1.4
		c-1.1,2.2-2.3,4.3-3.3,6.5c-1,2.1-1.8,4.2-2.8,6.3c-0.3,0.6-0.7,1-1.3,0.6c-0.7-0.3-0.6-1.1-0.5-1.6c0.9-3.1,0.1-3.3-2.7-4.6
		l-18.2-8.6c-1.2-0.5-1.2-0.6-1.8,0.6c-1.4,2.9-0.8,4.6,0.8,7.3c0.4,0.6,1,1.8,0.7,2.5c-0.3,0.6-0.8,0.6-1.3,0.3
		c-0.3-0.2-0.6-0.4-0.8-0.7l-4.4-3.8c-0.6-0.5-1.3-1-0.9-1.9c0.2-0.5,0.6-0.6,1.1-0.6c1.4,0.2,1.3-0.2,1.9-1.4l7.3-15.5
		c0.6-1.3,1.3-2.4,0.4-3.7c-0.3-0.4-0.6-0.9-0.3-1.4c0.5-1,1.2-0.4,1.9,0l5.2,3.2c0.7,0.4,1.8,0.9,1.3,1.8c-0.4,0.7-1.2,0.8-1.9,0.7
		c-3.7-0.2-4.7,0-6.4,3.5c-0.5,1.1-0.4,1.2,0.7,1.8L63.3,155.1z"/>
	<path class="st0" d="M67.2,115.1c-0.2-0.6-0.6-1.5-1.2-1.9c-0.8-0.6-1.9-0.1-2.6,0.7c-0.8,0.8-1.2,1.8-1.9,1.3s-0.4-1.3,0-1.8
		c0.8-1.2,1.8-2.2,2.7-3.5c1-1.4,1.9-3,2.9-4.4c0.4-0.5,1.1-1.1,1.8-0.6c0.6,0.4,0.2,0.8-0.1,1.4c-0.4,0.8-0.7,1.7-0.7,2.6
		c0,1.6,1,3.9,1.5,5.4l3.6,9.8l6.4,4.5c2.3,1.6,3.1,2.4,5.2,0.2c0.4-0.5,1.1-1.1,1.8-0.6c0.6,0.4,0.4,1,0.1,1.5
		c-1.4,2-2.9,3.9-4.4,5.9c-1.3,1.9-2.5,3.9-3.8,5.7c-0.4,0.5-0.8,0.8-1.4,0.4c-0.6-0.4-0.4-1.2-0.2-1.7c1.4-2.9,0.6-3.2-1.9-5
		l-5.2-3.6H55.2c-0.9,0-2.1,0-3.1,0.2c-0.8,0.2-1.2,0.3-1.7,0.9c-0.5,0.6-0.9,1.4-1.7,0.8c-0.7-0.5-0.2-1.3,0.2-1.9
		c1.2-1.7,2.5-3.3,3.7-5c1.5-2.1,2.8-4.2,4.2-6.3c0.4-0.6,1-1.5,1.8-0.9s0,1.5-0.4,2.1c-0.3,0.4-0.6,1.5-0.1,1.9
		c0.6,0.4,2.1,0.4,2.8,0.4l9.7,0.1L67.2,115.1z"/>
	<path class="st0" d="M97.4,95.9c0.1,0.3,0.4,1.1,0.6,1.3c0.5,0.5,1.1-0.3,1.4-0.6l3-2.8c0.2-0.2,1.3-0.9,0.9-1.4
		c-0.2-0.2-1-0.5-1.1-0.6L94.3,88L97.4,95.9z M90.5,83.2c-0.6-1.6-1.1-2.3,0.3-3.6c1.1-1.1,1.5-0.6,2.8,0l23,10.3
		c0.7,0.3,1.8,0.8,2.5,1c1,0.2,1.5,0.1,2.2-0.5c0.6-0.5,1.2-1.2,1.9-0.4c0.6,0.7,0,1.4-0.5,1.8c-1.5,1.4-3,2.5-4.4,3.8
		c-1.8,1.6-3.3,3.3-5,4.9c-0.5,0.5-1.2,1-1.8,0.3c-1.1-1.2,2.2-2.5,1.1-3.7c-0.4-0.5-1.1-0.8-1.6-1l-3.8-1.8
		c-1.6-0.8-1.4-0.8-2.7,0.3l-4.6,4.3c-1.2,1.1-1.2,1-0.6,2.5c0.6,1.2,1.2,2.9,2.2,3.9c2.3,2.5,4.4-2.2,5.8-0.7
		c0.6,0.6,0,1.3-0.5,1.8c-1.1,1-2.3,2-3.3,3c-1.1,1-2.1,2.1-3.2,3.1c-0.5,0.5-1.2,0.9-1.8,0.3c-0.5-0.6-0.1-1.1,0.3-1.6
		c0.8-1.1,1.1-1.5,0.8-2.9c-0.3-1.3-1.4-3.7-1.9-5l-2.6-6.6L90.5,83.2z"/>
	<path class="st0" d="M132.6,57.1c-0.5-0.8-1.4-2.1-2.2-2.6c-1.1-0.7-2.1-0.4-3,0.1c-0.7,0.4-1.4,1.2-2,0.3
		c-0.6-0.8,0.3-1.4,0.9-1.8c1.2-0.8,2.4-1.5,3.6-2.3c1.1-0.8,2.3-1.7,3.4-2.4c0.6-0.4,1.2-0.6,1.6,0c0.6,0.9-0.9,1.6-1.5,2.1
		c-1.7,1.5-0.2,3.2,0.9,4.8L147,74c0.7,1.1,1.4,1.7,0.1,2.6c-1,0.7-2.1,0.2-3.1-0.1l-28.8-8.9l8.8,13c0.6,0.9,2,3,2.9,3.6
		c1.2,0.9,2.2,0.6,3.3-0.1c0.6-0.3,1.6-1.1,2.2-0.3c0.5,0.7-0.1,1.3-0.6,1.6c-1.3,0.9-2.5,1.5-3.8,2.4c-1.3,0.9-2.4,1.9-3.6,2.7
		c-0.6,0.4-1.2,0.5-1.6-0.1c-0.6-0.9,0.5-1.5,1.1-1.9c0.8-0.6,1.1-1.2,0.8-2.3c-0.4-1.5-1.9-3.5-2.8-4.9L113.6,69
		c-1-1.5-2.1-3.4-4.1-2.2c-0.7,0.4-1.5,1.1-2.1,0.2c-0.5-0.7,0.3-1.2,0.9-1.6l6.9-4.7c1.6-1.1,1.5-0.9,3.3-0.4l20.8,6.3L132.6,57.1z
		"/>
	<path class="st0" d="M158.9,60.1c1.3,2.9,2.3,5.5,5.9,3.9c2.9-1.3,4.7-4.2,5.2-7.3c0.6-3-0.3-6.6-1.5-9.3c-2.6-5.8-8.6-10.5-15-7.6
		c-3.1,1.4-2.8,2.1-1.5,5.1L158.9,60.1z M145.4,49.3c-1-2.2-1.6-3.8-4-2.5c-0.6,0.3-1.5,1-1.9,0c-0.9-2,10.7-7.8,12.6-8.7
		c4.2-1.9,8.3-3,12.9-2.4c4.9,0.7,8.9,3.4,11,7.9c4.1,8.9-2.1,18.3-10.3,22c-3.6,1.7-7.4,3.1-11,4.8c-0.8,0.4-1.6,0.9-2.4,1.3
		c-0.6,0.3-1.2,0.2-1.5-0.5s0.3-1,0.8-1.4c2.5-1.9,2-2.5,0.7-5.4L145.4,49.3z"/>
	<path class="st0" d="M224.9,43.3c0.2,1.6,0.4,2.2-0.9,3.3c-2.3,2.1-5.5,3.3-8.6,3.9c-4.1,0.8-9.1,0.8-13-1c-4.1-2-7.4-5.9-8.2-10.4
		c-0.9-4.6,0.6-9.3,3.8-12.8c3.1-3.4,7.9-5.6,12.4-6.5c2.2-0.4,4.9-0.6,7.2-0.4c1.3,0.1,1.4,0.3,1.9,1.6l0.8,2.3
		c0.2,0.4,0.4,0.8,0.5,1.3s-0.2,0.9-0.7,1c-2.2,0.4-3.4-5.1-9.7-3.9c-3.1,0.6-5.6,2.9-6.9,5.7c-1.3,2.9-1.4,6.5-0.8,9.6
		c0.6,3,2,6.3,4.1,8.5c2.3,2.4,5.5,3.8,8.9,3.1c1.8-0.4,3.4-1.3,4.6-2.7c1.2-1.5,1.7-3.2,2.2-4.9c0.1-0.6,0.4-1.1,1-1.2
		c1-0.2,1.2,0.9,1.3,1.6L224.9,43.3z"/>
	<path class="st0" d="M253,32.9c-0.2-5.7-3.1-15-10.2-14.8c-6.1,0.2-7.8,8-7.6,12.9c0.1,3.2,0.9,6.5,2.4,9.4
		c1.6,2.9,4.2,5.5,7.7,5.4C251.5,45.6,253.2,37.7,253,32.9 M232.7,44c-3.6-2.6-5.7-7.1-5.8-11.4c-0.1-4.2,1.6-8.2,4.5-11.2
		c3.1-3.3,7.1-4.9,11.6-5c9.1-0.3,17.8,5.3,18.1,15c0.3,9.2-7.4,15.9-16.3,16.1C240.9,47.6,236,46.4,232.7,44"/>
	<path class="st0" d="M292.9,40.1c-0.5,3.3-0.8,6.1-4,8c-2.9,1.8-6.4,1.9-9.8,1.4c-3.1-0.4-6.7-1.5-9.1-3.4
		c-3.1-2.5-3.2-5.5-2.7-9.2l1.8-12.9c0.4-2.9,0.9-4.1-2.1-5c-0.5-0.2-1.5-0.3-1.4-1.1c0.1-0.8,0.6-0.8,1.2-0.7
		c2.5,0.3,4.8,0.9,7.3,1.2c2.3,0.3,4.6,0.4,6.8,0.8c0.7,0.1,1.2,0.3,1.1,1.1c-0.1,0.8-0.9,0.8-1.5,0.8c-3.3,0.1-3.2,1-3.6,4.2
		l-1.5,10.4c-0.3,1.9-0.8,5.8-0.4,7.5c0.7,2.9,3.3,4.4,6.1,4.7c2.5,0.3,5.2,0.1,7-1.7c1.8-1.7,2-4,2.4-6.3l1.7-12
		c0.1-1,0.4-2.8,0.1-3.8c-0.4-1.1-1.3-1.4-2.3-1.7c-0.7-0.2-1.9-0.1-1.7-1.1c0.1-0.9,1-0.8,1.7-0.7c1.4,0.2,2.8,0.5,4.2,0.7
		c1.4,0.2,2.8,0.3,4.2,0.5c0.6,0.1,1.1,0.4,1,1.1c-0.1,0.9-1.1,0.7-1.8,0.7c-1.1,0-1.8,0.1-2.3,1.2c-0.4,0.8-0.6,2.5-0.8,3.3
		L292.9,40.1z"/>
	<path class="st0" d="M327.4,37.1c0.3-0.9,0.7-2.4,0.6-3.3c-0.2-1.3-1-1.8-2-2.3c-0.7-0.3-1.8-0.4-1.5-1.4s1.3-0.6,2-0.4
		c1.4,0.4,2.7,0.9,4,1.3s2.7,0.7,4,1.1c0.7,0.2,1.2,0.5,1,1.3c-0.3,1.1-1.8,0.3-2.6,0.2c-2.2-0.4-2.6,1.9-3.2,3.7L323,58.9
		c-0.4,1.3-0.4,2.2-2,1.7c-1.1-0.3-1.4-1.5-1.8-2.5l-11.1-28l-4.6,15c-0.3,1.1-1.1,3.5-1,4.5c0,1.5,0.9,2.1,2.1,2.5
		c0.6,0.2,1.9,0.5,1.6,1.5c-0.2,0.8-1,0.7-1.7,0.5c-1.5-0.5-2.8-1.1-4.2-1.5c-1.5-0.4-3-0.7-4.4-1.1c-0.6-0.2-1.2-0.6-0.9-1.3
		c0.3-1,1.4-0.6,2.2-0.4c1,0.3,1.7,0.1,2.3-0.8c0.9-1.3,1.6-3.7,2.1-5.2l4.4-14.2c0.5-1.8,1.4-3.8-0.9-4.6c-0.7-0.3-1.8-0.5-1.5-1.5
		c0.2-0.8,1.2-0.5,1.8-0.3l8,2.5c1.8,0.6,1.7,0.6,2.4,2.4l8.1,20.1L327.4,37.1z"/>
	<path class="st0" d="M346,62.9c-1.2,2.5-1.9,3.5,0.6,5.2c0.5,0.4,1.3,0.9,0.9,1.6c-0.3,0.6-0.9,0.6-1.4,0.3
		c-2.2-1.1-4.3-2.3-6.6-3.3c-2.1-1-4.2-1.8-6.3-2.8c-0.6-0.3-1-0.7-0.6-1.3c0.3-0.7,1.1-0.6,1.6-0.4c3.1,0.9,3.3,0.1,4.6-2.7
		l8.7-18.2c0.5-1.2,0.6-1.2-0.6-1.8c-2.9-1.4-4.7-0.8-7.4,0.8c-0.6,0.4-1.8,1-2.5,0.7c-0.6-0.3-0.6-0.8-0.3-1.3
		c0.2-0.3,0.4-0.6,0.7-0.8l3.8-4.4c0.5-0.6,1-1.3,1.9-0.9c0.5,0.2,0.6,0.6,0.5,1.1c-0.2,1.4,0.2,1.3,1.4,1.9l15.5,7.4
		c1.3,0.6,2.3,1.3,3.7,0.4c0.4-0.3,0.9-0.6,1.4-0.3c1,0.5,0.4,1.2,0,1.9l-3.2,5.2c-0.4,0.7-0.9,1.8-1.8,1.3
		c-0.7-0.3-0.8-1.2-0.7-1.9c0.2-3.7,0-4.7-3.5-6.4c-1.1-0.5-1.2-0.4-1.8,0.7L346,62.9z"/>
	<path class="st0" d="M386,66.4c0.6-0.2,1.5-0.7,1.9-1.2c0.6-0.9,0.1-1.9-0.8-2.6c-0.8-0.7-1.8-1.2-1.3-1.9s1.3-0.4,1.8,0
		c1.2,0.8,2.3,1.8,3.5,2.6c1.4,1,3,1.8,4.5,2.8c0.6,0.4,1.1,1.1,0.6,1.8c-0.4,0.6-0.8,0.2-1.4,0c-0.8-0.4-1.7-0.7-2.7-0.7
		c-1.6,0.1-3.9,1-5.4,1.6l-9.7,3.7l-4.4,6.4c-1.6,2.3-2.4,3.2-0.2,5.2c0.5,0.4,1.1,1.1,0.6,1.8c-0.4,0.6-0.9,0.5-1.5,0.1
		c-2.1-1.4-3.9-2.9-6-4.3c-1.9-1.3-3.9-2.4-5.8-3.7c-0.5-0.4-0.8-0.8-0.4-1.4c0.4-0.6,1.1-0.4,1.7-0.2c2.9,1.3,3.2,0.6,5-2l3.6-5.3
		l-0.2-14.6c0-0.9,0-2.1-0.2-3c-0.2-0.8-0.3-1.2-0.9-1.6c-0.6-0.5-1.4-0.9-0.8-1.7c0.5-0.8,1.3-0.2,1.9,0.2c1.7,1.2,3.3,2.5,5,3.6
		c2.1,1.5,4.3,2.7,6.4,4.1c0.6,0.4,1.5,1,0.9,1.8s-1.5,0-2.1-0.4c-0.4-0.3-1.5-0.6-1.9,0s-0.3,2.1-0.3,2.8l0.1,9.7L386,66.4z"/>
	<path class="st0" d="M417.9,109.8c4.1-3.9,9.2-12.3,4.4-17.4c-4.2-4.5-11.1-0.5-14.7,2.8c-2.4,2.2-4.4,5-5.5,8
		c-1.1,3.1-1.4,6.8,1,9.4C407.4,117.1,414.4,113.1,417.9,109.8 M396.2,101.9c-0.4-4.4,1.6-8.9,4.8-11.9c3.1-2.9,7.2-4.2,11.4-4
		c4.5,0.2,8.4,2.1,11.4,5.4c6.2,6.6,7.8,16.9,0.7,23.5c-6.8,6.3-16.8,4.9-22.9-1.6C398.8,110.4,396.5,105.9,396.2,101.9"/>
	<path class="st0" d="M436.2,125.7c-1.2,0.8-1.9,1.2-1,2.6c0.6,0.8,1.7,2.6,2.4,3.2c0.9,1,2.1,0.8,3.4,0.5c0.6-0.2,1.6-0.5,2.1,0.3
		c0.4,0.6,0.1,1.1-0.5,1.5c-1.1,0.7-2.3,1.5-3.5,2.1c-1.1,0.7-2.2,1.6-3.3,2.5c-0.5,0.3-1.2,0.6-1.7-0.1c-1.3-1.9,3.4-3.1,0.6-7.3
		l-1.2-1.6c-1-1.2-1.5-0.8-2.5-0.1l-5.1,3.4c-2.3,1.6-3.4,2.1-2.1,4.8c0.3,0.6,0.6,1.4-0.1,1.9c-0.6,0.4-1,0.1-1.4-0.5
		c-1.4-2.1-2.6-4.1-4-6.2c-1.3-1.9-2.7-3.7-4-5.6c-0.4-0.6-0.5-1.1,0.1-1.5s1.2,0,1.6,0.5c2.2,2.3,2.8,1.7,5.4,0l14.1-9.5
		c2.4-1.6,3.5-2.2,2.2-5c-0.3-0.6-0.8-1.3-0.1-1.8c0.6-0.4,1.1-0.1,1.4,0.4c2.5,3.6,4.8,7.5,7.3,11.1c1.7,2.5,3.6,5,5.3,7.6
		c0.7,1,0.8,1.3-0.3,2.1l-3.8,2.6c-0.5,0.4-1.2,0.5-1.6-0.1c-0.5-0.8,0.2-1.8,0.5-2.5c0.6-1.3,1-2,0.8-3.4c-0.2-1.5-1.2-2.9-2.1-4.2
		c-0.3-0.5-1.1-1.8-1.7-2.1c-0.5-0.2-1.2,0.2-1.6,0.5L436.2,125.7z"/>
	<path class="st0" d="M465.1,169.9c-0.7,0.3-1.6,0.8-2-0.2c-0.3-0.8,0.2-1.3,0.7-1.7c2.1-1.8,3.9-4.1,2.7-7c-0.9-2.3-3.5-4.4-6-3.3
		c-2.3,1-2.3,3.5-2.1,5.6l0.2,2.6c0.4,5-0.4,9.4-5.5,11.5c-2.8,1.1-5.9,0.7-8.5-0.6c-2.8-1.5-4.8-4.1-6-7c-0.9-2.1-1.8-5.8-1.6-8
		c0.1-1.7,0.7-1.8,2.2-2.4l2.4-1c0.7-0.3,2.3-1.1,2.7-0.1c0.4,1.1-0.8,1.8-1.5,2.4c-1.2,1-2.3,1.8-2.9,3.3c-0.7,1.7-0.4,3.6,0.3,5.2
		c1.1,2.8,4,5.4,7.1,4.1c3.6-1.5,3-5.7,3-8.9c0-4.1,0.2-9.2,4.6-11c5.8-2.4,11.5,2.7,13.6,7.8c0.6,1.5,1.4,4.5,1.2,6.2
		c-0.1,1-0.8,1.2-1.7,1.5L465.1,169.9z"/>
	<path class="st0" d="M460.5,187.5c-0.3,0-1.1-0.2-1.4-0.1c-0.7,0.2-0.2,1.1-0.1,1.5l1,4c0.1,0.3,0.2,1.6,0.8,1.4
		c0.2-0.1,0.9-0.6,1-0.7l7.1-5.1L460.5,187.5z M474.9,187.5c1.7,0.3,2.5,0.1,3,1.9c0.4,1.5-0.2,1.6-1.3,2.5l-20,15.3
		c-0.6,0.5-1.6,1.2-2.1,1.8c-0.6,0.8-0.8,1.2-0.6,2.2c0.2,0.8,0.5,1.6-0.5,1.9c-0.9,0.2-1.2-0.7-1.4-1.3c-0.5-1.9-0.8-3.8-1.3-5.7
		c-0.6-2.3-1.3-4.5-1.9-6.7c-0.2-0.6-0.3-1.5,0.6-1.7c1.6-0.4,1.1,3.2,2.8,2.7c0.6-0.2,1.2-0.6,1.6-0.9l3.4-2.4c1.5-1,1.4-0.8,1-2.5
		l-1.5-6.1c-0.4-1.6-0.3-1.5-1.9-1.7c-1.3-0.1-3.1-0.3-4.5,0.1c-3.3,0.8-0.1,4.9-2.2,5.4c-0.8,0.2-1.2-0.6-1.4-1.3
		c-0.4-1.4-0.6-2.9-1-4.4c-0.4-1.4-0.8-2.9-1.2-4.3c-0.2-0.7-0.2-1.5,0.6-1.7s1.1,0.5,1.3,1.1c0.6,1.3,0.8,1.7,2.2,2.1
		c1.3,0.3,3.9,0.5,5.3,0.7l7,0.9L474.9,187.5z"/>
	<path class="st0" d="M477.8,236.8c0.9-0.1,2.5-0.3,3.3-0.7c1.1-0.6,1.3-1.6,1.4-2.7c0-0.8-0.4-1.8,0.7-1.9c1-0.1,1.1,0.9,1.2,1.7
		c0.1,1.4,0.2,2.8,0.3,4.2c0.1,1.4,0.4,2.8,0.5,4.2c0.1,0.7,0,1.3-0.8,1.4c-1.1,0.1-1-1.5-1.1-2.3c-0.5-2.2-2.8-1.7-4.6-1.5
		l-22.5,2.3c-1.3,0.1-2.1,0.5-2.3-1.2c-0.1-1.2,0.8-1.9,1.6-2.7l21.5-21.1l-15.7,1.6c-1.1,0.1-3.6,0.4-4.6,0.8
		c-1.4,0.6-1.6,1.6-1.5,2.9c0,0.7,0.2,2-0.8,2.1c-0.8,0.1-1.1-0.7-1.1-1.3c-0.2-1.5-0.1-3-0.3-4.5s-0.5-3-0.6-4.5
		c-0.1-0.7,0.1-1.3,0.9-1.4c1-0.1,1.1,1.1,1.2,1.8c0.2,1,0.5,1.6,1.6,1.8c1.5,0.4,4,0,5.6-0.2l14.7-1.5c1.8-0.2,4-0.2,3.9-2.6
		c0-0.8-0.2-1.8,0.8-2c0.9-0.1,1,0.9,1,1.5l0.8,8.3c0.2,1.9,0.1,1.8-1.3,3.1l-15.4,15.3L477.8,236.8z"/>
	<path class="st0" d="M472.8,273.5c-1.4-0.1-2.2-0.3-2.4,1.3c-0.1,1-0.3,3.1-0.2,4c0.1,1.4,1.1,2,2.3,2.5c0.6,0.2,1.5,0.7,1.4,1.5
		s-0.7,0.9-1.3,0.8c-1.3-0.2-2.7-0.4-4.1-0.6c-1.3-0.1-2.8-0.2-4.1-0.2c-0.6-0.1-1.3-0.3-1.2-1.1c0.2-2.3,4.6-0.2,5.1-5.2l0.1-2.1
		c0.1-1.6-0.6-1.5-1.9-1.7l-6.1-0.6c-2.8-0.3-3.9-0.6-4.7,2.4c-0.2,0.6-0.4,1.5-1.2,1.4c-0.7-0.1-0.8-0.6-0.8-1.2
		c0.2-2.5,0.7-4.8,0.9-7.3c0.2-2.3,0.2-4.6,0.5-6.8c0.1-0.7,0.3-1.1,1-1.1c0.8,0.1,0.9,0.8,1,1.4c0.2,3.2,1,3.1,4.1,3.4l16.9,1.6
		c2.8,0.3,4.1,0.6,4.9-2.4c0.2-0.6,0.2-1.5,1-1.4s0.9,0.6,0.8,1.2c-0.4,4.4-1,8.8-1.5,13.2c-0.3,3-0.4,6.2-0.7,9.2
		c-0.1,1.2-0.2,1.6-1.5,1.4l-4.5-0.2c-0.6-0.1-1.3-0.4-1.2-1.1c0.1-0.9,1.3-1.3,2-1.7c1.3-0.6,2-0.9,2.8-2.1c0.8-1.3,0.9-3,1.1-4.5
		c0.1-0.6,0.3-2.1,0-2.7c-0.3-0.5-1.1-0.6-1.6-0.6L472.8,273.5z"/>
	<path class="st0" d="M467.8,302.3c-1.1-0.3-2-0.8-2.3,0.5c-0.4,1.4-0.5,2.9,0.1,4.3c0.7,1.7,2.3,2.9,4,3.3c3,0.7,6.2-0.4,7-3.7
		c0.2-0.7,0.2-2-0.4-2.3c-0.5-0.2-1.6-0.4-2.2-0.5L467.8,302.3z M451.2,314.2c-2,0.4-3,0.4-3.9,2.4c-0.3,0.5-0.6,0.9-1.2,0.7
		c-0.8-0.2-0.7-1-0.5-1.6c0.3-1.3,0.7-2.5,1-3.8s0.5-2.6,0.9-3.9c0.3-1.1,0.8-1,1.9-1.2l9.5-2.2c1-0.2,3.1-0.7,4-1.3
		c0.5-0.3,0.7-0.9,0.8-1.5c0.2-0.9-0.4-0.8-1.4-1l-6.2-1.5c-2.7-0.7-3.8-1.1-5,1.7c-0.2,0.6-0.6,1.4-1.4,1.2
		c-0.7-0.2-0.8-0.7-0.6-1.3c0.6-2.4,1.4-4.7,1.9-7.1c0.6-2.2,0.9-4.5,1.5-6.7c0.2-0.6,0.5-1.1,1.1-0.9c0.7,0.2,0.8,0.9,0.8,1.5
		c-0.2,3.2,0.6,3.2,3.6,4l16.5,4.1c2.7,0.7,4,1.3,5.1-1.4c0.2-0.6,0.4-1.5,1.2-1.3s0.8,0.8,0.7,1.5c-0.5,2.1-1.2,4.2-1.8,6.3
		c-0.9,3.6-1.6,7.2-2.5,10.7c-0.5,2-1.3,4.1-2.9,5.4c-1.8,1.4-4.1,1.9-6.3,1.3c-4.4-1.1-5.5-5.5-4.8-9.5c-0.9,2.6-2.9,3.2-5.3,3.8
		L451.2,314.2z"/>
	<path class="st0" d="M453.2,333.9c-0.2-0.2-0.8-0.8-1.1-1c-0.6-0.3-0.9,0.7-1.1,1.1l-1.8,3.7c-0.2,0.3-0.9,1.3-0.3,1.6
		c0.2,0.1,1.1,0.1,1.3,0.1l8.7,0.7L453.2,333.9z M464.2,343.2c1.1,1.3,1.9,1.7,1.1,3.4c-0.7,1.4-1.2,1.1-2.6,1.1l-25.1-1.2
		c-0.8-0.1-2-0.1-2.7,0c-1,0.2-1.4,0.4-1.9,1.3c-0.4,0.7-0.7,1.6-1.6,1.1c-0.9-0.4-0.5-1.3-0.2-1.9c0.9-1.8,1.9-3.4,2.7-5.1
		c1-2.1,1.9-4.3,2.8-6.4c0.3-0.6,0.8-1.3,1.6-0.9c1.5,0.7-1.2,3.1,0.4,3.9c0.6,0.3,1.3,0.3,1.8,0.4l4.1,0.3c1.8,0.2,1.6,0.3,2.4-1.3
		l2.7-5.6c0.7-1.5,0.8-1.3-0.4-2.5c-1-0.9-2.2-2.2-3.5-2.8c-3-1.5-3.2,3.7-5.2,2.7c-0.8-0.4-0.5-1.2-0.2-1.8c0.6-1.3,1.4-2.7,2-4
		s1.2-2.8,1.9-4.1c0.3-0.6,0.8-1.3,1.5-0.9s0.5,1,0.3,1.6c-0.4,1.4-0.5,1.8,0.3,3c0.8,1.1,2.6,2.9,3.6,4l4.8,5.2L464.2,343.2z"/>
	<path class="st0" d="M432,386.2c0.8,0.5,2.1,1.5,3,1.6c1.2,0.2,2.1-0.3,2.8-1.2c0.5-0.6,0.9-1.6,1.8-1c0.8,0.6,0.2,1.4-0.2,2
		c-0.8,1.2-1.7,2.2-2.5,3.4c-0.8,1.1-1.5,2.3-2.3,3.5c-0.4,0.6-0.9,1-1.6,0.5c-0.9-0.7,0.3-1.8,0.7-2.5c1.1-2-1-3.1-2.5-4.2
		l-18.6-12.9c-1.1-0.8-1.9-1.1-1-2.4c0.7-1,1.9-0.9,3-0.9l30.1-1.8l-12.8-9.1c-0.9-0.7-3-2.1-4-2.4c-1.4-0.4-2.2,0.2-3.1,1.2
		c-0.4,0.5-1.1,1.7-2,1.1c-0.7-0.5-0.4-1.2,0-1.7c0.9-1.2,1.9-2.3,2.8-3.5s1.6-2.6,2.5-3.8c0.4-0.5,0.9-0.9,1.6-0.5
		c0.8,0.6,0.1,1.5-0.3,2.2c-0.6,0.9-0.6,1.5,0,2.5c0.9,1.3,3,2.7,4.3,3.6l12.1,8.6c1.5,1.1,3.2,2.5,4.7,0.6c0.5-0.6,1-1.5,1.9-0.9
		c0.7,0.5,0.2,1.3-0.2,1.8l-4.8,6.8c-1.1,1.6-1.1,1.4-3,1.5l-21.6,1.4L432,386.2z"/>
	<path class="st0" d="M392,403c-1.1-1.2-1.5-1.6-1.1-3.2c0.7-3,2.6-5.9,4.7-8.1c2.9-3,7-5.9,11.2-6.6c4.5-0.7,9.4,0.7,12.7,3.8
		c3.4,3.3,4.8,8,4.3,12.6c-0.6,4.6-3.2,9.1-6.4,12.4c-1.5,1.6-3.7,3.3-5.7,4.5c-1.2,0.7-1.3,0.5-2.4-0.2l-2-1.4
		c-0.4-0.3-0.8-0.5-1.1-0.8c-0.4-0.4-0.3-0.8,0-1.2c1.5-1.6,5.7,2.2,10.2-2.4c2.2-2.3,2.9-5.6,2.4-8.6c-0.6-3.2-2.6-6.1-4.8-8.3
		c-2.2-2.1-5.2-4-8.3-4.6c-3.3-0.6-6.7,0.1-9,2.5c-1.3,1.3-2,3-2.2,4.9c-0.1,1.9,0.4,3.6,1,5.3c0.2,0.5,0.3,1.1-0.1,1.5
		c-0.7,0.8-1.5,0-2-0.6L392,403z"/>
	<path class="st0" d="M381.6,413.5c-1.8-2.2-2.4-3.2-5-1.6c-0.5,0.3-1.3,0.8-1.9,0.1c-0.5-0.5-0.2-1,0.3-1.4
		c1.9-1.6,3.9-2.9,5.8-4.5c1.8-1.5,3.4-3.1,5.2-4.5c0.5-0.4,1-0.6,1.5,0s0.1,1.2-0.3,1.7c-2.1,2.4-1.5,2.9,0.5,5.3l10.7,13.1
		c1.8,2.3,2.4,3.4,5.1,1.9c0.5-0.3,1.3-0.9,1.8-0.2c0.5,0.6,0.2,1-0.3,1.4c-1.9,1.6-3.9,2.9-5.8,4.5c-1.8,1.5-3.4,3.1-5.1,4.5
		c-0.5,0.4-1,0.6-1.5,0.1c-0.5-0.6,0-1.1,0.4-1.6c2.2-2.5,1.4-3.1-0.7-5.5L381.6,413.5z"/>
	<path class="st0" d="M369.7,443.3c-0.4-0.6-1.1-1.5-0.2-2c0.7-0.5,1.3,0,1.8,0.4c2.2,1.7,4.8,3,7.4,1.3c2.1-1.4,3.6-4.3,2.1-6.6
		c-1.4-2.1-3.9-1.6-5.9-1l-2.5,0.7c-4.8,1.4-9.3,1.4-12.4-3.2c-1.7-2.5-1.8-5.6-1-8.5c0.9-3.1,3.1-5.5,5.7-7.2
		c1.9-1.3,5.3-2.8,7.6-3.1c1.7-0.2,1.9,0.4,2.8,1.7l1.5,2.2c0.4,0.6,1.6,2,0.6,2.7c-1,0.6-1.9-0.4-2.6-1c-1.2-1-2.2-1.9-3.8-2.2
		c-1.8-0.3-3.6,0.3-5.1,1.3c-2.5,1.7-4.5,4.9-2.6,7.8c2.1,3.2,6.2,1.9,9.3,1.2c4-0.8,9-1.5,11.7,2.4c3.5,5.2-0.4,11.8-5,14.9
		c-1.4,0.9-4.2,2.2-5.8,2.4c-1,0.1-1.3-0.6-1.8-1.4L369.7,443.3z"/>
	<path class="st0" d="M328.8,442.6c-0.6-1.5-0.9-2,0-3.4c1.7-2.6,4.5-4.6,7.3-6c3.8-1.8,8.6-3.1,12.8-2.3c4.4,0.9,8.6,3.9,10.6,8
		c2.1,4.2,1.8,9.1-0.4,13.3c-2.2,4.1-6.2,7.4-10.3,9.4c-2,1-4.6,1.8-6.9,2.2c-1.3,0.2-1.4,0-2.2-1.1l-1.4-2
		c-0.3-0.4-0.6-0.7-0.8-1.2c-0.2-0.5,0-0.9,0.5-1.1c2-1,4.6,4.1,10.4,1.3c2.8-1.4,4.7-4.2,5.2-7.3c0.5-3.2-0.3-6.6-1.7-9.5
		c-1.4-2.8-3.5-5.6-6.1-7.2c-2.9-1.7-6.3-2.3-9.4-0.8c-1.7,0.8-2.9,2.2-3.7,3.8c-0.8,1.7-0.8,3.5-0.9,5.3c0,0.6-0.1,1.1-0.6,1.4
		c-0.9,0.5-1.4-0.5-1.7-1.2L328.8,442.6z"/>
	<path class="st0" d="M304.5,459.7c1.6,5.4,6.8,13.7,13.6,11.7c5.8-1.7,5.5-9.7,4.1-14.4c-0.9-3.1-2.5-6.1-4.7-8.5
		c-2.3-2.4-5.5-4.3-8.9-3.3C302.7,447.1,303.1,455.1,304.5,459.7 M321.3,443.8c4.1,1.6,7.3,5.4,8.5,9.6c1.2,4,0.6,8.3-1.5,12
		c-2.2,4-5.6,6.5-10,7.8c-8.7,2.6-18.6-0.6-21.3-9.9c-2.6-8.9,3.1-17.2,11.7-19.7C312.5,442.4,317.6,442.3,321.3,443.8"/>
</g>
</svg>
