<?xml version="1.0" encoding="utf-8"?>
<!-- Generator: Adobe Illustrator 26.3.1, SVG Export Plug-In . SVG Version: 6.00 Build 0)  -->
<svg version="1.1" id="layer" xmlns="http://www.w3.org/2000/svg" xmlns:xlink="http://www.w3.org/1999/xlink" x="0px" y="0px"
	 viewBox="0 0 503.2 500" style="enable-background:new 0 0 503.2 500;" xml:space="preserve">
<style type="text/css">
	.st0{fill:#231815;}
</style>
<g>
	<path class="st0" d="M480.4,145.2C460,101.8,421.6,57.3,377.9,33.4c-72.8-44.7-187.2-45.5-258.7,3.2
		C27.6,93.8-14.2,193.9,4.3,299.6C19.2,390.1,105,477,195,494.2c100.6,20.4,195.7-14,258.7-94.8
		C507.4,332.4,519.1,222.8,480.4,145.2z M225.4,494.2C134.3,487,42.2,413.4,16.5,325C-14,227.8,15.7,125.9,93.8,60.7
		c65.7-56.4,170.5-72.6,251-37.6c46.1,17.5,92.5,55.9,118.4,100.4c46.1,69.6,46.1,181.1,1.3,251
		C412.1,458.7,324.4,502.7,225.4,494.2z"/>
	<path class="st0" d="M421.9,334.5c29.7-53.5,24.9-133.7-8.2-184.3c-23.3-37.8-62-67.5-101.7-79.9C233.1,43.5,149.1,70,98.3,135.7
		c-39.5,49.5-48.5,126-24.1,185.6C97.8,383,163,431.1,227.3,437.5C308.8,447.6,383.5,406.3,421.9,334.5z M263,432.5
		c1.9-1.3,4.5-0.5,6.9-0.8C268.1,433,265.4,432.2,263,432.5z M394.7,366.4c-1.1-2.9-4.2,0.5-5.8-0.5l2.6-2.6
		c-3.4,0.3-8.7-0.8-10.3,3.2c2.6,4.2,7.4,0.3,11.4,1.8c-5.6,12.2-22,4.8-31.8,7.7c6.9,4.2,15.6,0,23,1.3c-3.4,9.5-14.8,2.9-23,5.8
		c0,1.3,0.3,2.4,1.3,3.2c5-0.5,10.1-1.9,14.6-1.3c-2.4,7.4-10.9,2.4-14.6,5.6c2.1,2.4,3.4,1.1,6.4,1.3c-3.4,3.4-5.6,4.5-10.9,4
		c6.9-5.6,0.3-14.6,1.3-22.2c-4.2-2.4-8.5,3.2-13.3,3.2c-15.6,5.6-33.4,0.8-47.1-5.8c2.9-3.4,9.3,1.6,13.5-1.9
		c-6.1-2.4-11.1-0.8-18-1.3c-1.6,4-10.9,1.1-11.9,8.2c-5.6,5.6,0.5,24.9-14,17.2c-2.7-1.9-6.1-2.4-8.2-5.8c1.9-1.3,4-2.1,5.6-4.2
		c4,2.6,8.5,0,12.7,0V382h-10.1c2.6-5.3,11.6-1.9,12.2-6.4h-2.1c9-4.8,16.9-14,28.1-12.2c-0.8-2.4-4.2-0.8-6.4-1.3
		c7.2-11.4,20.4-1.6,29.1-3.7c2.4,4.2-2.1,10.6,4,14c2.4-0.5,6.4,1.1,7.7-1.3c5,1.6,13,2.4,17.7-0.5c-0.1-2.3-1.4-3.6-3.2-4.5
		c0,0,0,0,0,0c-1.6,0.1-2.7-0.4-3.4-1.3c-4-1.4-7.9-2.8-4.8-10.1c1.6-0.5,3.4,0,4.2,2.4c-0.8,2.2-1,5.8,0.6,7.7
		c1.2,0.4,2.4,0.8,3.4,1.3c1.6-0.5,5.3,1.1,6.9-1.3c4.8,1.6,12.7,2.4,16.7-0.5c0.5-7.7-15.4-2.9-10.9-12.7c2.3,2,6.9,0.9,9.2,1.1
		c0.2-0.2,0.4-0.3,0.6-0.5l1.4-1.9l-1.8-1.8c2.9-1.5,2.4,0.9,3.2,2.7c-0.5,0.5-1.8,0.5-2.8,1l-0.4,0.5c-0.1,0-0.2,0-0.3,0
		c-0.4,0.4-0.6,0.9-0.5,1.7c0.3,0.5-0.3,0.8-0.5,1.1c2.1,2.9,4.8,0.3,6.9,0.8c1.6-3.7,2.9,1.6,5.3,0h13.8L394.7,366.4z M301.6,417.2
		c-26.5-5.8-57.2-2.6-84,0.8c-10.3,0-3.7-14-5.6-18.5c32.6,0.5,66.5-6.9,99.8,1.3l0.7-0.8C311.7,405.8,315.9,422.8,301.6,417.2z
		 M131,283.7c2.9,2.4,4.5,5.3,3.7,9c-1.6-0.8-2.1-3.4-4.5-4c-0.3-0.5,0.3-0.8,0.8-1.1c-0.5-0.8-1.3-0.8-2.1-0.8
		c-2.1,4.5,4.8,7.4,4,12.2l-5.8-5.8c-2.7,5,5,6.1,4.5,10.9c-0.5-0.3-0.8,0.3-1.3,0.5c-0.8-1.6-2.1-4-4.5-5c-2.4,4.2,4.2,7.2,2.6,9.5
		c-2.6-1.3-4.2-1.6-6.9-0.5c1.6-11.1,2.4-20.1,5.6-30.5c2.4-3.2,0.8-6.4,4-9.5c1.6,0.3-1.6,6.4,2.2,6.4c-2.1,2.4,2.4,4,2.6,5.6
		l-2.6,1.3c-1.3,0,0.3-2.9-1.8-2.7C129.1,280.3,131,282.4,131,283.7z M129.5,318.6c-2.6,1.1-9-1.9-12.2,0c-1.3-2.1-0.5-5,0.8-6.9
		c5.4,0.6,10.6,1.4,15.9,1.9c-1.8,0.5-4.2-1.1-5.3,1.3L129.5,318.6z M123.7,324.5c1.3,8.7-0.3,17.2,4,25.4c0.8,2.6-2.1,5.6-3.2,8.2
		C126.9,350.9,123.7,336.4,123.7,324.5z M107.9,342.7c-1.6,0.3-2.1-3.4-2.4-3.7l12.7,0.5v1.4C114.2,342.5,108.9,336.1,107.9,342.7z
		 M114.2,345.4v1.3c-2.9,1.1-3.2-1.9-5.6-1.9C108.6,342,115,341.7,114.2,345.4z M108.6,352.3c0,1.3-1.8,0.5-2.6,0.8l-0.5-1.8
		C106.5,351.5,107,352.8,108.6,352.3z M119.2,355.4v3.2h-1.8C116.9,357,117.9,356,119.2,355.4z M112.8,227.2
		c3.2-0.2,5.9,1.2,7.7,3.8c0,0.8-4-0.5-1.8,1.8c-4.2-0.5-6.1,6.6-10.1,1.3l4.2-0.5C112.5,231.5,108.8,228,112.8,227.2z M136.4,208.7
		c1.1,1.3-0.3,4.2,1.9,4.5c1.3-0.8,1.6-1.8,1.3-3.2c1.3,2.1,1.6,5,3.2,6.4c4-2.4-0.5-6.1,0-9.5c4,2.6,2.1,3.4,2.6,7.7
		c-4.2,5.6-9,10.1-15.4,12.7c-1.3-2.1,2.9-5.3-1.3-5.3c-0.8-1.3,2.1-2.1,0-3.2c-3.7-0.5,0,5.3-4.2,4.5c0,1.3,1.8,2.1,1.1,4
		c-4,2.6-6.4-2.4-10.1-2.7c4.8-4.8,7.7-16.4,17.2-14.6c0,4.5,1.9,9.5,5.6,11.4C139.1,217.4,133.5,213.7,136.4,208.7z M142.3,187.1
		c0.8,1.9,6.9,3.4,7.7-1.1c-1.3-3.4-5-1.9-7.1-1.3c4.4-1.9,12.1-1.9,17.1,0c0.5,4.5-0.5,9-3.7,11.4c-1.1-0.3-2.1-0.8-3.2-0.5
		c-0.3-1.1,0.8-3.4-2.1-3.2c-1.3-0.3-2.4,0-3.2,1.1c0,0.8,0.5,1.1,0.8,1.3c-0.5,1.3-1.8,0.5-2.6,0.8
		C145.7,191.9,140.4,191.9,142.3,187.1z M135.1,178.8c11.9-3.7,26.2-1.6,37.1,3.2C161.9,178,144.7,176.4,135.1,178.8z M157.3,221.4
		l9-10.1c2.1-0.8-2.1,1.6-1.3,3.2l4.5-1.3c-1.1,0.5-0.5,1.6-0.5,2.4c1.9,0.8,3.4-0.8,5.6,0.8c1.1,2.9,3.4,6.9,1.3,9.5
		c1.3,1.1,1.8,2.1,1.8,3.7h-0.5c3.2,1.8-1.6,6.1,1.3,7.7c-3.4,2.9-8.7,5.8-10.9-0.5c-1.3-4,0.3-10.1-1.8-12.7
		c-1.3,11.9-0.8,21.4-2.7,32.8c-0.5,0-0.8,0.5-1.3,0.8c-2.9-9.8-4.2-20.4-6.4-30.5c5.3-3.7-1.6-7.2-0.5-11.6
		c-1.6-1.1-2.4-2.4-1.9-4.2c0.5,0.5,0,2.1,1.9,3.2c1.6-0.8,3.2-2.4,3.7-4l-1.3-1.3l2.6-3.2c0.9,0.5-1.8,3.7,0.6,4.5l2.6-2.4
		C165.8,213.8,154.1,216.4,157.3,221.4z M182.2,246.3c-4,2.1-9,6.4-14.6,3.7c0-1.3,1.8-2.4,1.3-4.5c-0.8-2.9,8.7-1.9,11.9-5.6
		l0.9,0.6c-0.3,3.2-5.3,1.8-5.3,5.8H182.2z M177.7,260.1c-1.1,1.6-0.3,5-3.2,4.5c2.1,0.5,1.3,4,0,5l-3.2,23c-2.1,1.3-4,3.2-6.9,2.4
		c-8-4.8,6.6-7.7,2.4-13.3c10.1-6.9-4-25.4,9.5-28.1c-0.9,0.7,0.4,3.6,2.2,3.4l-2.6,2.6C176.2,260.4,177,260.1,177.7,260.1z
		 M204.5,354.4c-8.2-7.4-16.2-20.1-24.1-29.9l1.3-1.9C188.9,332.7,198.1,343.3,204.5,354.4z M194.4,333.2l2.4,4L194.4,333.2z
		 M214.6,317.1c-4.5,1.3-9.3,0-12.7,1.3c-0.3-1.6-1.6-2.7-1.1-4.5c5.8-3.2,9.8,0.3,16.4,1.3c1.1-1.6,3.7,0.5,4.5-1.9
		c-1.8-4.2-5-0.5-7.7-0.8c-1.8-6.1-9.3-5-14-5.6c2.1-0.5,9,1.1,12.2-1.3c-2.1-4.5-2.1-11.1-8.2-12.2c-1.1-3.3-0.1-8.7-5.4-9.4
		c-0.1,0-0.3,0-0.4-0.1c0.1,0,0.3,0,0.4,0.1c0.3-0.1,0.5-0.4,0.9-0.6c-0.3-0.8,0.5-2.1-0.8-2.6c-4-1.3-1.6,4.5-5,4
		c-3.2-19.9-4.5-42.9-1.3-63c40.4-6.4,85.4-8.5,124.6,1.5c0.8,10.6,0.8,22.5,0,33.1c-14.8,6.1-36.5-5.6-45.8,10.1
		c0.3,0.3-2.6-0.3-3.2,1.3v1.9c-5.6-1.3-7.1,2.6-11.4,4.5l0.5,0.8c-2.9,1.6-6.1-1.3-7.7,2.4c-4-2.6-8.7-7.4-8.2-13.2l-1.3-1.3
		c-6.4,8.7-10.9,19.3-18.3,28.1c-1.8,0.8-2.6-2.1-4,0c3.2,3.7,9,5,11.6,10.1c-0.5,0.5-1.6,1.1-1.3,1.9c5.6,3.2,11.9-0.5,18.3,0.8
		c4.8,10.3,19.1,1.1,28.6,5c2.1,0.3,3.4-0.5,4.5-1.8c-1.1-2.4-3.4,0-5.6-0.8c0.3-0.8-1.1-1.3-1.3-1.8l9.5-1.3
		c-3.7-1.6,1.3-6.4-0.8-9.5c2.1-0.5,5.6,1.3,5.8-1.8c0.3-2.9-3.2-1.8-4.5-3.7c-3.4,1.3-3.2,10.6-9.5,6.4c-1.3-2.9-2.9-5.6-4.5-8.5
		c2.1-0.3,4.8,1.1,5.8-1.1c-1.1-3.2-7.7-3.4-6.9-7.7c8.7,0.8,22.2,7.1,30.5-0.8c0.8,3.2,5.6,2.1,8.2,4l6.9,1.3
		c2.1,6.9-6.9,0.5-9.5,4.2l8.5,2.1c-1.6,2.1-5.3,1.9-8.5,1.9c-1.6-2.9,1.6-9.5-4.2-9c-3.7,2.6-1.3,7.7-2.1,11.4
		c-3.7,2.6-4.8,7.1-6.9,10.9c2.4,2.9,8.2-0.8,9.5,3.2c2.1,1.3,5,0.5,7.7,0.8c-7.4,21.7-7.9,51.9-34.4,60.4
		c-0.3-9.8-11.4-2.4-18.3-6.4c-0.8,0.3-0.8,1.1-0.8,1.8c4.5,2.9,10.6,2.1,15.9,3.2v1.3c-7.9,0.5-16.7-0.8-24.1-3.2v-2.1
		c1.1,0,2.4,0.5,3.2-0.5c0.3-0.8-0.8-1.3-1.3-1.8c1.9,0.5,2.9,2.4,4.5,3.7c1.3-10.3,2.7-20.7,3.7-31c-6.9,4.8-15.9,13-25.4,16.4
		c-0.8,1.3,0.8,4.2,3.2,3.2h2.1l-0.8,4.5c-6.6-1.3-13.5-2.7-20.4-4c5.8,1.3,10.1-2.1,14-3.7c-6.1-3.4-16.9,7.4-16.4-3.7
		c3.7,1.6,7.7-0.3,11.4-1.3l3.2-4c-2.1-1.8-5.3,0.3-7.7,1.3c-0.3,4.2-4.8,1.1-8.2,1.8c-2.6-7.4-6.9-14.6-8.2-22.8
		c3.4,1.3,10.1,0.5,13.3-0.5C216.4,318.5,215.4,317.9,214.6,317.1z M200,293.3c-4.5,1.3-5.8-2.6-5-6.4c2.3-0.3,5.5,0.2,5.8,3.2
		C200.3,291.2,199.7,292.2,200,293.3z M306.7,260.9c2.7-1.1,5.8-1.6,9-1.3v0.5L306.7,260.9z M315.2,264.6v1.3
		c-3.2-1.3-6.6,2.9-7.7-1.9C309.6,263.3,313.3,262.5,315.2,264.6z M301.7,266c-3.2-1.3-4.5,2.4-7.7,1.3
		C296.6,264.6,298.5,264.4,301.7,266z M284.5,262.8c1.8-4,6.3-0.5,9.5-0.5C291.1,263.4,288.4,262.6,284.5,262.8z M267.9,296.3
		l0.1,0.1L267.9,296.3c-0.6-0.2-2.6,1.8-3.6,0.1l1.9-1.8L267.9,296.3z M267.5,287.7l3.2,6.4L267.5,287.7z M254.8,294
		c0.3-1,1.9-3.9,3.2-2.1v2.1H254.8z M256.7,297.7l-2.6,2.6l-0.5-4C254.8,295.9,255.6,297.2,256.7,297.7z M253.4,287.6
		c-1.8-7.1,7.2-6.8,10.9-10.3c0.8,4.2-11.6,4.8-4,8.2h1.8c0.3,1.1-0.8,2.1-1.8,2.1H253.4z M264.9,291.9c-1.6,2.1-4,0.8-4.5-1.1
		C262.2,290.3,263.5,291.4,264.9,291.9z M246.3,285c-1.8-1.3-3.7-4.8-3.7-6.9h5.8C245,279.2,246.8,282.6,246.3,285z M241.3,286.3v-5
		l2.6,5H241.3z M243.1,294h-1.8v-2.6L243.1,294z M241.3,275.5v-3.7l2.6,3.2C243.4,276.1,242.1,275.3,241.3,275.5z M245.8,289.5v3.7
		l-2.6-3.7H245.8z M238.9,285l-1.3,1.3c-0.5-0.8-1.3-0.5-1.8-0.8l2.4-4.2C239.4,282.1,238.7,283.7,238.9,285z M236.8,290
		c-1.1,5-6.9,5-11.4,4l-1.3-1.3c3.4-5.3,5.5-13,12.2-14.6C238.7,282.1,226,290,236.8,290z M236.3,275.5l1.8-4.5c0,1.6,1.6,3.2,0,4.5
		H236.3z M302.5,297.7c-2.1,0.3-4.8-0.5-6.4,0.5c-0.5,1.3,0.5,2.7,1.9,2.1h2.4c-1.3,1.1-3.7,0.3-5.6,0.5c0.8-3.4,2.9-6.1,5.6-7.7
		c2.9,0.9,4.2-1.2,7.1-0.4C305.7,294.3,298.8,294,302.5,297.7z M304.9,301.4l3.1,1.4h-3.1V301.4z M305.6,299.6
		c0.3-1.3,2.4-2.7,3.8-1.3v1.3H305.6z M320.1,304.6c1.6-0.3,3.4,0.8,4.5-1.1c-1.8-1.8-4.8-1.6-2.6-4.5c3,1.4,7.2-0.2,10.1,1.4v1.1
		c-1.8,0-5.6,0.3-6.9,2.1c2.7-0.8,7.9,0.5,8.2,3.7c-1.9,1.3-5.8-0.5-6.9,1.8c1.6,2.1,8.2-1.6,8.2,3.2c-0.8,1.6-4.2-0.5-5,1.8
		l4.5,2.1c-0.5,0.8-1.1,1.8-0.8,3.2c-3.4,1.3-4.8-2.4-6.9-4c-0.8,0.1-1.2,0.1,0,0c0,0,0,0,0,0c1.3-0.2,3.5-0.9,0.5-2.4
		c-2.4,1.1-6.1,0.5-6.9-2.1l-0.8-0.5c-0.5-1.6,4.2,0.5,5.3-1.8C323.8,305.4,317.7,309.7,320.1,304.6z M322.6,297.7v-4.5
		c3.2,1.1,9.5-2.6,9,3.2v0.8L322.6,297.7z M336.6,260.1c-0.3-2.1,4-5,0.8-7.4c2.7-5,0.3-13-2.1-17.2l1.3-1.9
		c-1.8-11.1-5.6-26,5.8-33.1c0.8,2.6,2.8,4.5,4.4,6.7c0.2,0.2,0.3,0.3,0.2,0.2c-0.1-0.1-0.1-0.2-0.2-0.2c-1-0.8-4.4-3.1-5.6,0.2
		c-4.8,5,4,1.6,5,4.5c-0.3,0.5-1.6,1.1-1.3,1.8l1.3,1.3c-1.6,0-5.6-0.3-7.7,2.6c3.4-0.3,7.9,2.9,9,1.9c-0.5,0.5-1.6,1.1-1.3,1.8
		l1.3,1.3c-3.4-1.1-1.9,2.4-3.7,3.7c2.4,2.4,4-1.1,6.9,1.3h-1.9l0.5,3.2h-0.5l0.5,4.5c9.3-2.1,16.4-12.5,23-19.1
		c2.7-0.5,2.1,2.6,4.2,3.7c-1.9-0.5-2.7,0.3-3.2-2.4c-4.2,2.1,0.8,5.8-1.9,8.7l-2.4-4.5c-3.4,2.4-1.6,4.5-2.6,7.7l-0.5-3.7
		c-3.4-1.3-2.1,2.7-3.2,3.7c1.1,1.8,0.3,4.2,0.5,6.4h-1.8c1.1-2.6-1.8-2.9-2.6-4.5c-2.9,2.7,0.3,5.3-1.3,8.5c-0.5-1.1-0.8-5-3.7-4
		l-0.5,5.8l-3.2-2.6c-1.3,1.6-1.3,2.9,0,4.5c-0.8-0.3-1.1,0.3-1.3,0.5v1.3c-5.6-8-6.4-18.5-12.2-26c-2.1,5.6,4.2,9.3,1.9,15.9
		l2.1,1.8c-2.4,2.4,0.3,6.9,0.5,9c-2.1-0.3,0,3.4-0.5,5c-0.3,0.8,0.8,1.3,1.1,1.9l-1.8,1.8l1.8,2.7c-0.8-0.3-1.1,0.8-1.8,1.3
		c0.5,0.8,1.3,0.5,1.8,0.5l-1.1,1.7l0.5,0.5c-1.3,0-2.9,2.7-1.3,4c-3.4,0.3,1.6,4-1.9,3.7c0.8,3.2-1.3,6.4-0.5,8.2l-0.8-0.5
		l-1.8,3.2c0.4,0.8,0.9,1.2,1.6,1.3h1.8c0.8-0.1,1.7-0.2,2.5,0h-2.5c-0.6,0.1-1.2,0.1-1.8,0h-3.5
		C332.1,273.4,337.4,268.1,336.6,260.1z M338.3,180.7H338H338.3c1.5-0.2,1.9-3.5,3.3-0.5v0.5H338.3z M338.5,183.3v3.2h-4.2
		C333.2,183.6,336.4,182.8,338.5,183.3z M339.3,175.1c2.9-4.5,10.1-5.8,15.1-5.8h2.1C351.5,173,343.8,172.2,339.3,175.1z
		 M360.7,178.8c-1.1,1.8-7.1,1.3-5,5h1.3c0.3,0.8-0.3,1.1-0.5,1.3c1.1,2.9,3.2,0,5,0c1.1,0.8,0.3,2.1,0.5,3.2
		c-3.4-0.3-3.2,2.4-4.5,4.5l4.5,0.5v1.3c-4.2,2.4-8.2-0.8-10.1-4.5c-0.8-4.2-1.8-8.2,2.4-11.4C356.8,177.2,358.3,178.3,360.7,178.8z
		 M359.7,175.1l0.5-0.8l2.6,0.8H359.7z M357.6,215.6c-1.1-0.5-3.2-3.7-0.5-4.2h1.9L357.6,215.6z M360.8,217.7c1.3,1.4,1.5,3,1.3,5.1
		l-1.8,1.8C357.4,223.3,360,219.8,360.8,217.7z M355.8,208.7l1.3-4.5c1,0.3,0.5,2.2,0.5,3.2C357.1,207.9,356.8,209,355.8,208.7z
		 M345.7,194.1l0.5-1.9c3.7,0.7,5.8,6.2,9,8.3C351.5,202.3,347,197.6,345.7,194.1z M353.3,203.7v2.4c-2.4-2.6-7.7-4.2-8.5-8.2
		C347.5,200.5,349.9,203.2,353.3,203.7z M347,187l1,1.4v0.8L347,187z M348.1,175.6c0.5-0.5,1.8-1.5,3.1-1.3c0,0.8,0.3,1.6-0.5,2.1
		C349.9,176.1,348.6,176.9,348.1,175.6z M355.7,175.1h-1.8v-1.3h3.1C357.3,174.6,356.5,175.4,355.7,175.1z M346.2,177v1.3h-2.4
		C342.5,177.2,345.4,175.4,346.2,177z M379.3,178.9c1.6,0.2,1.8,1.8,1.8,3.1l-4.5-0.5L379.3,178.9z M378,176.5v-1.3
		c0.7-0.1,1.5-0.3,1.8,0.5C379.5,176.5,378.7,176.5,378,176.5z M381.1,186.5c-2.1,1.1-5,0.5-7.7,0.5
		C372.9,183.1,380.9,183.9,381.1,186.5z M381.1,191c-0.3,1.1-2.4,0.3-3.7,0.5C377.9,190,380.1,190,381.1,191z M373.5,191
		c0,5.6,6.9,2.1,10.3,3.2c2.9-1.3-0.5-3.2,0.5-5l3,7.5c1.1,0.8,1.7,1.9,1.5,3.8l-1.5-3.8c-2.9-2-9.3-1.1-13.1-1.2
		c-1.3,0.8-1.3,2.1-1.8,3.2c1.6,1.8,3.2-1.1,5-0.8c-1.8,2.9-6.1,1.3-7.1,4.5C370.6,198.2,372.4,194.7,373.5,191z M383,205
		c0,4.5-1.8,8.2-5,11.4c-6.4-1.6-5.8-8.7-5-13.5l1.8,2.1c1.1-1.3,2.9-5.6,5-3.2C381.1,201.6,382.4,203.7,383,205z M386.9,335.3
		c-4.8,0-14.6,2.9-17.2-2.7v-1.3v-3.7l12.7,1.3v1.9c-4.2,0.3-9-0.5-12.7,0.5C374.7,334.5,383.2,330,386.9,335.3z M383.1,303.6
		c0.7,1,2,0.2,3.1,0.5c-1.1,0.8-0.3,2.1-0.5,3.2c-1.8-0.5-4.5,1.1-5.8-1.3L383.1,303.6z M386.2,298.2v3.2h-5
		C379.4,297.4,384.4,298.5,386.2,298.2z M380.6,309.9h5.6v3.2C384.1,312.6,378.8,314.4,380.6,309.9z M388.8,325
		c1.1,3.7-4.2,3.7-3.2,0H388.8z M395.2,304.2v3.1c-2.4,1.6-5,0-6.9-1.3C388.8,302.6,392.8,304.7,395.2,304.2z M394.6,298.2v3.2h-5.8
		C387.5,298.5,392,298,394.6,298.2z M397,326.8c-0.8,2.4-3.4,1.1-5,1.3v-3.2h4.5v0.1C396.5,325.8,396.2,326.6,397,326.8z
		 M401.5,312.3c-1.1-0.5-1.8-2.1-0.5-3.2C402,309.4,401.2,311.2,401.5,312.3z M401.5,306.7v-2.6h2.7L401.5,306.7z M404.2,307.3
		l5-3.2l1.3,8.2l-5.8,0.8C403.6,311.5,404.2,309.1,404.2,307.3z M408.4,326.3c0.8,2.9-1.6,2.6-3.2,4.5l-1.9-5L408.4,326.3z
		 M401.5,302.2l-1.3-1.3c0.3-3.7,5-2.1,6.3-0.5C406.2,303,403.3,302,401.5,302.2z M401.5,328.2h-1.8V325
		C399.9,325.8,402.3,326.6,401.5,328.2z M402.8,330.8c0,0.5-0.3,0.8-0.8,1.3c-1.1,0-3.2-0.3-2.4-2.1
		C400.7,330.3,402,329.5,402.8,330.8z M385.1,340.4l-2.7-1.8h5.1c0,0,0-0.1,0-0.1v0.1h0c-0.2,0.7,0.8,1,1.3,1.7l3.7-1.8
		c0.5,1.1,0.9,1.6,1.3,1.9c0.4,0,0.7,0,1.1,0c1.5-0.8,3-4.1,5.3-0.8c-1.2,0.5-3.2,0.7-5.3,0.8c-0.4,0.2-0.7,0.2-1.1,0
		C390.7,340.4,387.4,340.3,385.1,340.4z M386.1,345.9l-1.8,1.4v-1.4H386.1z M385.6,330.9c0.5-1.3,2.1-0.5,3.2-0.8v2.1L385.6,330.9z
		 M390.7,335.3h1.8H390.7z M399.7,335.9h-4v-3.7l-4.2-0.8v-1.3C397.5,327.9,395.9,333.5,399.7,335.9z M395.7,313.1h-6.4v-3.2h6.4
		V313.1z M369.7,348.6h-1.8v-1.9L369.7,348.6z M367.9,316.3c-2.1-0.8-1.3-4-4-3.2c-1.1,3.4,4.8,5.6,2.6,10.1l-3.7-4.5
		c-3.2,4,4.8,7.2,2.4,11.4l-4.5-5c-2.1,4.2,5.6,8.5,3.2,13.5c-1.1-1.8-2.1-4.2-3.7-5.3c-0.8,4,4,7.7,3.2,11.6
		c-3.2,0.3-1.1-5.6-4.5-2.6l4,7.7c-0.5-0.5-1.9-1.3-2.7-1.8c-4,2.6,2.9,5.6,1.9,7.4c-2.4,1.3-5.6,0.5-8.2,0.8
		c3.2-14.8-2.1-33.9,6.9-45.8l2.1-0.5l-0.8-3.2c0.5,0.3,0.8,0.8,1.3,0.5c0.8-1.1-0.8-2.6-1.3-3.7c-0.5-0.3-0.8,0.3-1.3,0.5l0.8-1.3
		C365,306.7,368.4,310.7,367.9,316.3z M349.4,307.8c-1.9-2.1-4.2-6.1-6.9-8.2c-1.1,5.8,8.7,10.3,4.5,16.7c-2.4-1.6-2.9-4.2-4.5-5.3
		c-2.4,5.3,7.4,7.9,3.2,14l-4.5-4.5c-0.8,4.2,5.6,8,3.2,12.7c-2.1-0.8-1.8-4-4.5-3.7c-0.8,3.7,5,6.1,4,10.9l-4-4.5
		c-2.1,4,5,8,2.7,12.7l-4.5-4.5c-2.9,4.8,6.6,7.7,5,13.5l-6.4-4c-0.8,2.6,3.7,5,5,7.1v1.1H333c-1.8-17.7,2.9-32.8,4.5-49.5
		l-4.5-25.9c8.1-5.9,15.8,1.3,19,8.7c-0.3,1.3,0.5,3.2-0.8,4l-8.2-8.2l-0.5,0.5C343.3,297.5,354.1,301.2,349.4,307.8z M351.2,286.3
		v1.3l-3.2-2.7C349.3,284.8,350.4,285.3,351.2,286.3z M350.1,261.5v-2.4h0.5v2.4H350.1z M348,275l-0.5,0.5v-2.7
		C348.3,273.4,348,274.2,348,275z M353.3,313.7c1.6,3.9-0.5,9.2-0.8,14C348,325.3,353,318.4,353.3,313.7z M354.9,260.5l0.2-1.5
		c-0.1-0.2-0.4-0.4-0.7-0.7h-1.1v-1.9l1.1,1.3c1.3-0.8,0.5-2.7,0.8-4l-1.3-1.1l-3.2,3.2c-0.8-4.5,3.7-2.9,5.8-5.3l-1.4,8.5
		C355.5,259.6,355.2,260.1,354.9,260.5l-0.5,2.8C353,262.1,354.2,261.4,354.9,260.5z M359.7,274.9h1.1l-0.6,5.6
		C356,279.4,361.3,277.9,359.7,274.9z M362.9,291.4l-3.2-3.2L362.9,291.4z M362.1,259.5v-1.8h1.3C363.7,258.5,362.6,259,362.1,259.5
		z M359.7,273.6l2.4-10.8l-1.4,10.8H359.7z M362,296.4c3.8,0.5,3,5.8,4,7.7C364.7,301.5,360.4,300.1,362,296.4z M363.9,253.2h-1.1
		l1.1-10.8V253.2z M330.3,340.4c-2.1-0.8-4.8-6.6-1.8-9.5c0.4-0.9,1.5-1.1,2.6-1.4C329,332.4,329.5,338,330.3,340.4z M329.7,350.4
		l-15.4-22.8l0.8-3.2C320.7,332.2,329.7,341.4,329.7,350.4z M320.3,342.3l1.3,1.3l-65.7,41.3l-1.8-1.8
		C275.5,369.1,298.8,356.1,320.3,342.3z M248.5,387.2c-5.3-4.2-2.6-12.4-9-15.9c-1.6-5.3-2.4-13.3,0.5-18.3
		c8.2,0.3,0.5,6.4,2.1,10.1c-1.1,13,10.1,23.3,19.1,29.9C255.9,396.7,252.5,389.6,248.5,387.2z M249.5,393.6
		c-1.1,1.3-2.9,0.5-4.2,0.8v-4.5C246.6,391.2,249,391.5,249.5,393.6z M237.6,348.6l10.1-6.4c-2.4,2.9-3.5,10.9-9.6,6.9L237.6,348.6z
		 M247.1,372.2l16.4,1.3C259,374.3,250,378,247.1,372.2z M255.9,377.2c-1.6,0.3-2.1,2.9-4.2,1.8c0-0.5-0.5-0.8-0.8-1.3
		C252.7,378,254.3,377.4,255.9,377.2z M256.4,369.6c-3.6,0.1-7.2,0.9-10.1,0.7l-0.5-2.6L256.4,369.6c2.4-0.1,4.8,0.2,7.1,1.2
		L256.4,369.6z M234.9,360v1.3c-9-0.5-20.4-4.2-29.9-1.8h-1.9C212.9,355.8,225.6,355,234.9,360z M212.7,367.6
		c-5.6,2.9-4.5-5.6-9.5-3.7l2.7,4.2c-3.7,3.4-5.3-3.2-9-1.8l1.8,3.2l-6.9,1.8c-1.3-3.7,4.2-7.7,7.7-8.7c4.6-0.6,8.8,0,12.7,1.3h0
		c0,0,0,0,0,0c2.4,0.8,4.7,1.9,6.9,3.2c-3.7,1.3-4-2.1-6.9-3.2c0,0,0,0,0,0C210.4,365,212.5,366.3,212.7,367.6z M175.8,329.6
		c1.7,1.8,6.2-1.1,6.4,2.6C179.8,333,175.1,333.5,175.8,329.6z M175.4,326.9l1.8-1.1l1.3,1.1H175.4z M187.3,338.5
		c-1.3,1.1-3.4,0.3-5,0.5l-2.6-3.7C183,335.1,185.9,335.1,187.3,338.5z M185.4,341.7c2.9,0,4.5-0.5,5.8,2.4
		C189.1,345.7,185.1,344.4,185.4,341.7z M195.5,349.9c-3.2,0.5-4.5-0.5-6.4-2.6C191.8,347.3,194.9,346.7,195.5,349.9z M198.7,354.4
		v1.1c-2.1,0.5-3.7,0-3.7-2.4C196.3,353.1,197.9,352.8,198.7,354.4z M219,361.9c4.8-1.1,7.7,1.8,11.4,2.6
		C226.7,363.7,220.6,366.6,219,361.9z M234.9,368.2v1.3l-5.6-2.4C231.5,366.6,233.1,367.9,234.9,368.2z M190.4,329
		c1.1,0,2.7-0.5,3.2,0.5C193.6,330.3,190.2,331.1,190.4,329z M187.3,325.8l-0.5-2.6c1.8,0.5,5.2-1.4,5.5,1.8
		C190.7,325.3,189.1,327.4,187.3,325.8z M186,321.3c-1.3,0.5-2.1-0.8-3.2-1.3v-1.3h7.7C191.3,322.4,187.3,319.5,186,321.3z
		 M179,313.1c3.5,2.6,9.6-3.2,10.1,2.4C185.4,313.9,178.2,319.5,179,313.1z M179.6,320c-2.1,1.8-5.3,4.2-8.7,4.5
		c0.5-3.7,11.4-2.7,5.6-6.4c-4.5-4-10.1-10.1-16.9-7.2c-1.9,0.5-4.2,4.5-5.3,1.3c-0.5-2.9,2.9-1.6,4-3.7c2.9-0.8,6.6-1.1,9.5,0
		C172.4,311.8,176.7,314.9,179.6,320z M170.1,320.5l-1.8,0.8l-1.3-7.1C170.1,314.4,169,318.4,170.1,320.5z M147.8,262.3
		c0-3.4,4.8-1.8,6.4-1.3v1.8L147.8,262.3z M150.5,311H150c-0.5-6.9-1.8-17.7-1.3-26C150.2,292.7,153.6,302.5,150.5,311z
		 M153.2,230.5c3.4,17.7,7.9,36.2,10.5,55.1l-1.8,2.1C157.9,268.9,154.2,248.8,153.2,230.5z M164.5,299.6c2.1,1.6,2.4,3.7,3.2,5.8
		C164,306.2,164.5,302,164.5,299.6z M166.9,256.4c0.2,6.9,2.4,13.5,0.8,20.4C166.4,270.4,162.9,262.5,166.9,256.4z M149.1,198.7
		l4.5,0.5L149.1,198.7z M150.5,215.6h-1.3v-3.7C150.7,212.7,150.5,214.3,150.5,215.6z M109.1,241.1c11.9-8.5,27.5-10.9,36.8-23.3
		l7.2,0.5c-0.5,3.4,1.1,9.3-4,9h-5.5L115,250.6c-4,1.3-5.3-1.8-6.4-4.2L109.1,241.1z M128.8,245.1c0.4-0.4,0.9-0.7,0.9-1.1
		c0-0.1,0-0.1-0.1-0.2c0,0.1,0,0.1,0.1,0.2c0.7,1.6,0.8,4.7,2.3,6.2c2.6-2.7,0.5-7.2,2.1-10.1c2.1,1.1,0.5,6.1,3.7,6.4
		c2.4-4-2.1-6.1,1.3-9.5c1.1,1.3,0.3,5,3.2,5.6c1.9-3.4-1.3-8.7,2.4-11.4c-0.1,3.5-0.1,8,2.6,9.9c1.1-1.8,0.5-6.4,0.5-9.5l5.8,25.4
		c-6.6-0.3-11.9-1.1-17.7-1.9c-1.8,0-1.1,1.6-2.6,1.9c-1.9,1.3-2.1-2.9-3.7-0.5C126.4,254.4,127.2,248,128.8,245.1z M145.4,292.7
		l-0.8,18.3c-0.3-1.3-1.6-4.2-3.7-5L145.4,292.7z M140.4,262.7v-3.2c1.3,0.6,4.2-1,4.2,1.4v1.8H140.4z M130.1,262.3
		c-0.8-4.8,4.8-1.8,7.1-2.6v2.6H130.1z M156.3,316.8c16.1,10.3,26.7,29.4,39.2,44.5h-1.9c-14.6-15.1-23.6-33.9-42.6-44
		c-5.8-3.7-9,5-14.6,2.1C141.4,314.4,149.4,314.9,156.3,316.8z M184.1,365c-1.3-2.9,3.7-4,5.8-2.4
		C187.3,363.4,187.5,366.3,184.1,365z M187.3,372.1h-3.7H187.3z M184.9,359.9l0.5-3.2c0.8,0.9,0.8,1.9,1.9,2.7
		C187.6,360.5,185.7,359.7,184.9,359.9z M158.6,361.3c0.2-0.2,0.3-0.3,0.5-0.4l0.4-1.5c2.1,0.6,4.7,1.4,5.5,3.7
		c-1.7-0.7-3.7-3.5-5.9-2.2l-0.3,1.2c0.1,0.2,0.2,0.5,0.2,0.7c0.9,0.6,1.7,1.4,2.3,2.4c0.3,0,0.7,0,1.2-0.2h1.8
		c-0.5,0-1.1,0.5-1.3,0.8c-0.5,1.1,0.5,1.9,1.3,2.4h1.9l-0.5,0.8c1.1,2.9,6.1,0.3,6.9,3.7c-6.7,2.5-8.4-3.5-11.3-7.5
		c-1.3-0.1-1.9-1.2-2.3-2.4c-0.1-0.1-0.2-0.2-0.4-0.2l0.1-0.5C158.7,361.8,158.7,361.6,158.6,361.3z M165,335.9v3.1
		c-0.5-0.3-0.8,0.3-1.3,0.5v-3.6H165z M164.5,333.2v-2.4c0.5,0.8,1.6,1.4,1.3,2.4H164.5z M168.2,336.5c1.3,2.6,1.9,6.3,0.8,8.4
		l-8.5,3.2C164.7,346,169.2,342.8,168.2,336.5z M165,356.8l-2.4-5.6L165,356.8z M168.2,361.8h1.3c1.9-4.8-3.2-8.2-3.7-12.7
		c3.4,1.8,2.7,8.7,6.9,10.3c2.7-4.8-4-7.9-1.8-12.2c1.3,2.4,1.8,5.6,4.5,7.2c2.1-3.2-1.3-5.6-1.3-8.5c1.3,1.6,1.8,5.3,4.4,6.4
		c1.1-0.5,0.3-2.1,0.5-3.2l-0.5-0.5c6.4,3.2,3.4,11.9,2.4,16.4l-1.8,4.5C175.1,367.9,171.4,365.5,168.2,361.8z M155.6,323.2
		c0.5,0,0.8,0.2,0.7,0.5C156.1,323.5,155.8,323.4,155.6,323.2c-2.1-0.2-8,1.3-8.3-2.7C150.7,320.1,153.1,321.4,155.6,323.2z
		 M152.3,360.8c-0.4,1.7-0.5,3.8,0.1,5.6c0.7,1.4,1.7,2.7,3.1,3.9c-1.6-1-2.6-2.4-3.1-3.9c-3.2-6-1.7-13.7-1.4-21l1.3-12.2
		C151.8,343,151,352,152.3,360.8z M239.4,375.3c3.4,2.4,4.2,7.7,1.8,10.9c-2.1,1.6-4.2,2.7-6.9,3.2c1.1-0.5,0.3-1.8,0.5-2.6
		l-3.2-1.8c1.6-2.9,6.4-1.9,7.7-5.8c-3.2-1.1-6.4-5.8-9.5-3.2l3.2,3.2l-5.8,3.2c-2.4-2.1,0.3-10.6-5.6-8.7
		c-1.9,3.4-6.1,6.9-4.5,11.4c7.7-5.6,8.7,2.9,15.9,4.5c-4.8,2.9-7.4-2.6-11.4-3.2c-25.7,4.8-55.9,12.7-80.8,0.5l0.5-17.7
		C172.7,388.3,207.9,360.8,239.4,375.3z M223.1,380.1c-0.1-0.5-2.3,0.2-2.3-0.7c0-0.9,1.4-2.1,1.4-2.1v-0.5
		C222.2,376.8,223.3,380.6,223.1,380.1z M290.2,389.4l-9.5,0.5c2.1-6.1,2.6-13.8,9-17.2c17,2.6,32.1,13.5,50.9,8.2l15.1-4.2
		c-0.5,5.6,0.8,10.3,1.8,15.1C337.6,404.2,309.8,398.7,290.2,389.4z M391.5,353.6c0-1.6-0.3-3.4-2.1-3.7h-1.1c2.9-2.1,3.4,1.3,6.9,0
		l4.5-4.5c1,3.4,5.5,1.9,8.2,3.2C407.1,357.9,396.8,352,391.5,353.6z M402.8,339c3.7,1.1,6.7-1.8,10.1,0
		C409.2,338.2,404.7,343.5,402.8,339z M415.5,335.9h-12.7c-0.5-1.8,2.1-1.6,3.2-2.6l9.5,0.8V335.9z M417.9,330.8
		c-2.4-0.8-7.4,1.6-7.4-1.8h8.2C417.9,329.3,417.9,330.1,417.9,330.8z M411,326.3c1.1-5.5,6.9,0.3,10.1-2.6
		C420.6,328.5,414.5,325.5,411,326.3z M161.6,87.4c56.1-32.3,140.6-28.6,193.3,8.7c26.5,18.1,49.5,44.9,63,71.9
		c22.5,42.1,26,103.8,6.4,148.3c-4.2,1.6-10.9-1.3-13.8,2.4c3.4,1.3,8.2,0,11.9,1.3v1.3h-15.9c2.9-2.1,1.6-7.4,6.4-7.1
		c-1.3-4,0.8-13.8-4.5-14.6c0.5-4-5.6-1.8-4.2-6.4c-1.3,3.7-5,2.4-6.4,6.4l0.5,3.2c-2.6-1.3-0.3-3.7,0-5.6
		c-6.4,3.2-5.8-11.9-7.7-1.3H385c-0.3-1.1,0.5-2.6-0.8-3.2c-1.1-0.5-2.4,0.5-1.8,1.8c-0.5,2.1-2.9,2.7-3.7,5
		c-0.3,4.8-1.6,10.6-6.4,11.4c2.9,4.2,9.5,4.5,11.4,10.3h1.9c-4.8,0.3-10.4-1-14.8,1c0,0.2,0,0.4-0.1,0.6c3.4,1.8,8.6,0,12.1,1.6
		v1.3l-12.7,0.5c0.2-1.1,0.4-2.2,0.6-3.4c-0.2-0.1-0.4-0.2-0.6-0.3c0.2-0.1,0.4-0.2,0.6-0.3c1.4-13.5-4.2-27-6.2-40.5l2.4-3.2
		c5-18.5-6.4-44.2,14.8-55.4c-2.7-6.4,7-15.2,3.7-21.4c-0.8-0.9-1.5-1.8-2.3-2.5c-0.7-0.5-1.6-1-2.7-1.5c1,0.2,1.9,0.7,2.7,1.5
		c1.1,0.8,1.8,1.6,2.3,2.5c2.1,2.4,4.3,4.3,8.3,1c0.5-0.3,0.8-0.8,1.3-0.5c0.8,0.5,0.5,1.3,0.5,1.8c-3.2,0.8-6.4,3.4-8.7,4.5
		c4.8,2.1,9-1.3,12.7-3.7c-1.1-2.1-0.8-4.5-3.2-5.8l-4.5,1.3c-3.4-8-8.5-16.7-9.5-26.2c-1.3-2.1-4.5-3.7-6.4-1.1
		c-0.8,4-0.5,8.7-5,10.6c-2.9-1.1-3.7,1.8-3.2,4c0.3,2.9,4,4,1.3,7.7c-0.5,1.6-1.8,3.2-2.1,5c-1.1,0.3-3.2-0.8-3.2,1.3v1.9
		c2.1,1.6,4.2-0.5,5.8,0c-1.6,5,4,10.6-2.6,14.6c1.8-7.2-8.7-9.3-6.9-17.2c2.1-0.3,4.8-1.3,5.8-3.7c-1.8-6.6-1.6-11.6-2.6-18.5
		c3.4,0.8,5-2.4,7.7-3.7c1.6-3.7-2.4-4.8-4.5-5.8c-3.7-0.5-6.4,1.6-6.9-3.2c-8-1.1-15.9,1.3-22.2,5.8c4.8,8.5-10.1,7.2-7.1,15.9
		c-1.1,4.8-13.8,10.9-6.9,17.2l3.7-2.6c0.5,1.3,1.6,2.1,2.7,3.2c8.7-1.6,2.9-26.5,13.2-11.4c-0.5,6.4-8.7,8-10.9,14
		c-5,13.8,1.3,27.8,2.1,41.8l-7.2,31.3c2.4,1.3,2.9,3.7,2.7,6.4c-1.1-1.3-2.7-0.5-4-0.8l-1.1,1.3c1.1,5,6.6-1.8,5,2.7h-5.8
		c3.4-24.9,7.2-52.7,1.9-77.6c-44.2-11.1-98.5-11.9-143.5-1.8c0,4.2-5.6,10.1,0,13.2c1.1-3.2,1.1-6.9,1.8-10.1
		c43.7-10.1,95.9-8.7,139.3,1.1c5.3,47.7-4.5,93.5-20.9,134.3l-6.4,3.7c2.4-9.8,8.2-21.2,11.4-32.3c8.7-31.2,15.9-64.9,11.9-99.8
		c-14.6-5.6-31-7.4-47.7-8.2c-27.8-1.1-56.1,0.8-82.6,5.6c-5,47.7,4,93.8,21.7,134.3c-4.5-0.8-7.4-5.8-9-9.5
		c-9.3-24.6-14.8-50.8-19.6-77.6c-0.8,0-1.9,1.1-1.9,1.9l1.8,15.6c0.3,0.4,0.4,0.8,0.1,1.1l-0.1-1.1c-0.6-0.7-1.9-1.3-3.1-1
		c-1.4,0.6-0.5,2.1-0.1,2.6c0,0,0.1,0,0.1,0c0.1,0.2,0.1,0.2-0.1,0c-1.3-0.2-2.3,0.3-3.1,1.3c1.8,2.9,7.4-0.8,7.7,3.2
		c-2.7,0.5-6.9-1.6-7.7,1.8c2.4,3.2,5.6-1.1,8.2,1.3v1.3c-2.9,1.6-8.5-1.3-10.1,2.4c2.7,1.8,9.8-1.1,11.4,2.6
		c-5,1.1-11.4-0.8-15.4,2.4c5.6,4,10.1-1.9,15.9,0.8l0.8,1.8c-5.3,0-10.1,0-15.4,1.8v0.8c5.6,3.2,15.4-4.2,16.7,3.7
		c-5-1.1-13.5,2.7-17.2-3.2c-3.4-6.9,0.3-10.3,3.7-15.9c0-14.8,7.4-26.2,8.2-40.8c8.5-10.6-6.9-20.7-4.2-33.6
		c-5.6-7.7-25.7-10.9-14.8-24.1c2.4-5.3,15.9-1.9,12.2-11.4c-3.2-2.9-6.4-5.3-10.9-5c-1.6-5.3,1.3-12.7-5-15.4
		c-5.6-0.5-15.1-2.6-16.4,5c0,1.1-0.5,2.6,0.5,3.2c3.2-1.1,1.6-5.3,5-6.9c4.2,1.1,11.6-1.1,11.4,5l-0.4,3.9c0,1.2-0.3,2.2-0.1,0.6
		l0.1-0.6c0-0.9-0.3-2-1.4-2c-0.5,0-0.8,0.3-1.3,0.8v1.1c-0.3-0.8-0.3-1.8-1.1-2.4l-6.4,4.5c-0.8-0.5-0.8-1.3-0.8-2.1
		c2.1,0,4.2-1.6,5-3.7c0-1.3,0.5-2.9-1.1-3.7c-4.8-0.3-3.7,7.9-9.5,6.4c-1.3,7.9-14,2.1-14,11.4c6.6,2.1,5.8,8.5,10.9,11.9
		c0.8,6.4,1.1,13.3-6.4,14c-15.1-0.5-19.1,15.9-27.5,24.1c-0.8,5.6-0.8,11.1,0,17.2c1.8,2.4,2.9,4.5,5.8,5c4.5-0.8,8.7-2.6,12.2-6.4
		c-1.6,8.2,6.6,15.1,1.8,23.6c-2.7,5.6-2.4,12.4-5,17.7c-6.4-6.4-12.4,4.5-18.5-1.9c-9.3,5-12.4-14-20.9-9.5c-4-2.1-9.5-4-14.6-1.3
		C56,197.8,93.3,125.5,161.6,87.4z M363.4,172c1.8-0.3,3.7-0.1,5,1.3C366.8,174.6,364.2,173.3,363.4,172z M331.6,198.7
		c-1.6-1.3,0.5-3.4,0.5-5.3C332.1,193.9,332.7,197.4,331.6,198.7z M329.7,192.9c-0.5,1-1,5.8-4.5,5.8L329.7,192.9z M112.9,308.6
		c-0.3,2.4-6.4,3.4-10.1,3.7c-7.1-1.1-15.4-0.3-22.8-0.5l3.2-3.2H112.9z M75.6,299.6c1.8-3.7,10.2-5.3,9.5,0H75.6z M88.2,305.5
		c7.1-6.4,19.6-1.1,27.3-4.5l-14-1.3c2.6-5.8,9-2.1,13.5-3.2l1,1.8l-1.1,7.7C105.9,305.7,96.6,306.5,88.2,305.5z M93.3,287.7
		c-0.8,1.1-1.8,1.3-3.2,1.1l-2.7-3.2C89.8,285.3,91.7,286.1,93.3,287.7z M84.2,283.7c-1.9-0.5-1.9-3.7,0-4.5c0.6,1.6,4,1.3,3.2,4
		C86.3,283.5,85,282.7,84.2,283.7z M97.8,296.4c-1.6,1.3-3.2,4-5.8,4C93.3,298.8,94.6,295.1,97.8,296.4z M97,294
		c0.5-2.6,4.2-7.1,5.8-2.6v2.6H97z M107.8,294.5c1.3-2.1,2.4-6.1,5.8-5.8h1.3l0.6,5.3C113.4,295.1,110.5,294.3,107.8,294.5z
		 M77.9,283.7h-6.3C73.4,282.9,76.3,282.9,77.9,283.7z M71.5,278.1c1.3,2.6-2.1,2.4-3.2,3.7C66,279.5,70.2,278.7,71.5,278.1z
		 M69.2,286.8c3.4-2.3,6.6,0.3,11.4-0.5v1.8C77.2,288.6,71.3,290.2,69.2,286.8z M71.1,290.9c6.5,0.5,16.6-1.9,18.5,4.2
		c-6.1-4.5-11.4,0.3-18.5-1.1V290.9z M71.5,296.4h2.7l-1.3,1.3L71.5,296.4z M73.7,302.2h8.2c0,3.4-4.5,1.1-5.8,3.7L73.7,302.2z
		 M76.1,307.2c0.5,1.1,1.8,0.6,2.6,0.6l-1.8,2.1L76.1,307.2z M78.7,314.1l27.8,0.8c-8.5,2.4-18.5,0.8-27.8,1.3V314.1z M93.8,337.7
		l-1.9-1.3h1.9V337.7z M97,343.5l-2.4-1.3H97V343.5z M99.7,352.3l-0.5-1.8c0.2,0.2,0.4,0.7,1,0.7C100.5,351.7,99.9,352,99.7,352.3z
		 M100.1,340.4c-1.3,0.5-2.1-2.9-1.8-5c1.1-0.3,2.6,0.5,3.2-0.8c-4.2-3.7-16.7,2.9-17.7-5.6c1.3,0,2.4-0.3,3.2-1.3
		c-0.5-3.7-6.9-0.5-6.4-5.8c10-1.1,23.8-0.3,35.4-0.6c1.3,1.1,0.5,2.9,0.8,4.5c-7.1,1.3-14-3.2-19.9,1.1c1.9,1.6,6.4,0,9,1.3
		c3.7,1.1,10.6-2.7,11.4,3.2v1.9c-5,0.8-9.5-1.3-13.3,1.3c4,1.3,8.2,1.3,13.3,1.3v0.5c-5.6,1.6-13.8-0.5-18.3,2.1
		c0.5,1.1,1.8,1.3,3.2,1.1C101.4,339.9,100.6,339.6,100.1,340.4z M104.2,349.1v-2.4h0.5C104.4,347.5,105.2,348.8,104.2,349.1z
		 M104.2,361.8c2.1,0.3,7.2,0.3,10.1-1.1l-5.1,6.4L104.2,361.8z M228.9,431.1c-3.6,0.4-6.8,1.8-9.9-0.4L228.9,431.1
		c1.2-0.1,2.4-0.1,3.6,0.1L228.9,431.1z M249.5,428.2c-5.6,1.3-11.9,0-14.6,4l8.2,1.3l-8.7-0.8c-2.1-1.6,1.6-2.1,1.3-3.7
		c-10.1,0.8-21.4-4.2-28.6-0.8c-8.2-2.4-16.7-4.5-24.4-8.2h24.9l1.3-1.3l-3.2-1.8c-12.7-0.8-31.3,5.3-41.3-5
		c13.5-1.9,24.9,1.1,38.1,0c-4-4.8-12.4-1.6-18.5-2.7c-9-1.3-23.8,3.7-31.8-4.2c2.9-0.5,7.4,1.1,9-1.3c-6.1-2.9-15.4,0.8-19.1-5.8
		c6.6-0.3,13.5,1.1,19.6-1.3c-8.5-3.4-21.4,2.4-27.8-5c2.1,1.3,5,0.5,6.9-0.5c-4-4.2-11.9,1.6-14.6-5.8c3.7,0.3,7.7-0.3,10.1-1.8
		c-4.5-1.9-13.3,1.1-15.9-4.5c5-1.6,10.9,1.3,15.9-0.5c0.5-1.3-0.5-1.9-1.3-2.7l-17.7,0.8c-1.1-1.8-3.4-1.8-3.7-4
		c9.3-0.3,15.4-3.7,22.2-8.7c-4.2-13,0-28.9-1.3-41.3c4.8,6.4,10.7-7.9,12.3,2.4c-3.2,2.4-7.4-1.1-10.9,1.8
		c3.7,2.4,6.1,1.9,10.9,2.1l-0.8,4.2c-3.2,0.8-7.9-1.6-9.5,2.1c2.9,0.3,5.6,1.6,9,1.1v7.1c-5.8,4.2-9.5-8.7-10.3,1.9
		c-0.9,2.1,1,3.2,2.1,3.3c0.2,0,0.3-0.1,0.5-0.1c-0.1,0.1-0.3,0.1-0.5,0.1c-3.4,0.9-1,5.3,0,7.6l3.2,2.4c-1.9-0.3-4.2,0.3-3.2,2.6
		c0,0.8-0.5,2.1,0.5,2.7c0.4-3.7,5.9,0.2,7.7-2.6v-1.9c-3.5-3.7,2.1-6.2-3.2-9c0.3-1.3,1.6-2.4,3.2-1.8v10.8
		c0.2,0.2,0.3,0.3,0.5,0.5c-0.1,0.6-0.3,1.1-0.5,1.4v5c-2.1,0.3-6.9-3.4-8.2,0.8c0.8,7.4,0.8,14.6,0,21.4c21.9,13,52.8,7.4,75.7,2.3
		c1.4-0.5,2.9-0.8,4.3-1c-1.4,0.3-2.8,0.6-4.3,1c-2,0.8-3.8,2-4.7,4c0.8,9-2.1,20.4,5.3,25.4c22.8,2.1,41.8-6.4,64.6-2.4
		c-6.9,1.6-18-0.8-26,1.8c10.9,1.1,23.6,3.2,33.6,0.5l-1.9-1.3c10.9,0,24.4,6.6,31.8-3.2l0.5-13.8c13.8,1.6,27.8,0,39.5-5.3
		c0.3,1.6,2.1,2.4,4,2.1l-3.2,2.4c-13.8,0-27.3,2.6-40.3,2.6l2.7,1.9l33.6-1.9c-3.7,3.4-9.8,3.2-12.7,7.7c-3.4,1.1-7.4,5-10.9,3.2
		c-4,0.3-9.3-1.1-11.9,1.1c2.4,2.6,6.6,0.5,9.5,2.1c-5,5.8-11.9-2.9-15.9,3.7c1.3,1.1,3.4,0.5,5,0.5c-12.7,7.4-32.3-0.8-45,4.5
		l26.5,1.3c-13.3,8.5-26.7-3.2-40.5,2.6c0.2,0.6,0.6,0.9,1.1,1.1h2.5c0.5,0,1-0.1,1.4,0h-1.4c-0.9,0.1-1.8,0.2-2.5,0h-14.6l12.2-0.5
		C255.3,428.2,251.9,428.2,249.5,428.2z M250.3,433.9h-3.2H250.3z"/>
	<path class="st0" d="M137.3,120.7c5.8,6.4,14.1,8.2,19.1,15.1c9-1.6,9,10.4,19.1,6.4c3.4,1.3,0.5,6.9,5,7.7
		c11.2-4,6.1,9.2,14.6,10.3c-0.2,5.1,5.1,2.2,6.9,5.6c0,1.8,0.6,4.2-0.5,5.8l-1.3-2.6c-1.6,3.5-4.8,6.4-3.7,10.9
		c8.2,3.4,6.8,12.9,13.2,18.5c28.1-4,56.5-1.1,84,0c3.9-9.8,13.5-17.4,9.5-27.5c-1.6,1.9-3.2,5.8-6.4,4.5c0.8-2.1,0.2-4.8,1.3-6.9
		c4.5-5.3,10.9-4.7,14.6-10.3c0.8-8.2,9-5.6,13.2-10.6c0-7.9,11.1-2.6,14-9.5c8.3-2.4,12.2-10.6,19.9-14.8c1.6-3.5,8.8-1.9,6.9-6.9
		c-24.1,11.7-55.4,4.3-82.1,6.4c-16.2,5.9-8.5,22.5-11.4,35.5h1.3c-0.3,2.1,3.1,3.5,1.8,5.3c-6.6-5.8-13-14-14.6-23
		c0.8-0.5,1.4-1.6,2.7-1.3l-2.1-5c0-0.7,0.2-2.1,1.3-1.8c-5-6.9,4-8.4,4-14c-9,1-9.8-13.5-19.9-10.1c-1.9,3.2-3.5-1.1-5-2.3
		c-4.5-0.8-9,0.5-10.1,5c2.2-0.2,5.1-0.2,5.6,2.4l-3.7,0.8l2.4,3.7c-1.1,0.3-2.1-0.2-3.2-0.5c1.8,3.7,6.6,5.9,10.3,7.7
		c4.5,17.4-13,26.2-20.9,38.1l-0.8-0.8c1.6-2.4,3.7-4.2,4.5-6.9c-6.9-5.3-2.6-16.1-3.7-23c-1.9-4-6.9-5.6-10.9-6.4
		c-23,3.7-51.9,5.2-71.2-6.4c9.6,2.1,20.7,4,31.3,5.8c16.4,1.4,31.3-5,46.9-1.8c14.6,4.7,4,20.6,9,29.9c-1.3-9,6.1-22.2-4-29.4
		c-18-7.1-38.4,0.8-57.7-1.8c-11.7,1.1-20.4-6.6-31.3-5.8C134.4,118.8,136.8,119.9,137.3,120.7z M193.6,155.3h4.5
		C197.8,157.1,193.9,157.1,193.6,155.3z M194.4,151c4.4-0.4,8.5-1.3,12.6-2.2c0.7-0.2,1.3-0.3,2-0.4c-0.7,0.1-1.3,0.3-2,0.4
		C202.7,149.9,198.5,152,194.4,151z M200,159.8l-0.5-0.6l13.2-6.3L200,159.8z M206.4,188.3c-0.3-1.3,2.1-1.5,2.6-0.5
		C209,188.9,207.2,188.1,206.4,188.3z M210.3,195.5c0.5-1.6-2.9-3.7,0-4l2.4,3.2C213,196,211.1,195.2,210.3,195.5z M212.2,188.3
		c-0.8-2.6,2.6-2.1,3.7-1.3C215.4,188.1,213.8,188.6,212.2,188.3z M215.9,195.5c-0.3-1.6-3.7-4-0.5-4.5c3.4-1.3,1.8,2.7,3.7,3.7
		C218,195.2,217.3,195.5,215.9,195.5z M219.8,187.8l-0.8-1.9c1.4,0.1,3-0.4,4,0.6C222.5,187,221.2,188.1,219.8,187.8z M224.1,194.7
		c-2.6,1.1-3.2-2.1-3.7-3.7c2.4-1.6,5,0,5.8,2.4C226.2,194.5,225.1,195,224.1,194.7z M226.2,187.1v-1.8c1.1,0.1,2.9-0.6,3.7,0.7
		C229.1,186.3,227.8,187.6,226.2,187.1z M229.4,194.2l-2.1-3.2l2.7-1.3l2.6,3.7C232.3,194.7,230.5,193.9,229.4,194.2z M234.5,184.6
		c0.4,0.1,1.2-0.2,1.8,0.6v1.3h-3.7C231.5,184.4,233.9,186,234.5,184.6z M288.4,194.8c-17.2-0.3-37.1-1.8-54-1.3v-3.7l36.3,0.5l1,2
		c0.5-2.4,4-1.1,5.8-1.3c0.3,1.1-0.5,2.4,0.5,3.2c0.8,0,1.6,0,2.1-0.8v-1.8h3.2c0,1.1-1.6,1.8,0,2.6c2.4,0,2.7-2.9,5.6-1.8
		L288.4,194.8z M239.4,186.5v-1.8h6.9c0,0.5,0.3,0.8,0.8,1.3C244.7,186.8,242.1,186.5,239.4,186.5z M250.3,145.2l3.2,3.7
		C251.9,149.2,249.3,147.3,250.3,145.2z M250.8,154.7l-0.5-3.2C250.6,152.6,252.7,153.7,250.8,154.7z M256.7,128l1.8,1.3l0.5,0.5
		L256.7,128z M260.4,154.2v0.5l-1.9-3.1L260.4,154.2z M265.4,184.6c0.5,0.3,1,0.6,0.8,1.4c-2.1,1.1-5,0.3-7.7,0.5
		C258.5,183.1,263.3,185.2,265.4,184.6z M257.2,134.3c-1.1,0.5-2.4-0.5-1.8-1.8C257.2,131.7,256.7,133.6,257.2,134.3z M257.2,138.3
		v3.2h-0.5v-3.2H257.2z M257.2,147.8l-2.4-1.3L257.2,147.8z M255.9,170.1c0.5,4,1.8,5.6,1.3,10.1h-4.5
		C255.1,177.3,255.6,173.8,255.9,170.1z M253.5,140.7v1.8c-1.8,0-2.1-2.1-1.8-3.7C253.2,138.1,252.9,139.9,253.5,140.7z
		 M251.7,134.4l0.5-1.8c1,0.7,0.5,2.3,1.3,3.1C252.4,136,252.2,134.9,251.7,134.4z M255.9,184.7v1.3H249
		C250.1,183.6,253.8,184.9,255.9,184.7z M268.6,185.3c1,0.1,2.6-0.6,3.1,0.7c0.3,0.5-0.3,0.8-0.5,1.1
		C269.9,187.4,268,187.1,268.6,185.3z M274.4,187.1l0.5-1.8c1.1,1.2,2.7,0.4,4,0.7v1.1H274.4z M281.3,187.8l1.3-1.9
		c0.5,0.9,1.3,0.6,1.9,0.6v1.3H281.3z M290.3,188.4h-3.2l0.5-1.8C289,186.5,291.1,186.8,290.3,188.4z M292.1,195.5h-0.5l1.3-3.2
		L292.1,195.5z M295.3,189.1h-1.8l0.5-2.1c0.5,0.8,1.3,0.8,2.1,0.8C296.1,188.3,295.6,188.6,295.3,189.1z M284.5,154.7
		c6.3,2.1,12.7,3.2,18.5,6.4C296.6,161.6,290.3,158.2,284.5,154.7z M292.9,166.1l-9.5-4.5l6.4,2.1L292.9,166.1z M301.9,154.4
		c-3.5-0.6-7.1-1.6-10.2-2.7C295.4,151.7,298.6,153.3,301.9,154.4c2.7,0.5,5.3,0.8,7.5,1C306.7,155.7,304.2,155.1,301.9,154.4z
		 M296.1,147.9c5.8-0.6,10.3,2.9,15.9,3.7C306.2,152.9,301.7,148.4,296.1,147.9z M298,143.3c5.6-1.6,11.6-0.3,17.2,1.3
		c1.8,1.7,4.8,1.1,7.4,1.1C314.7,148.1,306.7,142.8,298,143.3z M311.2,137.5h2.6H311.2z M315.7,138.3l15.9,1.1
		C326.3,141,320.5,139.7,315.7,138.3z M311.2,133c10.9-1.6,22,3.5,32.6,0.8C333.2,136.4,321.6,134.3,311.2,133z M275,158.5
		c4.2-10.1-4.2-28.9,11.6-33.6c19.9-2.3,42.2,4.1,62.4-0.2c2.1-0.5,4.2-1.1,6.2-1.7c-2.1,0.7-4.1,1.3-6.2,1.7
		c-17.9,4.5-38.8,5.7-56.8,1.5c-5,1.1-10.1,4.8-12.7,9C277.9,142.9,280.8,152.4,275,158.5z M263.6,157.4c0.5,1,2.1,0.2,1.8,1.8h-1.8
		V157.4z M262.8,172c-0.3,1.1,0.5,5.6,1.3,8.2c3.2-1.3,1.6-5.8,3.7-8.2c1.1,0.8,0,2.9,1.3,3.7l4.5-5c0.3,3.6-5.3,6.5-1.9,10
		c2.6-2.4,5.3-4.8,5.8-8.2c0.5,2.9-1.9,5.3,0,7.7c3.2-0.3,3.7-3.7,5-5.8c-0.5,1.1,0.8,5.6,1.3,7.1c2.1-2.4,5.8-5,5.8-9l1.8,7.7
		l2.4-3.2c0.3,1.1,2.4,2.9,0.8,4.5l0.5,0.5l5.8-5c1.6,2.4-1.6,4.5-3.2,6.4l-38.9-3.2L262.8,172z M240.7,121c2.1-0.8,4.5-0.8,6.4-2.6
		l-9.5-8.7c-0.5-1.1,4.2-2.4,5.6,0c0.7,3.2,5,6.1,5.2,0.5c6.6-1.6,8.2,5.8,13.2,8.2c-0.8,1.1-0.8,2.4,0.5,3.2h-3.2v1.3
		c-1.3,1.3-3.2-0.5-4.2-1.9l-1.3,2.4C249.7,116.3,245.4,127.4,240.7,121z M249.5,136.2L249,132L249.5,136.2z M248.9,138.9v2.6h-0.5
		v-2.6H248.9z M248.4,148.9c-0.5-0.5-1.8-1.3-2.6-1.8l1.3-2.4C247.9,146,247.9,147.6,248.4,148.9z M245.7,151.5l0.5,3.2h-2.3
		C241.8,153.4,245,151.8,245.7,151.5z M243.2,147.1v1.8l-1.1-1.8H243.2z M238.9,151.6h1.8v3.2h-1.8V151.6z M215.8,182.1
		c2.9-2.1-1.1-6.4,1.9-8.7c0.5,2.9,1.1,6.9,4.5,7.4v-6.4c0.3,2.4,2.7,4.2,4.5,5.3c1.6-3.2-0.5-6.1-0.5-9c1.1,3.4,4.8,6.1,6.4,9.5
		l3.7-9.5c2.4,2.4,1.1,9,5,8.2c2.4-3.2,0.8-8,1.3-11.9l3.7,10.5c2.1-1.3,4-4.2,3.2-7.4c2.9,2.4,1.6,6.6,2.1,10.1
		C239.2,179.6,227.4,180.6,215.8,182.1C215.8,182.1,215.8,182.1,215.8,182.1C215.8,182.1,215.8,182.1,215.8,182.1
		c-4.3,0.6-8.5,1.2-12.7,1.8c-1.9-2.4-5.3-4.8-3.7-8.2c1.6,2.6,2.4,6.4,5.6,7.7c1.6-2.5-0.6-5.5-2.1-8.4c-0.9-1-1.3-2.7-1.1-2.5
		c0.2,0.8,0.6,1.6,1.1,2.5c0.3,0.3,0.6,0.6,1,0.7c0.5-1.9,1.1-3.7,1.8-5.6c0,4,1.8,9.8,5.6,11.9c2.4-3.7-2.4-6.1-2.4-9.5
		c0.5,0,1.3,0.3,1.9-0.5v-1.3C212.1,174.1,212.6,178.9,215.8,182.1C215.8,182.1,215.8,182.1,215.8,182.1z M210.8,160.6l2.7-2.7h1.1
		L210.8,160.6z M213.5,142l-31.3,5.1c-0.8-0.8-1.6-1.3-1.3-2.4C191.8,143.6,202.6,141,213.5,142z M206.3,135.1
		c-12.2,1.8-25.4,4-38.1,3.2l-1.8-2.1C180.1,138.8,192.6,134.6,206.3,135.1z M170.9,132l0.5,0.5l-14-1.3L170.9,132z"/>
	<path class="st0" d="M255.3,116.6c0.3-3.4-6.3-7.9-7.7-2.7c1.1,4,5.1,2.9,7.7,4V116.6z"/>
	<polygon class="st0" points="156.8,166.1 156.3,164.3 156.8,168 	"/>
	<polygon class="st0" points="158.7,164.8 158.7,168 160,168 	"/>
	<path class="st0" d="M152.4,189.1c-0.3-1,0.8-1.3,1.3-2.1l1.3,2.1c4.2,1.1,0.5-2.4,4.5-2.1h0.1v-1.1c-2.4-1.1-5.9-1.1-7.7,0.5
		C152.1,187.2,151.3,189.1,152.4,189.1z"/>
	<path class="st0" d="M368.4,208.7v-1.8c-1.3-0.8-2.6-1.6-4.5-1.4C363.9,207.9,366.3,209,368.4,208.7z"/>
	<rect x="231.8" y="219.6" class="st0" width="14.6" height="0.7"/>
	<rect x="231.8" y="219" class="st0" width="14.6" height="0.7"/>
	<rect x="259" y="219.6" class="st0" width="16.7" height="0.7"/>
	<rect x="259" y="219" class="st0" width="16.7" height="0.7"/>
	<rect x="205.8" y="224.6" class="st0" width="14.6" height="0.7"/>
	<rect x="205.8" y="224" class="st0" width="14.6" height="0.7"/>
	<polygon class="st0" points="246.3,224 233.1,224 233.1,224.6 246.3,224.6 233.1,224.6 233.1,225.3 246.3,225.3 	"/>
	<rect x="259" y="224.6" class="st0" width="15.9" height="0.7"/>
	<rect x="259" y="224" class="st0" width="15.9" height="0.7"/>
	<polygon class="st0" points="304.3,224.6 287.6,224.6 287.6,225.2 304.3,225.2 287.6,225.2 287.6,225.9 304.3,225.9 	"/>
	<path class="st0" d="M196.2,229.1h-1.8v1.3h1.8V229.1z M194.4,229.7h1.8H194.4z"/>
	<polygon class="st0" points="207.7,229.7 222.3,229.7 207.7,229.7 207.7,230.4 222.3,230.4 222.3,229.1 207.7,229.1 	"/>
	<polygon class="st0" points="234.4,230.4 247.1,230.4 247.1,229.7 234.4,229.7 247.1,229.7 247.1,229.1 234.4,229.1 	"/>
	<polygon class="st0" points="273.8,231.2 273.8,229.9 259,229.9 259,230.5 273.8,230.5 259,230.5 259,231.2 	"/>
	<polygon class="st0" points="302.5,231.2 302.5,229.9 285.8,229.9 285.8,230.5 302.5,230.5 285.8,230.5 285.8,231.2 	"/>
	<rect x="193.6" y="234.9" class="st0" width="5" height="0.7"/>
	<rect x="193.6" y="235.5" class="st0" width="5" height="0.7"/>
	<polygon class="st0" points="209.5,236.2 224.1,236.2 224.1,235.5 209.5,235.5 224.1,235.5 224.1,234.9 209.5,234.9 	"/>
	<polygon class="st0" points="247.1,235.5 234.9,235.5 247.1,235.5 247.1,234.9 234.9,234.9 234.9,236.2 247.1,236.2 	"/>
	<path class="st0" d="M272.5,234.9h-14v1.3h14V234.9z M258.5,235.5h14H258.5z"/>
	<polygon class="st0" points="299.3,236.2 299.3,234.9 284.5,234.9 284.5,235.5 299.3,235.5 284.5,235.5 284.5,236.2 	"/>
	<polygon class="st0" points="314.4,235.5 309.9,235.5 314.4,235.5 314.4,234.9 309.9,234.9 309.9,236.2 314.4,236.2 	"/>
	<polygon class="st0" points="201.3,239.9 193.6,239.9 193.6,240.5 201.3,240.5 193.6,240.5 193.6,241.2 201.3,241.2 	"/>
	<rect x="212.2" y="240.5" class="st0" width="13.2" height="0.7"/>
	<rect x="212.2" y="239.9" class="st0" width="13.2" height="0.7"/>
	<polygon class="st0" points="236.3,240.5 247.7,240.5 236.3,240.5 236.3,241.2 247.7,241.2 247.7,239.9 236.3,239.9 	"/>
	<polygon class="st0" points="271.2,240.5 258.5,240.5 271.2,240.5 271.2,239.9 258.5,239.9 258.5,241.2 271.2,241.2 	"/>
	<rect x="282.6" y="240.5" class="st0" width="14" height="0.7"/>
	<rect x="282.6" y="239.9" class="st0" width="14" height="0.7"/>
	<rect x="307.5" y="239.9" class="st0" width="6.9" height="0.7"/>
	<rect x="307.5" y="240.5" class="st0" width="6.9" height="0.7"/>
	<rect x="193.6" y="245.6" class="st0" width="10.3" height="0.7"/>
	<rect x="193.6" y="245" class="st0" width="10.3" height="0.7"/>
	<path class="st0" d="M214,246.3h12.7V245H214V246.3z M226.7,245.6H214H226.7z"/>
	<rect x="236.8" y="246.4" class="st0" width="10.8" height="0.7"/>
	<rect x="236.8" y="245.8" class="st0" width="10.8" height="0.7"/>
	<polygon class="st0" points="269.9,246.4 258,246.4 269.9,246.4 269.9,245.8 258,245.8 258,247.1 269.9,247.1 	"/>
	<polygon class="st0" points="294,247.1 294,245.8 280.8,245.8 280.8,246.4 294,246.4 280.8,246.4 280.8,247.1 	"/>
	<polygon class="st0" points="314.4,246.4 304.9,246.4 314.4,246.4 314.4,245.8 304.9,245.8 304.9,247.1 314.4,247.1 	"/>
	<polygon class="st0" points="207.1,251.4 194.4,251.4 207.1,251.4 207.1,250.8 194.4,250.8 194.4,252.1 207.1,252.1 	"/>
	<rect x="216.7" y="250.8" class="st0" width="11.9" height="0.7"/>
	<rect x="216.7" y="251.4" class="st0" width="11.9" height="0.7"/>
	<rect x="238.1" y="250.8" class="st0" width="9.5" height="0.7"/>
	<rect x="238.1" y="251.4" class="st0" width="9.5" height="0.7"/>
	<rect x="257.2" y="250.8" class="st0" width="12.2" height="0.7"/>
	<rect x="257.2" y="251.4" class="st0" width="12.2" height="0.7"/>
	<polygon class="st0" points="291.6,251.4 279.4,251.4 291.6,251.4 291.6,250.8 279.4,250.8 279.4,252.1 291.6,252.1 	"/>
	<polygon class="st0" points="301.7,252.1 312.6,252.1 312.6,251.4 301.7,251.4 312.6,251.4 312.6,250.8 301.7,250.8 	"/>
	<rect x="197.6" y="256.4" class="st0" width="11.9" height="0.7"/>
	<rect x="197.6" y="255.8" class="st0" width="11.9" height="0.7"/>
	<polygon class="st0" points="218.5,255.8 218.5,257.1 229.9,257.1 229.9,256.4 218.5,256.4 229.9,256.4 229.9,255.8 	"/>
	<polygon class="st0" points="238.9,255.8 238.9,257.1 248.4,257.1 248.4,256.4 238.9,256.4 248.4,256.4 248.4,255.8 	"/>
	<rect x="257.2" y="256.4" class="st0" width="11.4" height="0.7"/>
	<rect x="257.2" y="255.8" class="st0" width="11.4" height="0.7"/>
	<polygon class="st0" points="281.3,255.8 278.1,255.8 278.1,256.4 281.3,256.4 278.1,256.4 278.1,257.1 281.3,257.1 	"/>
	<polygon class="st0" points="212.7,260.9 200.8,260.9 200.8,261.5 212.7,261.5 200.8,261.5 200.8,262.2 212.7,262.2 	"/>
	<path class="st0" d="M220.4,262.2h11.4v-1.3h-11.4V262.2z M231.8,261.5h-11.4H231.8z"/>
	<polygon class="st0" points="244.5,260.9 244.5,262.2 248.5,262.2 248.5,261.5 244.5,261.5 248.5,261.5 248.5,260.9 	"/>
	<rect x="256.7" y="260.9" class="st0" width="10.9" height="0.7"/>
	<rect x="256.7" y="261.5" class="st0" width="10.9" height="0.7"/>
	<path class="st0" d="M215.3,266.7H205v1.3h10.3V266.7z M205,267.3h10.3H205z"/>
	<path class="st0" d="M223,268.5h8.2v-1.3H223V268.5z M231.2,267.8H223H231.2z"/>
	<polygon class="st0" points="261.2,267.8 255.9,267.8 261.2,267.8 261.2,267.2 255.9,267.2 255.9,268.5 261.2,268.5 	"/>
	<polygon class="st0" points="195,272.2 195,273.5 199.5,273.5 199.5,272.8 195,272.8 199.5,272.8 199.5,272.2 	"/>
	<polygon class="st0" points="218.5,272.8 209,272.8 218.5,272.8 218.5,272.2 209,272.2 209,273.5 218.5,273.5 	"/>
	<polygon class="st0" points="225.4,272.2 225.4,273.5 228,273.5 228,272.8 225.4,272.8 228,272.8 228,272.2 	"/>
	<rect x="200.8" y="279.2" class="st0" width="3.2" height="0.7"/>
	<rect x="200.8" y="278.6" class="st0" width="3.2" height="0.7"/>
	<polygon class="st0" points="221.7,279.9 221.7,278.6 212.2,278.6 212.2,279.2 221.7,279.2 212.2,279.2 212.2,279.9 	"/>
	<polygon class="st0" points="209,285 205,285 209,285 209,284.4 205,284.4 205,285.7 209,285.7 	"/>
	<polygon class="st0" points="216.7,285 222.3,285 216.7,285 216.7,285.7 222.3,285.7 222.3,284.4 216.7,284.4 	"/>
	<rect x="282.6" y="284.4" class="st0" width="7.1" height="0.7"/>
	<rect x="282.6" y="285" class="st0" width="7.1" height="0.7"/>
	<path class="st0" d="M208.2,290.9c0.5,2.1,4.2,1.3,5.8,0.5C212.4,290.3,210.3,290.8,208.2,290.9z"/>
	<path class="st0" d="M224.9,298.3c-4.3-0.8-9.3-0.8-13.5,0C215.6,299.4,222.3,299.4,224.9,298.3z"/>
	<path class="st0" d="M290.8,299.1v-0.8c-2.3-0.5-7.1-1.3-8.7,0.8C284.4,299.9,288.4,299.9,290.8,299.1z"/>
	<path class="st0" d="M288.4,304.6c-2.9-1.4-6.9,0-9,1.3l9-0.5V304.6z"/>
	<path class="st0" d="M214.6,306.7h10.8C222.8,304.6,216.9,304.6,214.6,306.7z"/>
	<path class="st0" d="M235.8,313.1c0-4.5,5.3-2.1,7.4-4.5c1.6-0.3,3.7,1.8,4.5-0.8c-4.6-1.3-9.8-2.6-14.5-1.1l5.8,1.1
		c-1.9,2.1-2.9,0.3-5.3,0.8v2.4c-3.1,1-6.6,0.5-9.5,2.1H235.8z"/>
	<path class="st0" d="M299.3,308.6v-1.3c-3.1-1.6-7.1,0.5-9.5,0.5C292.9,308.1,296.4,307.3,299.3,308.6z"/>
	<path class="st0" d="M254,314.1c3.2,0.6,7.7,1.1,10.3-1.8l-0.8-0.5c-5.8,5.8-7.9-3.5-14.5-1.4C249.5,313.3,253.7,310.7,254,314.1z"
		/>
	<path class="st0" d="M280.2,311c-3.7,0.8-9,1.6-12.1-0.5l0.5,1.3C272,314.2,277.6,312.8,280.2,311z"/>
	<path class="st0" d="M282.6,314.9l6.4,0.6c1-0.3,3.7-2.1,2.6-3.2C289.2,314.7,284.5,312.3,282.6,314.9z"/>
	<path class="st0" d="M297.9,314.1c0.3,1.3,1.6,0.5,2.4,0.8c1.9,0.3,4.3-0.2,4-1.8C302.2,313.4,298.8,312,297.9,314.1z"/>
	<path class="st0" d="M292.1,317.4H303v-1.1C299,317.3,293.7,313.4,292.1,317.4z"/>
	<path class="st0" d="M231.2,317.2c2.4,2.1,8.2-1.6,8.2,3.2c2.4,1.4,6.1,0.6,7.7-0.5c-2.6-1.5-6.4,1.9-8.2-1.8l3.7-2
		C239.1,317.5,233.3,316.1,231.2,317.2z"/>
	<path class="st0" d="M254.8,316.8c-2.4-1.6-5.3,0.5-7.1,0.5C250,319.2,252.4,317.1,254.8,316.8z"/>
	<path class="st0" d="M259.9,317.4c2.6,0.5,7.9,2.1,9.5-1.1C266.5,317.6,261.9,316,259.9,317.4z"/>
	<path class="st0" d="M281.3,316.8v-0.5h-7.4C274.9,318.4,279.2,317.6,281.3,316.8z"/>
	<path class="st0" d="M372.4,317.4v1.3h7.4C378.2,316.3,374.8,317.9,372.4,317.4z"/>
	<path class="st0" d="M221.7,321.9c2.2-1.1,6.1-0.3,6.4-3.2c-3.2,1.3-6.9,2.9-10.4,1.4C217.5,321.6,219.8,322.2,221.7,321.9z"/>
	<path class="st0" d="M260.4,319.4c-2.7,0.6-7.7,1.1-10.9,1.8C253,323.6,258.3,322.3,260.4,319.4z"/>
	<path class="st0" d="M264.4,324.5l10.6,1.8l-1.1,1.3c4.5,0.8,11.4,3.7,15.1,0c-2.6-1.5-7.1,0.6-9.5-1.8l2.6-2.1
		c-2.2-0.3-5.1,1-6.4-1.1c0.8-1.3,1.9-1.6,3.2-1.3c-4-4-9,0.5-13.4,0.1c2.6,1.5,6.9-0.8,9,1.8C271.8,325.6,266.2,324,264.4,324.5z"
		/>
	<path class="st0" d="M297.1,321.8c0,2.1,3.7,1.3,4,0.8C299.6,323.2,298.8,321.3,297.1,321.8z"/>
	<path class="st0" d="M228.5,323.1l-10.1,0.5c3.5,3.7,7.7,0,10.1,3.2c3.5,1.9,9.3,2.4,12.2-0.5l-5-1.8l3.2-1.9h-3.2
		c-6.1-1-2.7,4.5-8.5,2.4C227.7,324.4,228.8,323.9,228.5,323.1z"/>
	<path class="st0" d="M261.7,323.2c-5.6,0.5-11.9,1.5-17.2,1.3l0.8,0.5C250.3,327.7,257.7,326.1,261.7,323.2z"/>
	<path class="st0" d="M286.6,325c2.9,1.3,8.8,2.7,10.6-0.5C293.2,325.5,287.6,322.1,286.6,325z"/>
	<path class="st0" d="M207.7,326.4c2.9,2.1,8,1.3,11.4,0.5v-1C215.4,325.9,211.4,328,207.7,326.4z"/>
	<polygon class="st0" points="90.1,328.2 94.6,327.7 94.6,326.9 89.6,326.3 	"/>
	<path class="st0" d="M277,330c-6.9-1.7-14.8,0.7-22.3,0.1C262.1,331.7,270.3,333.6,277,330z"/>
	<path class="st0" d="M254.7,330.1c-2-0.4-4-0.9-5.8-1.2C250.8,329.6,252.8,330,254.7,330.1z"/>
	<path class="st0" d="M240.8,330.8c-0.7,0-1.3,0.2-2,0.3C239.5,331.1,240.1,331,240.8,330.8z"/>
	<path class="st0" d="M228.1,329.4l1.3,1.9c3.1,1.6,6.2,0.4,9.4-0.2C235.4,331,232.3,328.2,228.1,329.4z"/>
	<path class="st0" d="M280.7,331.2l2.6,3.2c-1.6,1.3-4,0.5-5.8,0.8v1.1c5.1,0,9.8,0.5,14.6,0.8c0.3,1.6,2.4,2.4,3.2,1.9
		c0.2-1.4-1.4-0.8-1.9-1.9l3.2-2.6l-8.2,0.8c2.7-2.1,7.2-4,10.1-5.3v-0.1h-1.9C291.3,330.4,286.8,330.4,280.7,331.2z"/>
	<path class="st0" d="M220.9,334.1l-4.2-0.8c0.2-0.3,0.8-0.6,0.5-1.1h-9v2.4C212.9,333.8,218,339.4,220.9,334.1z M212.7,333.2h2.6
		H212.7z"/>
	<path class="st0" d="M239.4,335.9c2.4,0.5,5.1-2.9,5-3.7l-8.7,2.4L239.4,335.9z"/>
	<path class="st0" d="M222.2,332.7c0.6,3.1,4.8,1.8,6.4,1.3L222.2,332.7z"/>
	<path class="st0" d="M268.6,338.5l1.3-2.6c-3.2,0.5-8.5,1.3-11.9,1.8l7.4,1.3c-2.1,2.1-5.3,1-8.2,1.3c5,1.4,13.5,2.9,17.2-1.3
		C272.6,338.8,270.2,339.6,268.6,338.5z"/>
	<path class="st0" d="M210.9,339.6c5,1,9.5-1.1,13.2-2.4C219.3,336.9,215.1,339.8,210.9,339.6z"/>
	<path class="st0" d="M232.6,342.2c-1.6,1.6-2.6-0.8-4.5,0v1.9c-1,2.4-4.7,0.8-7.1,1.3c3.7,2.7,8.2,0.5,11.6-1.3
		c0.8-5.3,8.2,0,10.6-4.5l-15.9-1.1L232.6,342.2z"/>
	<path class="st0" d="M278.9,340.4c4.3,1.8,10.4,2.9,14.6,0.5C288.7,341.7,283.1,336.7,278.9,340.4z"/>
	<path class="st0" d="M270.7,342.8c-3.6,0.4-7.9,1.3-11.2,1.4c5.4,0.8,9.8,6.3,14.4,2.6l-5.8-0.8
		C268.1,344.1,271.2,344.9,270.7,342.8z"/>
	<path class="st0" d="M257.2,344.2c0.7,0.1,1.4,0.1,2.3,0C258.7,344.2,258,344.1,257.2,344.2z"/>
	<path class="st0" d="M284.4,345.9l-7.4,0.8c5.6,6.4,7.7-4.5,13.8,0c1,0,2.1-1,2.1-1.8l-9.6-0.8L284.4,345.9z"/>
	<path class="st0" d="M261.5,350.1c-1.4,0.9-8.6-3.3-4.8,1.6C258.4,352,260.2,351.6,261.5,350.1z"/>
	<path class="st0" d="M268.6,353.1l0.8,0.5c3.7-2.4,9.2-0.8,14-1.3c1.9,0.3,3.8,4,5.6,0.8v-1.3C282.6,351.3,275,349.7,268.6,353.1z"
		/>
	<path class="st0" d="M224.2,352.3h2.1c0.7,0.2,1.8,0,1.8-1.1C227,352.6,224.6,351,224.2,352.3z"/>
	<path class="st0" d="M255.9,355.4l0.8,0.8c2.4-0.7,7.9,1.6,9.5-1.8C263,355.5,258.8,355.7,255.9,355.4z"/>
	<path class="st0" d="M255.3,358.2c0.3,0.7,2.1,1.3,3.2,1.8c5.3-0.8,11.7-0.8,15.9-2.4C268.3,356.8,261.2,358.9,255.3,358.2z"/>
	<path class="st0" d="M379.8,358.6c4.7,3.2,9.2,1.1,14,2.7c1.1-1.8,3.7,1.9,4-1.3c-1.3-1.1-3.2-0.3-4.5-0.6
		C389.3,355.4,385.1,358.9,379.8,358.6z"/>
	<path class="st0" d="M277,359.4h5.6v-1.3C280.7,358.6,278.1,357,277,359.4z"/>
	<path class="st0" d="M315.2,362.6c0.3-1.3,1.6-0.5,2.4-0.8c0.2-1.8-3-2.4-4.5-1.1c-1.9-0.3-4.5,2.4-2.4,4.2
		c2.9,0.6,6.1-0.2,7.7-1.8C317.3,362.9,315.7,363.7,315.2,362.6z"/>
	<path class="st0" d="M327.1,362.6c-1.3-1.8-3.4,0.3-4.5,0.5C323.9,364.2,326.8,363.9,327.1,362.6z"/>
	<path class="st0" d="M327.9,369v-0.8c-4.5,0.5-10.3-1.1-13.5,1.3L327.9,369z"/>
	<polygon class="st0" points="361.5,369.5 380.6,369.5 361.5,369 	"/>
	<path class="st0" d="M129.5,370.8v-0.5c-3.9-0.6-5.8,4.2-9.5,4.2c3.2,3.2,6.1-3.2,8.2,0.8h7.7v-1.9
		C135.9,369.7,131.1,372.6,129.5,370.8z"/>
	<path class="st0" d="M211.4,384.8c-1.6-6.3,8.4-3.4,5.8-9.5c-1.3-3.4-4.5-1.3-6.9-1.9c-2.9,2.7,0,7.4,0,11.4H211.4z M212.2,375.9
		c0.8,0.2,2.1-0.6,2.4,0.7c-0.5,0.5-1.3,1.6-2.4,1.1V375.9z"/>
	<path class="st0" d="M313.9,375.8c9.5,0.8,20.6,1.6,29.9-0.5l-13.5-0.8C325.8,376.3,318.1,372.9,313.9,375.8z"/>
	<path class="st0" d="M151.8,387.3c2.7-1.1,4.2-4,4.5-6.9c-0.8-3.8-4.8-5.3-8.4-4.5c-2.7,1.9-3.7,4.5-3.2,7.7
		C146,386,148.4,388.4,151.8,387.3z M153.1,380.4c-1.1,1.3-0.8,4-2.6,3.7c-1.9,0.5-1.9-0.5-2.7-1.9
		C147.6,379,151.8,376.6,153.1,380.4z"/>
	<path class="st0" d="M196.8,388l0.8-5.8c2.7,1.9,3.5,6.1,6.9,4c-1.3-3.5,0.2-9.8-3.7-10.4l-0.8,5c-2.2-1-3.2-5-6.4-3.7
		C194.7,380.9,193.9,386.2,196.8,388z"/>
	<path class="st0" d="M295.3,379.8h5.8c-1-2.9-4.7-2.1-7.1-3.2c-0.8,3.4-3.5,7.2-2.4,10.6c0.5-4.7,6.9-1.5,6.9-4.2
		C297.4,381.9,294.8,381.9,295.3,379.8z"/>
	<path class="st0" d="M161.8,384.9c2.1,0.8,1,2.9,1.3,4.5h2.7c0.3-3.5-1-5.3,1.1-7.7c-0.3-4.2-4.8-4-8.3-4l-1.8,10.9
		C161.3,390.2,157.6,383.8,161.8,384.9z M161.3,380.9h1.8v1.3h-1.8V380.9z"/>
	<path class="st0" d="M193.1,388.1c-1.4-3.4-4.3,1.1-6.4-1.3c-0.5-2.9,2.9-2.1,4.5-3.2c-0.5-2.7-4-0.3-5.3-1.9
		c0.8-2.4,5.3-0.8,5.3-4c-3.1-0.2-6,0.5-8.4,2.1c1,3.2,0.8,7.2,2.6,10.1C187.5,388.4,191.3,390.5,193.1,388.1z"/>
	<path class="st0" d="M174.1,390.4c4.2-0.3,5-3.7,5-7.4c-1.4-2.6-3.7-5-6.8-4c-1.6,0.8-5.3,2.9-4,5.8
		C168.3,388,170.4,390.9,174.1,390.4z M175.9,383.5c-0.3,1.6,0.8,3.7-1.3,4.5c-1.3,0.3-2.9-0.5-3.2-1.9
		C169.3,382.5,175.4,379.6,175.9,383.5z"/>
	<path class="st0" d="M301.6,391.3c2.4-2.7,3.5-6.9,4-10.9h-2.2C302.9,384.2,299.5,388.1,301.6,391.3z"/>
	<path class="st0" d="M309.9,381.6l-3.2,10.9c2.9,0.3,6.1,1.6,8.5,1.1c-0.8-2.1-4-1.1-5.3-3.2c0.5-2.3,4.2-0.2,5.8-1.8
		c-0.5-2.1-4.8-0.5-4.5-3.7c1.3-0.3,4.2-0.3,5.8,0.5C317.6,381.4,312,383.5,309.9,381.6z"/>
	<path class="st0" d="M348.8,393c1.6-0.8,4.3-2.6,3.2-5c0.5-4.5-3.2-6.6-7.2-6.4c-2.9,1.1-3.7,4-3.7,6.9
		C341.9,391.7,345.1,394.1,348.8,393z M346.1,384c1.1,1.1,3.2,0.9,3.2,2.7c0,1.3,0.3,2.9-1.3,3.7c-1.8,1.1-3.2-1.1-3.7-2.4
		L346.1,384z"/>
	<path class="st0" d="M319.4,384.9v10c3.5,0.8,0.6-3.2,3.2-3.7c3.2-0.5,2.1,2.9,3.2,4.5c4.4-1.1-0.8-5.9,2.6-8.5
		C327.6,382.7,322.6,385.7,319.4,384.9z M322.6,388.5v-1.3c1.1,0.3,2.1-0.5,2.6,0.8C324.7,389.1,323.6,388.3,322.6,388.5z"/>
	<path class="st0" d="M333.5,395.7v-2.1c-0.5-1.6,0.9-3.2,2.7-2.4c0.5,1.3,1.3,2.4,1.8,3.7c5-1.1-1.9-5,1.3-8.2
		c-1.1-3.4-5.6-1.3-8.2-1.9l0.5,10.9H333.5z M336.1,387.2c0,0.8-0.3,1.1-0.8,1.3c-0.5,0-1.3,0.3-1.8-0.5
		C333.7,387.8,335.3,385.7,336.1,387.2z"/>
	<path class="st0" d="M266.2,388.7l0.5,1.8c2.9-0.3,6.9,1,8.2-1.1C272,389.1,268.6,389.9,266.2,388.7z"/>
	<path class="st0" d="M190.4,396.7c0.7,0,1.4,0,2.1-0.1L190.4,396.7z"/>
	<path class="st0" d="M192.5,396.7l13.3-0.4C201.5,394.9,196.9,396.3,192.5,396.7z"/>
	<path class="st0" d="M261.6,399.9c-1.1,2.1,1.8,7.9-1.9,10.3c-4.5-1.3-1.6-6.6-3.2-9.5h-1.3c-1,2.1-0.5,5-0.5,7.7
		c0.5,1.1,1.1,3.5,3.2,3.2c1.9,0.5,5.1,0.5,6.4-2.1C264.3,405.3,264.3,402.1,261.6,399.9z"/>
	<path class="st0" d="M267.5,400c-1.1,3.4-1.1,9,0,11.6c2.4-0.3,5.3,0.5,7.4-0.8c-1.1-1.9-4.6-1.1-6.4-3.2c1.3-2.4,4.2-0.3,5.8-1.9
		c-0.8-2.6-4.7,0.3-5-2.6c1.1-2.2,3.8-0.8,5.6-1.1v-1.3C272.8,399.4,269.9,400.2,267.5,400z"/>
	<path class="st0" d="M247.7,407.1l1.8,2.4c-0.5,1.3-2.1,0.5-3.2,0.8c-1.3-1.1-1.9-2.4-2.4-4c0.6-4.5,4.8-3.5,7.7-1.9v-1.8
		c-1.8-0.5-2.9-2.6-5.2-1.9c-3.1,0.8-5.3,4-4.2,7.7c0.8,4.8,7.2,4,10.6,3.2c0.5-2.4-0.8-4-1.1-5.8
		C249.8,405.2,248.5,406.6,247.7,407.1z"/>
	<path class="st0" d="M278.9,400.7l-1.3,10.9h1.8c0.8-1.4-0.2-4.5,2.7-4c1.3,1.1,2.1,2.6,1.8,4.5c4,0,0.3-6.4,3.2-8.2
		C285.8,400.5,281.6,401.8,278.9,400.7z M281.3,405.3v-1.4c1,0.3,2.1-0.5,2.6,0.6C283.4,405.8,282.3,405,281.3,405.3z"/>
	<path class="st0" d="M290.3,402.1l-1.3,11.4c3.2,0.8,1.1-2.9,2.7-4c3.4-2.1,3.2,3.7,5,4.5c2.1-2.1-1.6-5.3,1.3-6.9
		C300.1,402.6,293.2,402.6,290.3,402.1z M292.1,406.3c0-1.8,2.4-1.3,3.2-0.5C294.8,406.9,293.2,406.3,292.1,406.3z"/>
	<path class="st0" d="M190.4,404l13,0.4C199,403.7,194.8,400.9,190.4,404z"/>
	<path class="st0" d="M206.3,404.5l-2.9-0.1C204.4,404.6,205.3,404.7,206.3,404.5z"/>
	<path class="st0" d="M186.7,403.9h-18.5C174,404.7,181.7,404.7,186.7,403.9z"/>
	<path class="st0" d="M233,408.4c-1.3-1.9-2.9-5-5.8-4.5c0.8,1.9-1.6,9,2.1,10.9l1.1-5.8c2.7,1.3,2.7,5.8,6.4,4.5
		c0.5-4-0.8-6.9-1.1-10.4C231.9,402.6,234.9,407.1,233,408.4z"/>
	<path class="st0" d="M224.9,404.5c-2.4-1.1-5.6-0.3-8.2-0.6v10.9h7.4c0.8-4-5.9-0.5-5.6-4.5c1.3-1.3,3.4-0.5,5-0.8
		c0.6-3.7-4.2,0-5-3.2C219.9,404,223.1,406.1,224.9,404.5z"/>
	<path class="st0" d="M303.1,403.9c-1.6,3.2-3.5,7.4-2.7,10.1c1.9-4.2,6.6,0.3,9-0.5C307.8,410,308,403.7,303.1,403.9z M305.6,410.5
		c-0.3-0.6-2.5,0.5-2.6-0.5c-0.1-1,1.3-2.5,1.3-2.5l-0.1-0.5C304.2,407,305.9,411,305.6,410.5z"/>
	<path class="st0" d="M338.5,409h-20.9v1.3C323.9,410.1,332.9,411.4,338.5,409z"/>
	<polygon class="st0" points="198.1,424.3 200,424.3 197.6,423.5 	"/>
	<path class="st0" d="M202.7,425.4c6.9,1.1,17.5,1.1,24.6,0C218.8,424.6,210.3,424.6,202.7,425.4z"/>
	<path class="st0" d="M266.7,426.2c-11.1-0.8-24.1-1.4-36.3-1.9l-0.5,1.1C242.6,426.7,254.5,425.9,266.7,426.2z"/>
	<path class="st0" d="M249.5,463.5c-3.4,1.1-5.3,4.8-5,8.5c0.8,3.4,4.8,5.3,8.2,5c3.7-0.8,5.6-4.8,5.3-8.2
		C256.9,465.1,253.2,463.2,249.5,463.5z"/>
	<path class="st0" d="M210,449.5c-1.7-1.5-5.2-2.9-7.4-3.5c-3.1-0.8-6.3-0.8-9.2,0.6c-2.7,1.3-4.9,3.6-5.6,6.5
		c-1.3,5.4,1.7,8.7,6,11.3l2.1,1.4c1.8,1.2,3.8,2.7,3.2,5.1c-0.7,2.6-3.9,3.4-6.3,2.8c-3-0.8-3.8-3.6-4-6.4c0-0.7-0.1-1.4-0.9-1.6
		c-1-0.3-1.2,0.8-1.4,1.5l-0.7,3.2c-0.2,0.9-0.6,1.6,0.2,2.3c1.3,1.1,4.1,2.3,5.7,2.7c5.3,1.3,12.9-0.2,14.4-6.3
		c1.1-4.6-2.8-7.9-6.1-10.3c-2.6-1.9-6.3-4-5.4-7.8c0.8-3.3,4.6-4,7.5-3.3c1.7,0.4,3.4,1.3,4.4,2.9c0.9,1.4,0.9,2.7,0.9,4.3
		c0,0.9-0.1,2.3,1,2.6c1.1,0.2,1.4-1.6,1.6-2.3l0.6-2.5C211,451.2,211.3,450.6,210,449.5z"/>
	<path class="st0" d="M186.9,443.5c0.3-0.6-0.1-1-0.7-1.2c-4.3-1.8-8.6-3.3-12.8-5.1c-3.3-1.3-6.4-2.9-9.7-4.2c-0.5-0.2-0.7,0-1,0.5
		l-1.9,3.3c-0.3,0.4-1,1.4-1.2,1.8c-0.3,0.7-0.2,1.1,0.5,1.4c0.8,0.3,1.6-0.4,2.1-0.9c2.5-2.2,5.6-2.4,8.7-1.1
		c1.2,0.5,2.5,1.4,2.9,2.7c0.3,1.2-0.3,2.9-0.8,4l-2.1,5.1c-0.4,1.2-0.6,1.8-2.1,1.3l-1.9-0.7c-4.7-1.9-1.4-5.5-3.5-6.4
		c-0.7-0.4-1.2,0.2-1.4,0.8c-0.4,1.3-0.9,2.7-1.4,3.9c-0.6,1.2-1.1,2.5-1.7,3.7c-0.3,0.6-0.3,1.2,0.4,1.5c0.8,0.3,1.5-0.4,1.9-0.9
		c0.8-1,1.8-1.8,3.1-1.5c0.9,0.2,2.9,1,3.8,1.4c1.5,0.7,1.1,1.4,0.6,2.7l-2.5,5.5c-0.2,0.5-0.6,1.7-1.3,1.8c-0.8,0.1-3.2-0.9-4-1.2
		c-1.2-0.5-2.5-1.1-3.1-2.3c-0.5-1-0.9-2-1.1-3.1c-0.1-0.7-0.2-1.5-0.9-1.8c-1-0.4-1.1,0.3-1.4,1l-1.5,3.6c-0.3,0.7-0.9,1.4,0.1,1.8
		c4.7,1.9,9.3,3.6,13.9,5.5c2.7,1.1,5.1,2.3,7.8,3.4c0.6,0.3,1.2,0.1,1.5-0.6c0.2-0.3-0.6-0.9-1.1-1.2c-2.7-1.6-2-2.9-0.9-5.5
		l6.5-15.6c1.1-2.6,1.4-3.6,4.6-2.8C185.8,444.2,186.6,444.2,186.9,443.5z"/>
	<path class="st0" d="M159.1,432.9c0.6,0.2,1.3,0.5,1.7-0.2c0.4-0.7-0.2-1.2-0.8-1.6c-1.3-0.7-2.6-1.4-3.9-2.2s-2.5-1.6-3.8-2.4
		c-0.6-0.3-1.5-0.6-1.9,0.1c-1.2,1.8,4,2.5,2.2,5.4c-0.7,1.2-2.1,2.3-3.1,3.2c-1.2,1-1.1,1-2.5,0.1l-5.4-3.2
		c-1.5-0.9-1.4-0.8-1.1-2.5l0.7-4.1c0.1-0.5,0.2-1.3,0.5-1.8c0.9-1.5,3.1,1.4,3.9,0c0.5-0.7-0.2-1.3-0.8-1.6c-2-1.2-4-2.2-6.1-3.4
		c-1.6-0.9-3.2-2.1-4.9-3.1c-0.6-0.4-1.4-0.8-1.9,0c-0.5,0.9,0.3,1.2,1,1.7c0.8,0.5,1,1,1.1,2c0.1,0.8-0.1,1.9-0.2,2.7l-3.5,24.9
		c-0.2,1.4-0.5,1.9,0.8,2.7c1.6,1,2.1,0.3,3.5-0.7l11.6-8.4l5.6-4.3c1.2-0.9,3.2-2.5,4.3-3.2C157.3,432.2,157.8,432.4,159.1,432.9z
		 M145.9,437.8c-0.2,0.3-0.9,0.8-1.1,1l-6.6,5.1l1.5-8.6c0-0.1,0.1-1,0.2-1.2c0.2-0.5,1.2,0.3,1.5,0.5l3.5,2.1
		C145.3,436.9,146.2,437.2,145.9,437.8z"/>
	<path class="st0" d="M131.4,414.6c0.4-0.5,0.1-0.9-0.4-1.3c-2.9-2.3-6-4.6-8.9-6.9c-2.8-2.3-5.5-4.7-8.3-7c-0.9-0.7-1.1-1.3-2-0.3
		c-1.3,1.4-3,2.5-4.2,4c-0.4,0.5-0.6,0.9,0,1.4c1.5,1.2,5.2-3.2,10.6,1.1c2.7,2.1,1.8,3.8,0.2,5.8l-10.6,13.2
		c-2,2.5-2.5,3.4-5.3,1.8c-0.5-0.3-1.1-0.7-1.6-0.1c-0.4,0.7-0.1,1.1,0.4,1.5c1.7,1.4,3.6,2.7,5.4,4.1c1.9,1.6,3.7,3.2,5.6,4.8
		c0.6,0.4,1,0.6,1.5,0c0.5-0.6-0.2-1.3-0.6-1.7c-2-2.3-1-3.1,0.8-5.4l10.5-13.4c2-2.4,2.3-3.1,5.1-1.5
		C130.2,415,130.9,415.2,131.4,414.6z"/>
	<path class="st0" d="M67.8,370.2c-7.6,6.1-6.8,16.4-1.1,23.5c2.8,3.6,6.5,5.8,11,6.3c4.1,0.6,8.3-0.5,11.6-3.1
		c3.4-2.7,5.8-7.1,5.7-11.5c0-4-2-8.7-4.5-11.9C84.9,366.6,75,364.4,67.8,370.2z M89.2,383.7c-1.4,3-3.6,5.6-6.1,7.6
		c-3.8,3-11.1,6.4-14.9,1.6c-4.4-5.5,1.3-13.5,5.7-17c3.8-3,11.1-6.5,15-1.7C91.1,377,90.5,380.7,89.2,383.7z"/>
	<path class="st0" d="M77.1,359.7c0.4,0.5,0.9,1,1.6,0.6c0.6-0.3,0.5-0.8,0.2-1.4c-1.1-2-2.4-3.9-3.5-5.9c-1.2-2.2-2.2-4.4-3.4-6.5
		c-0.4-0.6-0.8-1-1.4-0.6c-0.7,0.5-0.4,1.3-0.2,1.9c1,2.8,0,3.2-2.5,4.6l-5.3,3c-1.1,0.6-1.6,1-2.5-0.3l-1.1-1.7
		c-2.5-4.4,2.3-5.2,1.2-7.2c-0.4-0.7-1.2-0.5-1.7-0.2c-1.1,0.8-2.3,1.5-3.5,2.2c-1.2,0.5-2.5,1.2-3.7,1.8c-0.6,0.3-1,0.7-0.6,1.4
		c0.5,0.7,1.5,0.5,2.1,0.4c1.2-0.2,2.4-0.3,3.3,0.8c0.6,0.7,1.6,2.5,2.1,3.4c0.8,1.5,0,1.8-1.2,2.5l-5.7,3.2
		c-0.5,0.2-1.2,0.6-1.7,0.4c-0.7-0.3-1.3-1.7-1.6-2.2c-0.7-1.3-1.6-2.8-1.7-4.3c-0.1-1.4,0.3-2.1,1-3.3c0.4-0.7,1.1-1.7,0.7-2.5
		c-0.4-0.6-1.1-0.5-1.6-0.2l-4,2.2c-1.1,0.7-1,1-0.4,2.1c1.5,2.7,3.2,5.3,4.7,8c2.1,3.8,4.2,7.8,6.3,11.6c0.3,0.6,0.7,0.9,1.4,0.5
		c0.7-0.4,0.2-1.2,0-1.8c-1.1-2.8,0.1-3.3,2.6-4.7l14.8-8.3C74.5,357.7,75.1,357.2,77.1,359.7z"/>
	<path class="st0" d="M37.8,330c-3-0.9-4.6-1.7-5.6-4.8c-0.4-1.3-0.4-1.3,0.9-1.7l19.2-6c2.9-1,3.7-1.3,5.1,1.5
		c0.2,0.5,0.7,1.1,1.4,0.9c0.7-0.3,0.7-0.8,0.5-1.4c-0.7-2.2-1.5-4.3-2.2-6.5c-0.7-2.4-1.3-4.7-2-7.1c-0.2-0.6-0.5-1-1.2-0.8
		c-0.8,0.3-0.7,1.2-0.6,1.8c0.4,3-0.7,3.2-3.4,4l-19.1,6.2c-1.2,0.4-1.3,0.4-1.7-0.8c-1.2-3.8-0.6-4.7,2.3-7c0.5-0.4,1.1-1,0.9-1.8
		c-0.3-0.9-1.4-0.5-2.2-0.4l-6,1.2c-0.8,0.2-1.7,0.2-1.4,1.3c0.2,0.5,0.7,0.7,1.2,0.8c1.5,0.4,1.8,1.6,2.2,3l5.1,16.3
		c0.4,1.2,0.7,1.5-0.4,2.3c-0.4,0.3-0.6,0.6-0.4,1.1c0.2,0.8,1.2,0.7,1.9,0.7l5.8-0.2c0.4,0,0.8,0,1.1-0.1c0.6-0.1,1-0.5,0.8-1.1
		C39.7,330.6,38.5,330.2,37.8,330z"/>
	<path class="st0" d="M24.2,302.1c0.8-0.1,0.7-1,0.7-1.6c0.1-3.1,1.3-3,4.2-3.4l16.8-2.4c3.1-0.4,3.8-0.6,4.8,2.4
		c0.2,0.5,0.5,1.2,1.3,1.1c0.7-0.1,0.8-0.6,0.7-1.3c-0.4-2.3-0.9-4.5-1.2-6.8c-0.3-2.5-0.5-4.8-0.8-7.3c-0.1-0.6-0.4-1.1-1.1-1
		c-0.9,0.2-0.9,1.1-0.9,1.7c-0.1,3-1.2,3-4,3.4l-6.6,0.9c-1.9,0.3-1.7,0.4-2-1.6l-1.2-8.4c-0.2-1.3-0.4-1.4,0.9-1.6l7.2-1
		c3-0.4,3.8-0.6,4.8,2.4c0.2,0.5,0.5,1.2,1.3,1.1c0.7-0.1,0.8-0.6,0.7-1.3c-0.3-2.3-0.8-4.5-1.1-6.8c-0.3-2.5-0.5-4.8-0.8-7.3
		c-0.1-0.6-0.4-1.1-1.1-1c-0.9,0.2-0.9,1.1-0.9,1.7c-0.1,3-1.2,3-4,3.4l-16.8,2.4c-3.1,0.5-4,0.8-5-2.3c-0.1-0.6-0.3-1.3-1.1-1.2
		c-0.7,0.1-0.8,0.6-0.7,1.3c0.3,2.2,0.8,4.4,1.1,6.7c0.3,2.5,0.5,4.8,0.8,7.3c0.1,0.7,0.3,1.1,1.1,1c0.8-0.1,0.7-1,0.7-1.6
		c0.1-3.1,1.3-3,4.2-3.4l4.6-0.6c1.7-0.3,1.7-0.3,1.9,1.3l1.4,8.5c0.2,1.6,0.2,1.7-1.5,1.9l-4.6,0.6c-3.1,0.5-4,0.8-5-2.3
		c-0.1-0.6-0.3-1.3-1.1-1.2c-0.7,0.1-0.8,0.6-0.7,1.3c0.3,2.2,0.8,4.4,1.1,6.7c0.3,2.5,0.5,4.8,0.8,7.3
		C23.2,301.8,23.4,302.2,24.2,302.1z"/>
	<path class="st0" d="M19.7,260c0.5-3.1,2-2.9,4.8-2.9l16.9,0.2c2.9,0,3.8,0,4.3,3.2c0.1,0.6,0.3,1.3,1.1,1.3c0.7,0,0.9-0.4,0.9-1.1
		c0.1-4.5,0-9.1,0-13.7c0-3.6,0.3-7.1,0.3-10.6c0-0.6-0.2-0.7-0.8-0.8l-3.8-0.6c-0.4-0.1-1.7-0.4-2.1-0.4c-0.8-0.1-1.1,0.2-1.1,1
		s1,1.3,1.7,1.6c3,1.5,4.3,4.4,4.3,7.7c0,1.3-0.3,2.9-1.4,3.7c-1,0.8-2.8,0.8-4,0.8l-5.6-0.1c-1.2,0-1.9,0.1-2-1.5l-0.1-2
		c0-5,4.6-3.3,4.6-5.6c0-0.8-0.7-1-1.3-1c-1.3,0-2.8,0.1-4.1,0.1c-1.3-0.1-2.8-0.1-4.1-0.2c-0.6,0-1.2,0.1-1.2,0.9
		c-0.1,0.9,0.9,1.2,1.5,1.4c1.2,0.4,2.3,1,2.5,2.3c0.2,0.9,0.2,3,0.2,4c-0.1,1.6-0.9,1.5-2.3,1.5h-5.8c-0.6,0-1.9,0.1-2.2-0.5
		c-0.4-0.7-0.4-3.3-0.4-4.1c0-1.3,0.1-2.8,1-3.8c0.7-0.8,1.6-1.6,2.5-2.2c0.5-0.4,1.3-0.8,1.3-1.5c0-1.1-0.8-1-1.5-1h-3.9
		c-0.9,0-1.7-0.3-1.7,0.8c-0.1,5,0.1,9.9,0,14.9c0,2.9-0.3,5.6-0.3,8.5c0,0.7,0.3,1.2,1.1,1.2C19.4,261.5,19.6,260.6,19.7,260z"/>
	<path class="st0" d="M35.1,216.8c4.5,0.9,9.4-0.5,12.8-3.5c3.3-2.8,5.2-7.4,6.1-11.5c0.7-3,0.8-6.4-0.2-9.4
		c-0.6-1.6-1.2-1.7-2.7-2.1l-1.7-0.6c-0.7-0.2-1.8-0.4-2,0.6c-0.2,0.6,0.2,1.1,0.7,1.4c1.4,1.2,2.7,2.3,3.6,4
		c0.8,1.7,1.1,3.5,0.7,5.3c-0.7,3.3-3.2,5.7-6.3,6.9c-3,1.1-6.5,1-9.5,0.4c-3.1-0.7-6.3-2.1-8.5-4.5c-2.1-2.3-3.3-5.5-2.6-8.6
		c1.4-6.3,6.9-5.3,7.4-7.4c0.1-0.6-0.1-1-0.6-1.1c-0.5-0.1-0.9-0.1-1.4-0.1l-2.5-0.1c-1.4,0-1.6-0.1-2.2,1.1c-1.1,2-2,4.6-2.5,6.8
		c-1,4.4-0.8,9.7,1.1,13.9C26.8,212.6,30.5,215.8,35.1,216.8z"/>
	<path class="st0" d="M29.2,180.7c0.8,0.3,1.1-0.6,1.4-1.1c1.5-2.7,2.5-2,5.3-1.1l16,5.4c2.9,1,3.7,1.2,3.2,4.3
		c-0.1,0.6-0.1,1.4,0.6,1.6c0.7,0.2,1-0.2,1.2-0.8c0.7-2.2,1.3-4.4,2-6.6c0.8-2.4,1.7-4.5,2.5-6.9c0.2-0.6,0.2-1.2-0.5-1.4
		c-0.8-0.3-1.2,0.5-1.5,1.1c-1.4,2.7-2.4,2.1-5.1,1.2L38.4,171c-3.1-1-4-1.1-3.5-4.3c0.1-0.6,0.2-1.4-0.5-1.6
		c-0.7-0.3-1,0.2-1.2,0.8c-0.7,2.1-1.3,4.3-2,6.5c-0.8,2.4-1.7,4.5-2.5,6.9C28.5,180,28.5,180.5,29.2,180.7z"/>
	<path class="st0" d="M34.8,159.8l4.4,3.8c0.2,0.3,0.5,0.5,0.8,0.7c0.5,0.3,1,0.3,1.3-0.3c0.3-0.7-0.3-1.9-0.7-2.5
		c-1.6-2.7-2.2-4.4-0.8-7.3c0.6-1.2,0.6-1.1,1.8-0.6l18.2,8.6c2.8,1.3,3.6,1.5,2.7,4.6c-0.1,0.5-0.2,1.3,0.5,1.6
		c0.6,0.4,1,0,1.3-0.6c1-2.1,1.8-4.2,2.8-6.3c1-2.2,2.2-4.3,3.3-6.5c0.3-0.5,0.3-1.1-0.3-1.4c-0.7-0.4-1.3,0.4-1.6,0.9
		c-1.7,2.5-2.7,1.8-5.2,0.6l-18.2-8.8c-1.1-0.6-1.2-0.7-0.7-1.8c1.7-3.5,2.7-3.7,6.4-3.5c0.7,0.1,1.5,0,1.9-0.7
		c0.5-0.9-0.6-1.4-1.3-1.8l-5.2-3.2c-0.7-0.4-1.4-1-1.9,0c-0.3,0.5,0,1,0.3,1.4c0.9,1.3,0.2,2.4-0.4,3.7l-7.3,15.5
		c-0.6,1.2-0.5,1.6-1.9,1.4c-0.5,0-0.9,0.1-1.1,0.6C33.5,158.8,34.2,159.3,34.8,159.8z"/>
	<path class="st0" d="M48.7,133.3c0.8,0.6,1.2-0.2,1.7-0.8c0.5-0.6,0.9-0.7,1.7-0.9c1-0.2,2.2-0.2,3.1-0.2h14.6L75,135
		c2.5,1.8,3.3,2.1,1.9,5c-0.2,0.5-0.4,1.3,0.2,1.7c0.6,0.4,1,0.1,1.4-0.4c1.3-1.8,2.5-3.8,3.8-5.7c1.5-2,3-3.9,4.4-5.9
		c0.3-0.5,0.5-1.1-0.1-1.5c-0.7-0.5-1.4,0.1-1.8,0.6c-2.1,2.2-2.9,1.4-5.2-0.2l-6.4-4.5l-3.6-9.8c-0.5-1.5-1.5-3.8-1.5-5.4
		c0-0.9,0.3-1.8,0.7-2.6c0.3-0.6,0.7-1,0.1-1.4c-0.7-0.5-1.4,0.1-1.8,0.6c-1,1.4-1.9,3-2.9,4.4c-0.9,1.3-1.9,2.3-2.7,3.5
		c-0.4,0.5-0.7,1.3,0,1.8s1.1-0.5,1.9-1.3c0.7-0.8,1.8-1.3,2.6-0.7c0.6,0.4,1,1.3,1.2,1.9l3.4,8.6l-9.7-0.1c-0.7,0-2.2,0-2.8-0.4
		c-0.5-0.4-0.2-1.5,0.1-1.9c0.4-0.6,1.2-1.5,0.4-2.1c-0.8-0.6-1.4,0.3-1.8,0.9c-1.4,2.1-2.7,4.2-4.2,6.3c-1.2,1.7-2.5,3.3-3.7,5
		C48.5,132,48,132.8,48.7,133.3z"/>
	<path class="st0" d="M95.1,96.7l2.6,6.6c0.5,1.3,1.6,3.7,1.9,5c0.3,1.4,0,1.8-0.8,2.9c-0.4,0.5-0.8,1-0.3,1.6
		c0.6,0.6,1.3,0.2,1.8-0.3c1.1-1,2.1-2.1,3.2-3.1c1-1,2.2-2,3.3-3c0.5-0.5,1.1-1.2,0.5-1.8c-1.4-1.5-3.5,3.2-5.8,0.7
		c-1-1-1.6-2.7-2.2-3.9c-0.6-1.5-0.6-1.4,0.6-2.5l4.6-4.3c1.3-1.1,1.1-1.1,2.7-0.3l3.8,1.8c0.5,0.2,1.2,0.5,1.6,1
		c1.1,1.2-2.2,2.5-1.1,3.7c0.6,0.7,1.3,0.2,1.8-0.3c1.7-1.6,3.2-3.3,5-4.9c1.4-1.3,2.9-2.4,4.4-3.8c0.3-0.2,0.6-0.6,0.7-1
		c-0.2,0-0.4-0.2-0.6-0.4c-0.2-0.3-0.2-0.5-0.1-0.7c-0.5-0.1-0.9,0.4-1.4,0.7c-0.7,0.6-1.2,0.7-2.2,0.5c-0.7-0.2-1.8-0.7-2.5-1
		l-23-10.3c-1.3-0.6-1.7-1.1-2.8,0c-1.4,1.3-0.9,2-0.3,3.6L95.1,96.7z M102.2,91.8c0.1,0.1,0.9,0.4,1.1,0.6c0.4,0.5-0.7,1.2-0.9,1.4
		l-3,2.8c-0.3,0.3-0.9,1.1-1.4,0.6c-0.2-0.2-0.5-1-0.6-1.3L94.3,88L102.2,91.8z"/>
	<path class="st0" d="M123.4,90.8c0.3,0,0.6-0.1,1-0.3c1.2-0.8,2.3-1.8,3.6-2.7c1.3-0.9,2.5-1.5,3.8-2.4c0.5-0.3,1.1-0.9,0.6-1.6
		c-0.6-0.8-1.6,0-2.2,0.3c-1.1,0.7-2.1,1-3.3,0.1c-0.9-0.6-2.3-2.7-2.9-3.6l-8.8-13l28.8,8.9c1,0.3,2.1,0.8,3.1,0.1
		c1.3-0.9,0.6-1.5-0.1-2.6l-12.7-18.7c-1.1-1.6-2.6-3.3-0.9-4.8c0.6-0.5,2.1-1.2,1.5-2.1c-0.4-0.6-1-0.4-1.6,0
		c-1.1,0.7-2.3,1.6-3.4,2.4c-1.2,0.8-2.4,1.5-3.6,2.3c-0.6,0.4-1.5,1-0.9,1.8c0.6,0.9,1.3,0.1,2-0.3c0.9-0.5,1.9-0.8,3-0.1
		c0.8,0.5,1.7,1.8,2.2,2.6l6.7,9.5l-20.8-6.3c-1.8-0.5-1.7-0.7-3.3,0.4l-6.9,4.7c-0.6,0.4-1.4,0.9-0.9,1.6c0.6,0.9,1.4,0.2,2.1-0.2
		c2-1.2,3.1,0.7,4.1,2.2l8.3,12.3c0.9,1.4,2.4,3.4,2.8,4.9c0.3,1.1,0,1.7-0.8,2.3c-0.4,0.3-1.1,0.7-1.2,1.2c0.2,0,0.3,0.1,0.5,0.3
		C123.4,90.3,123.5,90.6,123.4,90.8z"/>
	<path class="st0" d="M122.8,90.4c0.2,0.3,0.4,0.4,0.6,0.4c0.1-0.3,0-0.5-0.2-0.8c-0.2-0.2-0.4-0.3-0.5-0.3
		C122.6,89.9,122.6,90.2,122.8,90.4z"/>
	<path class="st0" d="M141.4,46.8c2.4-1.3,3,0.3,4,2.5l6.9,15.1c1.3,2.9,1.8,3.5-0.7,5.4c-0.5,0.4-1.1,0.7-0.8,1.4
		c0.3,0.7,0.9,0.8,1.5,0.5c0.8-0.4,1.6-0.9,2.4-1.3c3.6-1.7,7.4-3.1,11-4.8c8.2-3.7,14.4-13.1,10.3-22c-2.1-4.5-6.1-7.2-11-7.9
		c-4.6-0.6-8.7,0.5-12.9,2.4c-1.9,0.9-13.5,6.7-12.6,8.7C139.9,47.8,140.8,47.1,141.4,46.8z M153.5,39.8c2.5-1.1,4.9-1.1,7.1-0.3
		c2.8-0.2,5.9,0.9,7.1,2.7c4,4.2,6.4,10.1,4.5,15.9c-0.9,1.2-2.3,2.4-3.9,3c-0.9,1.3-2,2.3-3.5,2.9c-3.6,1.6-4.6-1-5.9-3.9L152,44.9
		C150.7,41.9,150.4,41.2,153.5,39.8z"/>
	<path class="st0" d="M168.5,47.4c1.2,2.7,2.1,6.3,1.5,9.3c-0.3,1.6-0.8,3.1-1.7,4.4c1.6-0.6,3-1.7,3.9-3c1.9-5.8-0.5-11.7-4.5-15.9
		c-1.2-1.8-4.2-2.8-7.1-2.7C164.1,40.8,166.9,43.9,168.5,47.4z"/>
	<path class="st0" d="M202.4,49.5c3.9,1.8,8.9,1.8,13,1c3.1-0.6,6.3-1.8,8.6-3.9c1.3-1.1,1.1-1.7,0.9-3.3l-0.1-1.9
		c-0.1-0.7-0.3-1.8-1.3-1.6c-0.6,0.1-0.9,0.6-1,1.2c-0.5,1.7-1,3.4-2.2,4.9c-1.2,1.4-2.8,2.3-4.6,2.7c-3.4,0.7-6.6-0.7-8.9-3.1
		c-2.1-2.2-3.5-5.5-4.1-8.5c-0.6-3.1-0.5-6.7,0.8-9.6c1.3-2.8,3.8-5.1,6.9-5.7c6.3-1.2,7.5,4.3,9.7,3.9c0.5-0.1,0.8-0.5,0.7-1
		c-0.1-0.5-0.3-0.9-0.5-1.3l-0.8-2.3c-0.5-1.3-0.6-1.5-1.9-1.6c-2.3-0.2-5,0-7.2,0.4c-4.5,0.9-9.3,3.1-12.4,6.5
		c-3.2,3.5-4.7,8.2-3.8,12.8C195,43.6,198.3,47.5,202.4,49.5z"/>
	<path class="st0" d="M232.7,44c3.3,2.4,8.2,3.6,12.1,3.5c8.9-0.2,16.6-6.9,16.3-16.1c-0.3-9.7-9-15.3-18.1-15
		c-4.5,0.1-8.5,1.7-11.6,5c-2.9,3-4.6,7-4.5,11.2C227,36.9,229.1,41.4,232.7,44z M242.8,18.1c7.1-0.2,10,9.1,10.2,14.8
		c0.2,4.8-1.5,12.7-7.7,12.9c-3.5,0.1-6.1-2.5-7.7-5.4c-1.5-2.9-2.3-6.2-2.4-9.4C235,26.1,236.7,18.3,242.8,18.1z"/>
	<path class="st0" d="M267,19c3,0.9,2.5,2.1,2.1,5l-1.8,12.9c-0.5,3.7-0.4,6.7,2.7,9.2c2.4,1.9,6,3,9.1,3.4c3.4,0.5,6.9,0.4,9.8-1.4
		c3.2-1.9,3.5-4.7,4-8l1.6-12c0.2-0.8,0.4-2.5,0.8-3.3c0.5-1.1,1.2-1.2,2.3-1.2c0.7,0,1.7,0.2,1.8-0.7c0.1-0.7-0.4-1-1-1.1
		c-1.4-0.2-2.8-0.3-4.2-0.5c-1.4-0.2-2.8-0.5-4.2-0.7c-0.7-0.1-1.6-0.2-1.7,0.7c-0.2,1,1,0.9,1.7,1.1c1,0.3,1.9,0.6,2.3,1.7
		c0.3,1,0,2.8-0.1,3.8l-1.7,12c-0.4,2.3-0.6,4.6-2.4,6.3c-1.8,1.8-4.5,2-7,1.7c-2.8-0.3-5.4-1.8-6.1-4.7c-0.4-1.7,0.1-5.6,0.4-7.5
		l1.5-10.4c0.4-3.2,0.3-4.1,3.6-4.2c0.6,0,1.4,0,1.5-0.8c0.1-0.8-0.4-1-1.1-1.1c-2.2-0.4-4.5-0.5-6.8-0.8c-2.5-0.3-4.8-0.9-7.3-1.2
		c-0.6-0.1-1.1-0.1-1.2,0.7C265.5,18.7,266.5,18.8,267,19z"/>
	<path class="st0" d="M297.2,49.8c-0.8-0.2-1.9-0.6-2.2,0.4c-0.3,0.7,0.3,1.1,0.9,1.3c1.4,0.4,2.9,0.7,4.4,1.1
		c1.4,0.4,2.7,1,4.2,1.5c0.7,0.2,1.5,0.3,1.7-0.5c0.3-1-1-1.3-1.6-1.5c-1.2-0.4-2.1-1-2.1-2.5c-0.1-1,0.7-3.4,1-4.5l4.6-15l11.1,28
		c0.4,1,0.7,2.2,1.8,2.5c1.6,0.5,1.6-0.4,2-1.7l6.7-21.6c0.6-1.8,1-4.1,3.2-3.7c0.8,0.1,2.3,0.9,2.6-0.2c0.2-0.8-0.3-1.1-1-1.3
		c-1.3-0.4-2.7-0.7-4-1.1c-1.3-0.4-2.6-0.9-4-1.3c-0.7-0.2-1.7-0.6-2,0.4s0.8,1.1,1.5,1.4c1,0.5,1.8,1,2,2.3
		c0.1,0.9-0.3,2.4-0.6,3.3l-3.5,11.1l-8.1-20.1c-0.7-1.8-0.6-1.8-2.4-2.4l-8-2.5c-0.6-0.2-1.6-0.5-1.8,0.3c-0.3,1,0.8,1.2,1.5,1.5
		c2.3,0.8,1.4,2.8,0.9,4.6l-4.4,14.2c-0.5,1.5-1.2,3.9-2.1,5.2C298.9,49.9,298.2,50.1,297.2,49.8z"/>
	<path class="st0" d="M338.8,59.5c-1.3,2.8-1.5,3.6-4.6,2.7c-0.5-0.2-1.3-0.3-1.6,0.4c-0.4,0.6,0,1,0.6,1.3c2.1,1,4.2,1.8,6.3,2.8
		c2.3,1,4.4,2.2,6.6,3.3c0.5,0.3,1.1,0.3,1.4-0.3c0.4-0.7-0.4-1.2-0.9-1.6c-2.5-1.7-1.8-2.7-0.6-5.2l8.6-18c0.6-1.1,0.7-1.2,1.8-0.7
		c3.5,1.7,3.7,2.7,3.5,6.4c-0.1,0.7,0,1.6,0.7,1.9c0.9,0.5,1.4-0.6,1.8-1.3l3.2-5.2c0.4-0.7,1-1.4,0-1.9c-0.5-0.3-1,0-1.4,0.3
		c-1.4,0.9-2.4,0.2-3.7-0.4L345,36.6c-1.2-0.6-1.6-0.5-1.4-1.9c0.1-0.5,0-0.9-0.5-1.1c-0.9-0.4-1.4,0.3-1.9,0.9l-3.8,4.4
		c-0.3,0.2-0.5,0.5-0.7,0.8c-0.3,0.5-0.3,1,0.3,1.3c0.7,0.3,1.9-0.3,2.5-0.7c2.7-1.6,4.5-2.2,7.4-0.8c1.2,0.6,1.1,0.6,0.6,1.8
		L338.8,59.5z"/>
	<path class="st0" d="M368.3,49.9c0.6,0.4,0.7,0.8,0.9,1.6c0.2,0.9,0.2,2.1,0.2,3l0.2,14.6l-3.6,5.3c-1.8,2.6-2.1,3.3-5,2
		c-0.6-0.2-1.3-0.4-1.7,0.2c-0.4,0.6-0.1,1,0.4,1.4c1.9,1.3,3.9,2.4,5.8,3.7c2.1,1.4,3.9,2.9,6,4.3c0.6,0.4,1.1,0.5,1.5-0.1
		c0.5-0.7-0.1-1.4-0.6-1.8c-2.2-2-1.4-2.9,0.2-5.2l4.4-6.4l9.7-3.7c1.5-0.6,3.8-1.5,5.4-1.6c1,0,1.9,0.3,2.7,0.7
		c0.6,0.2,1,0.6,1.4,0c0.5-0.7,0-1.4-0.6-1.8c-1.5-1-3.1-1.8-4.5-2.8c-1.2-0.8-2.3-1.8-3.5-2.6c-0.5-0.4-1.3-0.7-1.8,0
		s0.5,1.2,1.3,1.9c0.9,0.7,1.4,1.7,0.8,2.6c-0.4,0.5-1.3,1-1.9,1.2l-8.5,3.6l-0.1-9.7c0-0.7-0.1-2.2,0.3-2.8c0.4-0.6,1.5-0.3,1.9,0
		c0.6,0.4,1.5,1.2,2.1,0.4c0.6-0.8-0.3-1.4-0.9-1.8c-2.1-1.4-4.3-2.6-6.4-4.1c-1.7-1.1-3.3-2.4-5-3.6c-0.6-0.4-1.4-1-1.9-0.2
		C366.9,49,367.7,49.4,368.3,49.9z"/>
	<path class="st0" d="M396.2,101.9c0.3,4,2.6,8.5,5.4,11.4c6.1,6.5,16.1,7.9,22.9,1.6c7.1-6.6,5.5-16.9-0.7-23.5
		c-3-3.3-6.9-5.2-11.4-5.4c-4.2-0.2-8.3,1.1-11.4,4C397.8,93,395.8,97.5,396.2,101.9z M401.5,105.4c0.2-1.7,0.7-3.4,1.4-4.7
		c2.1-3.4,4.8-8,8.7-9.5c1-0.3,2-0.4,2.9-0.2c2.8-0.9,5.7-0.9,7.8,1.4c4.8,5.1-0.3,13.5-4.4,17.4c-3.5,3.3-10.5,7.3-14.8,2.8
		C401.2,110.6,401,108,401.5,105.4z"/>
	<path class="st0" d="M407.6,95.2c1.7-1.6,4.3-3.4,6.9-4.2c-0.9-0.1-1.9-0.1-2.9,0.2c-3.9,1.5-6.6,6.1-8.7,9.5
		c-0.7,1.3-1.2,3-1.4,4.7c0.1-0.8,0.4-1.5,0.6-2.2C403.2,100.2,405.2,97.4,407.6,95.2z"/>
	<path class="st0" d="M435.5,116.6l-14.1,9.5c-2.6,1.7-3.2,2.3-5.4,0c-0.4-0.5-1-0.9-1.6-0.5c-0.6,0.4-0.5,0.9-0.1,1.5
		c1.3,1.9,2.7,3.7,4,5.6c1.4,2.1,2.6,4.1,4,6.2c0.4,0.6,0.8,0.9,1.4,0.5c0.7-0.5,0.4-1.3,0.1-1.9c-1.3-2.7-0.2-3.2,2.1-4.8l5.1-3.4
		c1-0.7,1.5-1.1,2.5,0.1l1.2,1.6c2.8,4.2-1.9,5.4-0.6,7.3c0.5,0.7,1.2,0.4,1.7,0.1c1.1-0.9,2.2-1.8,3.3-2.5c1.2-0.6,2.4-1.4,3.5-2.1
		c0.6-0.4,0.9-0.9,0.5-1.5c-0.5-0.8-1.5-0.5-2.1-0.3c-1.3,0.3-2.5,0.5-3.4-0.5c-0.7-0.6-1.8-2.4-2.4-3.2c-0.9-1.4-0.2-1.8,1-2.6
		l5.6-3.9c0.4-0.3,1.1-0.7,1.6-0.5c0.6,0.3,1.4,1.6,1.7,2.1c0.9,1.3,1.9,2.7,2.1,4.2c0.2,1.4-0.2,2.1-0.8,3.4
		c-0.3,0.7-1,1.7-0.5,2.5c0.4,0.6,1.1,0.5,1.6,0.1l3.8-2.6c1.1-0.8,1-1.1,0.3-2.1c-1.7-2.6-3.6-5.1-5.3-7.6
		c-2.5-3.6-4.8-7.5-7.3-11.1c-0.3-0.5-0.8-0.8-1.4-0.4c-0.7,0.5-0.2,1.2,0.1,1.8C439,114.4,437.9,115,435.5,116.6z"/>
	<path class="st0" d="M447.3,173.3c-3.1,1.3-6-1.3-7.1-4.1c-0.7-1.6-1-3.5-0.3-5.2c0.6-1.5,1.7-2.3,2.9-3.3c0.7-0.6,1.9-1.3,1.5-2.4
		c-0.4-1-2-0.2-2.7,0.1l-2.4,1c-1.5,0.6-2.1,0.7-2.2,2.4c-0.2,2.2,0.7,5.9,1.6,8c1.2,2.9,3.2,5.5,6,7c2.6,1.3,5.7,1.7,8.5,0.6
		c5.1-2.1,5.9-6.5,5.5-11.5l-0.2-2.6c-0.2-2.1-0.2-4.6,2.1-5.6c2.5-1.1,5.1,1,6,3.3c1.2,2.9-0.6,5.2-2.7,7c-0.5,0.4-1,0.9-0.7,1.7
		c0.4,1,1.3,0.5,2,0.2l2.9-1c0.9-0.3,1.6-0.5,1.7-1.5c0.2-1.7-0.6-4.7-1.2-6.2c-2.1-5.1-7.8-10.2-13.6-7.8c-4.4,1.8-4.6,6.9-4.6,11
		C450.3,167.6,450.9,171.8,447.3,173.3z"/>
	<path class="st0" d="M453.3,212.2c0.4,0,0.6,0.1,0.8,0.3c0.1-0.4,0-0.8-0.2-1.3c-0.2-1,0-1.4,0.6-2.2c0.5-0.6,1.5-1.3,2.1-1.8
		l20-15.3c1.1-0.9,1.7-1,1.3-2.5c-0.5-1.8-1.3-1.6-3-1.9l-11.5-1.7c0,0.6-0.7,1.2-1.4,1.9l6.9,0.8l-7.1,5.1c-0.1,0.1-0.8,0.6-1,0.7
		c-0.6,0.2-0.7-1.1-0.8-1.4l-1-4c0-0.2-0.2-0.4-0.2-0.7c-0.7-1.2-0.9-2.4-0.5-3.1l-4.4-0.6c-1.4-0.2-4-0.4-5.3-0.7
		c-1.4-0.4-1.6-0.8-2.2-2.1c-0.2-0.6-0.5-1.3-1.3-1.1c-0.8,0.2-0.8,1-0.6,1.7c0.4,1.4,0.8,2.9,1.2,4.3c0.4,1.5,0.6,3,1,4.4
		c0.2,0.7,0.6,1.5,1.4,1.3c2.1-0.5-1.1-4.6,2.2-5.4c1.4-0.4,3.2-0.2,4.5-0.1c1.6,0.2,1.5,0.1,1.9,1.7l1.5,6.1c0.4,1.7,0.5,1.5-1,2.5
		l-3.4,2.4c-0.4,0.3-1,0.7-1.6,0.9c-1.7,0.5-1.2-3.1-2.8-2.7c-0.9,0.2-0.8,1.1-0.6,1.7c0.6,2.2,1.3,4.4,1.9,6.7
		c0.5,1.9,0.8,3.8,1.3,5.7c0.1,0.3,0.2,0.7,0.5,1C452.6,212.5,452.8,212.3,453.3,212.2z"/>
	<path class="st0" d="M458.8,188.2c-0.1-0.4-0.1-0.7,0.3-0.8c0.3-0.1,1.1,0.1,1.4,0.1l1.5,0.2c0.7-0.7,1.4-1.3,1.4-1.9l-2.5-0.4
		l-2.6-0.3C457.9,185.9,458,187,458.8,188.2z"/>
	<path class="st0" d="M485.2,241.6c-0.1-1.4-0.4-2.8-0.5-4.2c-0.1-1.4-0.2-2.8-0.3-4.2c-0.1-0.8-0.2-1.8-1.2-1.7
		c-1.1,0.1-0.7,1.1-0.7,1.9c-0.1,1.1-0.3,2.1-1.4,2.7c-0.8,0.4-2.4,0.6-3.3,0.7l-11.6,0.9l15.4-15.3c1.4-1.3,1.5-1.2,1.3-3.1
		l-0.8-8.3c0-0.6-0.1-1.6-1-1.5c-1,0.2-0.8,1.2-0.8,2c0.1,2.4-2.1,2.4-3.9,2.6l-14.7,1.5c-1.6,0.2-4.1,0.6-5.6,0.2
		c-1.1-0.2-1.4-0.8-1.6-1.8c-0.1-0.5-0.1-1.1-0.4-1.5c-0.1,0.3-0.3,0.5-0.7,0.6c-0.4,0.1-0.7-0.1-0.9-0.3c-0.1,0.2-0.1,0.5-0.1,0.8
		c0.1,1.5,0.4,3,0.6,4.5s0.1,3,0.3,4.5c0,0.6,0.3,1.4,1.1,1.3c1-0.1,0.8-1.4,0.8-2.1c-0.1-1.3,0.1-2.3,1.5-2.9
		c1-0.4,3.5-0.7,4.6-0.8l15.7-1.6l-21.5,21.1c-0.8,0.8-1.7,1.5-1.6,2.7c0.2,1.7,1,1.3,2.3,1.2l22.5-2.3c1.8-0.2,4.1-0.7,4.6,1.5
		c0.1,0.8,0,2.4,1.1,2.3C485.2,242.9,485.3,242.3,485.2,241.6z"/>
	<path class="st0" d="M453.4,213.1c0.4-0.1,0.6-0.3,0.7-0.6c-0.2-0.2-0.4-0.3-0.8-0.3c-0.5,0.1-0.7,0.3-0.8,0.6
		C452.7,213.1,453,213.2,453.4,213.1z"/>
	<path class="st0" d="M484,262.1c-0.8-0.1-0.8,0.8-1,1.4c-0.8,3-2.1,2.7-4.9,2.4l-16.9-1.6c-3.1-0.3-3.9-0.2-4.1-3.4
		c-0.1-0.6-0.2-1.3-1-1.4c-0.7,0-0.9,0.4-1,1.1c-0.3,2.2-0.3,4.5-0.5,6.8c-0.2,2.5-0.7,4.8-0.9,7.3c0,0.6,0.1,1.1,0.8,1.2
		c0.8,0.1,1-0.8,1.2-1.4c0.8-3,1.9-2.7,4.7-2.4l6.1,0.6c1.3,0.2,2,0.1,1.9,1.7l-0.1,2.1c-0.5,5-4.9,2.9-5.1,5.2
		c-0.1,0.8,0.6,1,1.2,1.1c1.3,0,2.8,0.1,4.1,0.2c1.4,0.2,2.8,0.4,4.1,0.6c0.6,0.1,1.2,0,1.3-0.8s-0.8-1.3-1.4-1.5
		c-1.2-0.5-2.2-1.1-2.3-2.5c-0.1-0.9,0.1-3,0.2-4c0.2-1.6,1-1.4,2.4-1.3l6.9,0.7c0.5,0,1.3,0.1,1.6,0.6c0.3,0.6,0.1,2.1,0,2.7
		c-0.2,1.5-0.3,3.2-1.1,4.5c-0.8,1.2-1.5,1.5-2.8,2.1c-0.7,0.4-1.9,0.8-2,1.7c-0.1,0.7,0.6,1,1.2,1.1l4.5,0.2
		c1.3,0.2,1.4-0.2,1.5-1.4c0.3-3,0.4-6.2,0.7-9.2c0.5-4.4,1.1-8.8,1.5-13.2C484.9,262.7,484.8,262.2,484,262.1z"/>
	<path class="st0" d="M480.8,293.1c-0.8-0.2-1,0.7-1.2,1.3c-1.1,2.7-2.4,2.1-5.1,1.4l-16.5-4.1c-3-0.8-3.8-0.8-3.6-4
		c0-0.6-0.1-1.3-0.8-1.5c-0.6-0.2-0.9,0.3-1.1,0.9c-0.6,2.2-0.9,4.5-1.5,6.7c-0.5,2.4-1.3,4.7-1.9,7.1c-0.2,0.6-0.1,1.1,0.6,1.3
		c0.8,0.2,1.2-0.6,1.4-1.2c1.2-2.8,2.3-2.4,5-1.7l6.2,1.5c1,0.2,1.6,0.1,1.4,1c-0.1,0.6-0.3,1.2-0.8,1.5c-0.9,0.6-3,1.1-4,1.3
		l-9.5,2.2c-1.1,0.2-1.6,0.1-1.9,1.2c-0.4,1.3-0.6,2.6-0.9,3.9s-0.7,2.5-1,3.8c-0.2,0.6-0.3,1.4,0.5,1.6c0.6,0.2,0.9-0.2,1.2-0.7
		c0.9-2,1.9-2,3.9-2.4l6.7-1.6c2.4-0.6,4.4-1.2,5.3-3.8c-0.7,4,0.4,8.4,4.8,9.5c2.2,0.6,4.5,0.1,6.3-1.3c1.6-1.3,2.4-3.4,2.9-5.4
		c0.9-3.5,1.6-7.1,2.5-10.7c0.6-2.1,1.3-4.2,1.8-6.3C481.6,293.9,481.6,293.3,480.8,293.1z M476.6,306.7c-0.8,3.3-4,4.4-7,3.7
		c-1.5-0.4-3-1.4-3.8-2.8c-2.6-1.3-1.3-4.9-0.2-6.7c2.1,1.4,6.9,1.3,8.4,3c0.6,0.1,1.7,0.3,2.2,0.5
		C476.8,304.7,476.8,306,476.6,306.7z"/>
	<path class="st0" d="M465.5,302.8c0.3-1.3,1.2-0.8,2.3-0.5l6.2,1.6c0,0,0,0,0,0c-1.6-1.7-6.3-1.6-8.4-3c-1,1.8-2.4,5.3,0.2,6.7
		c-0.1-0.2-0.2-0.3-0.2-0.5C465,305.7,465.1,304.2,465.5,302.8z"/>
	<path class="st0" d="M454.8,332.7l-4.8-5.2c-1-1.1-2.8-2.9-3.6-4c-0.8-1.2-0.7-1.6-0.3-3c0.2-0.6,0.4-1.2-0.3-1.6
		c-0.7-0.4-1.2,0.3-1.5,0.9c-0.7,1.3-1.3,2.8-1.9,4.1c-0.6,1.3-1.4,2.7-2,4c-0.3,0.6-0.6,1.4,0.2,1.8c2,1,2.2-4.2,5.2-2.7
		c1.3,0.6,2.5,1.9,3.5,2.8c1.2,1.2,1.1,1,0.4,2.5l-2.7,5.6c-0.8,1.6-0.6,1.5-2.4,1.3l-4.1-0.3c-0.5-0.1-1.2-0.1-1.8-0.4
		c-1.6-0.8,1.1-3.2-0.4-3.9c-0.8-0.4-1.3,0.3-1.6,0.9c-0.9,2.1-1.8,4.3-2.8,6.4c-0.8,1.7-1.8,3.3-2.7,5.1c-0.3,0.6-0.7,1.5,0.2,1.9
		c0.9,0.5,1.2-0.4,1.6-1.1c0.5-0.9,0.9-1.1,1.9-1.3c0.7-0.1,1.9-0.1,2.7,0l25.1,1.2c1.4,0,1.9,0.3,2.6-1.1c0.8-1.7,0-2.1-1.1-3.4
		L454.8,332.7z M450.2,339.4c-0.2,0-1.1,0-1.3-0.1c-0.6-0.3,0.1-1.3,0.3-1.6l1.8-3.7c0.2-0.4,0.5-1.4,1.1-1.1c0.3,0.2,0.9,0.8,1.1,1
		l5.7,6.2L450.2,339.4z"/>
	<path class="st0" d="M452.4,368.2c-0.9-0.6-1.4,0.3-1.9,0.9c-1.5,1.9-3.2,0.5-4.7-0.6l-12.1-8.6c-1.3-0.9-3.4-2.3-4.3-3.6
		c-0.6-1-0.6-1.6,0-2.5c0.4-0.7,1.1-1.6,0.3-2.2c-0.7-0.4-1.2,0-1.6,0.5c-0.9,1.2-1.6,2.6-2.5,3.8c-0.9,1.2-1.9,2.3-2.8,3.5
		c-0.4,0.5-0.7,1.2,0,1.7c0.9,0.6,1.6-0.6,2-1.1c0.9-1,1.7-1.6,3.1-1.2c1,0.3,3.1,1.7,4,2.4l12.8,9.1l-30.1,1.8
		c-1.1,0-2.3-0.1-3,0.9c-0.9,1.3-0.1,1.6,1,2.4l18.6,12.9c1.5,1.1,3.6,2.2,2.5,4.2c-0.4,0.7-1.6,1.8-0.7,2.5
		c0.7,0.5,1.2,0.1,1.6-0.5c0.8-1.2,1.5-2.4,2.3-3.5c0.8-1.2,1.7-2.2,2.5-3.4c0.4-0.6,1-1.4,0.2-2c-0.9-0.6-1.3,0.4-1.8,1
		c-0.7,0.9-1.6,1.4-2.8,1.2c-0.9-0.1-2.2-1.1-3-1.6l-9.2-6.5l21.6-1.4c1.9-0.1,1.9,0.1,3-1.5l4.8-6.8
		C452.6,369.5,453.1,368.7,452.4,368.2z"/>
	<path class="st0" d="M406.8,385.1c-4.2,0.7-8.3,3.6-11.2,6.6c-2.1,2.2-4,5.1-4.7,8.1c-0.4,1.6,0,2,1.1,3.2l1.4,1.5
		c0.5,0.6,1.3,1.4,2,0.6c0.4-0.4,0.3-1,0.1-1.5c-0.6-1.7-1.1-3.4-1-5.3c0.2-1.9,0.9-3.6,2.2-4.9c2.3-2.4,5.7-3.1,9-2.5
		c3.1,0.6,6.1,2.5,8.3,4.6c2.2,2.2,4.2,5.1,4.8,8.3c0.5,3-0.2,6.3-2.4,8.6c-4.5,4.6-8.7,0.8-10.2,2.4c-0.3,0.4-0.4,0.8,0,1.2
		c0.3,0.3,0.7,0.5,1.1,0.8l2,1.4c1.1,0.7,1.2,0.9,2.4,0.2c2-1.2,4.2-2.9,5.7-4.5c3.2-3.3,5.8-7.8,6.4-12.4c0.5-4.6-0.9-9.3-4.3-12.6
		C416.2,385.8,411.3,384.4,406.8,385.1z"/>
	<path class="st0" d="M403.5,423.6c-2.7,1.5-3.3,0.4-5.1-1.9l-10.7-13.1c-2-2.4-2.6-2.9-0.5-5.3c0.4-0.5,0.8-1.1,0.3-1.7
		c-0.5-0.6-1-0.4-1.5,0c-1.8,1.4-3.4,3-5.2,4.5c-1.9,1.6-3.9,2.9-5.8,4.5c-0.5,0.4-0.8,0.9-0.3,1.4c0.6,0.7,1.4,0.2,1.9-0.1
		c2.6-1.6,3.2-0.6,5,1.6l10.7,13.3c2.1,2.4,2.9,3,0.7,5.5c-0.4,0.5-0.9,1-0.4,1.6c0.5,0.5,1,0.3,1.5-0.1c1.7-1.4,3.3-3,5.1-4.5
		c1.9-1.6,3.9-2.9,5.8-4.5c0.5-0.4,0.8-0.8,0.3-1.4C404.8,422.7,404,423.3,403.5,423.6z"/>
	<path class="st0" d="M372.4,427.8c-3.1,0.7-7.2,2-9.3-1.2c-1.9-2.9,0.1-6.1,2.6-7.8c1.5-1,3.3-1.6,5.1-1.3c1.6,0.3,2.6,1.2,3.8,2.2
		c0.7,0.6,1.6,1.6,2.6,1c1-0.7-0.2-2.1-0.6-2.7l-1.5-2.2c-0.9-1.3-1.1-1.9-2.8-1.7c-2.3,0.3-5.7,1.8-7.6,3.1
		c-2.6,1.7-4.8,4.1-5.7,7.2c-0.8,2.9-0.7,6,1,8.5c3.1,4.6,7.6,4.6,12.4,3.2l2.5-0.7c2-0.6,4.5-1.1,5.9,1c1.5,2.3,0,5.2-2.1,6.6
		c-2.6,1.7-5.2,0.4-7.4-1.3c-0.5-0.4-1.1-0.9-1.8-0.4c-0.9,0.5-0.2,1.4,0.2,2l1.8,2.8c0.5,0.8,0.8,1.5,1.8,1.4
		c1.6-0.2,4.4-1.5,5.8-2.4c4.6-3.1,8.5-9.7,5-14.9C381.4,426.3,376.4,427,372.4,427.8z"/>
	<path class="st0" d="M348.9,430.9c-4.2-0.8-9,0.5-12.8,2.3c-2.8,1.4-5.6,3.4-7.3,6c-0.9,1.4-0.6,1.9,0,3.4l0.7,1.6
		c0.3,0.7,0.8,1.7,1.7,1.2c0.5-0.3,0.6-0.8,0.6-1.4c0.1-1.8,0.1-3.6,0.9-5.3c0.8-1.6,2-3,3.7-3.8c3.1-1.5,6.5-0.9,9.4,0.8
		c2.6,1.6,4.7,4.4,6.1,7.2c1.4,2.9,2.2,6.3,1.7,9.5c-0.5,3.1-2.4,5.9-5.2,7.3c-5.8,2.8-8.4-2.3-10.4-1.3c-0.5,0.2-0.7,0.6-0.5,1.1
		s0.5,0.8,0.8,1.2l1.4,2c0.8,1.1,0.9,1.3,2.2,1.1c2.3-0.4,4.9-1.2,6.9-2.2c4.1-2,8.1-5.3,10.3-9.4c2.2-4.2,2.5-9.1,0.4-13.3
		C357.5,434.8,353.3,431.8,348.9,430.9z"/>
	<path class="st0" d="M321.3,443.8c-3.7-1.5-8.8-1.4-12.6-0.2c-8.6,2.5-14.3,10.8-11.7,19.7c2.7,9.3,12.6,12.5,21.3,9.9
		c4.4-1.3,7.8-3.8,10-7.8c2.1-3.7,2.7-8,1.5-12C328.6,449.2,325.4,445.4,321.3,443.8z M318.1,471.4c-6.8,2-12-6.3-13.6-11.7
		c-1.4-4.6-1.8-12.6,4.1-14.5c3.4-1,6.6,0.9,8.9,3.3c2.2,2.4,3.8,5.4,4.7,8.5C323.6,461.7,323.9,469.7,318.1,471.4z"/>
</g>
</svg>
