<?xml version="1.0" encoding="utf-8"?>
<!-- Generator: Adobe Illustrator 26.3.1, SVG Export Plug-In . SVG Version: 6.00 Build 0)  -->
<svg version="1.1" id="Layer_1" xmlns="http://www.w3.org/2000/svg" xmlns:xlink="http://www.w3.org/1999/xlink" x="0px" y="0px"
	 viewBox="0 0 592.8 85.7" style="enable-background:new 0 0 592.8 85.7;" xml:space="preserve">
<g>
	<path d="M74.2,0c11.9,0,23.3,10.3,23.3,24v3.8l-15.1,0v-4.2c0-4.5-3.7-8.5-8.2-8.5H22.8c-4.9,0-7.4,4.4-7.4,8.1
		c0,3.7-0.1,10.6,8.2,10.8l52.2,1.1c12.5,0.2,22.6,12.8,22.6,27c0,13.7-11.2,23.5-23.9,23.5H23.9C11.7,85.7,0,76,0,62.6v-5h15.1
		l0.1,5c0.2,4.5,4,8,8.6,8h50.7c5.1,0,8.9-3.4,8.9-8.4c0-5.2-0.6-11.7-8.3-11.9L23,49C9.3,48.7,0.5,35.6,0.5,22.6
		C0.5,9.4,10.5,0,22.8,0H74.2z"/>
	<polygon points="202.1,0 179.7,0 122.4,40.9 122.4,0 107.4,0 107.4,85.7 122.4,85.7 122.4,58.8 131.7,52.2 179.7,85.7 201.9,85.7 
		143.6,43.2 	"/>
	<path d="M338.1,0l0,70.4h79.6v15.4h-94h-2V0"/>
	<path d="M592.8,0l-42.4,54.4l0,31.3h-13.8l0-31.3L494.4,0H512l31.6,40l31.7-40H592.8z"/>
	<path d="M295.4,0l0,56.7c0,5.8-1.3,13.6-9.8,13.6H237c-8.6,0-9.8-7.8-9.8-13.6L227.1,0h-15v59.5c0,14.9,10.2,26.2,24.9,26.2h48.6
		c14.7,0,24.9-11.3,24.9-26.2V0"/>
	<path d="M446.5,0l0,70.4h79.6v15.4h-94h-2V0"/>
</g>
</svg>
