<?xml version="1.0" encoding="utf-8"?>
<!-- Generator: Adobe Illustrator 26.3.1, SVG Export Plug-In . SVG Version: 6.00 Build 0)  -->
<svg version="1.1" id="Layer_1" xmlns="http://www.w3.org/2000/svg" xmlns:xlink="http://www.w3.org/1999/xlink" x="0px" y="0px"
	 viewBox="0 0 592.8 85.7" style="enable-background:new 0 0 592.8 85.7;" xml:space="preserve">
<g>
	<path d="M75.8,35.1L23.6,34c-8.3-0.2-8.2-7.1-8.2-10.8s2.5-8.1,7.4-8.1h51.4c4.5,0,8.2,4,8.2,8.5v4.2h15.1V24
		c0-13.7-11.4-24-23.3-24H22.8C10.5,0,0.5,9.4,0.5,22.6c0,13,8.8,26.1,22.5,26.4l52.1,1.3c7.7,0.2,8.3,6.7,8.3,11.9
		c0,5-3.8,8.4-8.9,8.4H23.8c-4.6,0-8.4-3.5-8.6-8l-0.1-5H0v5c0,13.4,11.7,23.1,23.9,23h50.6c12.7,0,23.9-9.8,23.9-23.5
		C98.4,47.9,88.3,35.3,75.8,35.1z"/>
	<polygon points="179.7,0 122.4,40.9 122.4,0 107.4,0 107.4,85.7 122.4,85.7 122.4,58.8 131.7,52.2 179.7,85.7 201.9,85.7 
		143.6,43.2 202.1,0 	"/>
	<polygon points="338.1,0 321.7,0 321.7,85.8 323.7,85.8 417.7,85.8 417.7,70.4 338.1,70.4 	"/>
	<polygon points="575.3,0 543.6,40 512,0 494.4,0 536.6,54.4 536.6,85.7 550.4,85.7 550.4,54.4 592.8,0 	"/>
	<path d="M295.4,56.7c0,5.8-1.3,13.6-9.8,13.6H237c-8.6,0-9.8-7.8-9.8-13.6L227.1,0h-15v59.5c0,14.9,10.2,26.2,24.9,26.2h48.6
		c14.7,0,24.9-11.3,24.9-26.2V0h-15.1V56.7z"/>
	<polygon points="446.5,0 430.1,0 430.1,85.8 432.1,85.8 526.1,85.8 526.1,70.4 446.5,70.4 	"/>
</g>
</svg>
